<svg width="831" height="83" viewBox="0 0 831 83" fill="none" xmlns="http://www.w3.org/2000/svg">
<path d="M21.6061 27.16C21.9261 27.7733 22.1928 28.2133 22.4061 28.48C22.6194 28.72 22.8861 28.92 23.2061 29.08C23.5528 29.2133 24.1128 29.3733 24.8861 29.56V29.84C23.9794 30.1867 22.9661 30.36 21.8461 30.36C21.0994 30.36 20.4994 30.16 20.0461 29.76C19.5928 29.36 19.1528 28.7067 18.7261 27.8C17.0194 24.12 15.6861 20.5867 14.7261 17.2C14.4061 17.2267 13.8994 17.24 13.2061 17.24H10.5261L9.52609 21.28C8.75276 24.48 8.36609 26.5733 8.36609 27.56C8.36609 28.1733 8.45943 28.5867 8.64609 28.8C8.85943 28.9867 9.19276 29.1333 9.64609 29.24L12.4061 29.64V30H0.566094V29.64L3.36609 29.24C3.89943 29.1067 4.28609 28.9067 4.52609 28.64C4.79276 28.3467 5.08609 27.68 5.40609 26.64C5.75276 25.6 6.23276 23.8133 6.84609 21.28L9.40609 10.72C10.1794 7.46667 10.5661 5.36 10.5661 4.4C10.5661 3.78666 10.4594 3.38667 10.2461 3.2C10.0594 3.01333 9.73943 2.86666 9.28609 2.76L6.48609 2.36V2H16.7261C20.0594 2 22.5128 2.54666 24.0861 3.64C25.6861 4.70667 26.4861 6.36 26.4861 8.6C26.4861 9.66667 26.2194 10.76 25.6861 11.88C25.1528 13 24.2061 14.04 22.8461 15C21.4861 15.9333 19.6461 16.5733 17.3261 16.92C18.7928 21.1067 20.2194 24.52 21.6061 27.16ZM10.7261 16.36C11.7928 16.4133 12.8194 16.44 13.8061 16.44C15.9928 16.44 17.7928 16.0667 19.2061 15.32C20.6461 14.5733 21.6861 13.6133 22.3261 12.44C22.9928 11.24 23.3261 9.97333 23.3261 8.64C23.3261 6.50667 22.6861 5 21.4061 4.12C20.1261 3.24 18.2728 2.8 15.8461 2.8H14.2861C13.9394 3.62667 13.1661 6.48 11.9661 11.36L10.7261 16.36ZM32.9017 28.56C33.9417 28.56 35.0751 27.9733 36.3017 26.8C37.5551 25.6 38.7151 23.8933 39.7817 21.68L40.0217 21.8C39.3551 24.36 38.2351 26.4667 36.6617 28.12C35.1151 29.7733 33.4217 30.6 31.5817 30.6C30.3284 30.6 29.3417 30.2 28.6217 29.4C27.9284 28.6 27.5817 27.4267 27.5817 25.88C27.5817 23.96 28.0884 21.8133 29.1017 19.44C30.1151 17.0667 31.4351 15.0667 33.0617 13.44C34.7151 11.7867 36.4484 10.96 38.2617 10.96C39.4084 10.96 40.2617 11.1867 40.8217 11.64C41.4084 12.0933 41.7017 12.7333 41.7017 13.56C41.7017 15.0533 40.8084 16.5467 39.0217 18.04C37.2617 19.5067 34.5151 20.9333 30.7817 22.32C30.5417 23.36 30.4217 24.28 30.4217 25.08C30.4217 26.2533 30.6217 27.1333 31.0217 27.72C31.4217 28.28 32.0484 28.56 32.9017 28.56ZM37.4617 12C36.6351 12 35.7817 12.48 34.9017 13.44C34.0484 14.4 33.2751 15.6267 32.5817 17.12C31.8884 18.5867 31.3417 20.08 30.9417 21.6C33.9551 20.2133 36.0484 18.8267 37.2217 17.44C38.3951 16.0267 38.9817 14.7333 38.9817 13.56C38.9817 12.52 38.4751 12 37.4617 12ZM35.1177 37.52C34.5843 37.52 34.091 37.4533 33.6377 37.32L34.2777 34.72L34.3977 34.68C35.011 34.8933 35.5843 35.0533 36.1177 35.16C36.651 35.2667 37.3577 35.32 38.2377 35.32C39.5443 35.32 40.5443 34.8133 41.2377 33.8C41.9043 32.8133 42.491 31.1867 42.9977 28.92L46.8377 12.28H43.9977L44.1977 11.56L46.9977 11.48C47.5043 9.32 48.2643 7.41333 49.2777 5.76C50.3177 4.08 51.5177 2.78667 52.8777 1.88C54.2643 0.946666 55.7177 0.479999 57.2377 0.479999C57.7977 0.479999 58.291 0.533332 58.7177 0.639999C59.171 0.719999 59.731 0.866666 60.3977 1.08L61.7177 0.559998C61.4777 1.2 61.2377 1.93333 60.9977 2.76C60.7577 3.56 60.4377 4.8 60.0377 6.48L54.7977 28.2L54.9177 28.24C56.3577 27.4667 57.811 25.6133 59.2777 22.68L59.5577 22.8C58.891 25.04 57.9977 26.8533 56.8777 28.24C55.7843 29.6267 54.5843 30.32 53.2777 30.32C52.931 30.32 52.6243 30.2533 52.3577 30.12C52.1177 30.0133 51.971 29.8667 51.9177 29.68L58.3577 3.28C57.4777 3.01333 56.571 2.88 55.6377 2.88C53.5843 2.88 52.0377 3.57333 50.9977 4.96C49.9843 6.32 49.4777 8.10667 49.4777 10.32C49.4777 10.8267 49.491 11.2133 49.5177 11.48H54.2777L54.3577 11.6L54.1977 12.28H49.3177L46.1577 26.32C45.331 29.8933 43.9177 32.6533 41.9177 34.6C39.9443 36.5467 37.6777 37.52 35.1177 37.52ZM66.2611 28.56C67.3011 28.56 68.4344 27.9733 69.6611 26.8C70.9144 25.6 72.0744 23.8933 73.1411 21.68L73.3811 21.8C72.7144 24.36 71.5944 26.4667 70.0211 28.12C68.4744 29.7733 66.7811 30.6 64.9411 30.6C63.6878 30.6 62.7011 30.2 61.9811 29.4C61.2878 28.6 60.9411 27.4267 60.9411 25.88C60.9411 23.96 61.4478 21.8133 62.4611 19.44C63.4744 17.0667 64.7944 15.0667 66.4211 13.44C68.0744 11.7867 69.8078 10.96 71.6211 10.96C72.7678 10.96 73.6211 11.1867 74.1811 11.64C74.7678 12.0933 75.0611 12.7333 75.0611 13.56C75.0611 15.0533 74.1678 16.5467 72.3811 18.04C70.6211 19.5067 67.8744 20.9333 64.1411 22.32C63.9011 23.36 63.7811 24.28 63.7811 25.08C63.7811 26.2533 63.9811 27.1333 64.3811 27.72C64.7811 28.28 65.4078 28.56 66.2611 28.56ZM70.8211 12C69.9944 12 69.1411 12.48 68.2611 13.44C67.4078 14.4 66.6344 15.6267 65.9411 17.12C65.2478 18.5867 64.7011 20.08 64.3011 21.6C67.3144 20.2133 69.4078 18.8267 70.5811 17.44C71.7544 16.0267 72.3411 14.7333 72.3411 13.56C72.3411 12.52 71.8344 12 70.8211 12ZM92.757 11.32C93.4504 11.32 94.0237 11.6 94.477 12.16L92.717 16.88H92.517C92.5704 16.24 92.597 15.84 92.597 15.68C92.597 14.5067 92.2904 13.92 91.677 13.92C91.197 13.92 90.5437 14.2933 89.717 15.04C88.8904 15.76 87.5304 17.4 85.637 19.96L87.677 28.24L87.797 28.28C88.3837 27.88 88.9704 27.2667 89.557 26.44C90.1704 25.6133 90.677 24.6533 91.077 23.56L91.397 23.68C91.0237 25.68 90.3704 27.2933 89.437 28.52C88.5304 29.7467 87.5037 30.36 86.357 30.36C86.197 30.36 86.0237 30.3333 85.837 30.28C85.677 30.2533 85.5837 30.2 85.557 30.12L83.557 22.08C82.1704 24.4 81.0104 26.16 80.077 27.36C79.1437 28.5333 78.3704 29.3067 77.757 29.68C77.1704 30.0533 76.5837 30.24 75.997 30.24C75.677 30.24 75.357 30.16 75.037 30C74.717 29.8667 74.4504 29.6533 74.237 29.36L75.997 24.68H76.157C76.1037 25.2133 76.077 25.5733 76.077 25.76C76.077 26.9867 76.4104 27.6 77.077 27.6C77.557 27.6 78.2237 27.2133 79.077 26.44C79.9304 25.6667 81.357 23.9467 83.357 21.28L81.357 13.16L81.237 13.12C80.6504 13.52 80.0504 14.1333 79.437 14.96C78.8504 15.7867 78.357 16.7467 77.957 17.84L77.597 17.72C77.997 15.72 78.6637 14.1067 79.597 12.88C80.5304 11.6533 81.5704 11.04 82.717 11.04C82.877 11.04 83.037 11.0667 83.197 11.12C83.357 11.1733 83.4504 11.2267 83.477 11.28L85.437 19.12C86.7437 16.9067 87.837 15.24 88.717 14.12C89.6237 12.9733 90.3704 12.2267 90.957 11.88C91.5437 11.5067 92.1437 11.32 92.757 11.32ZM99.1564 30.56C95.7164 30.56 93.9964 28.5733 93.9964 24.6C93.9964 22.6533 94.4364 20.6133 95.3164 18.48C96.2231 16.32 97.4364 14.5333 98.9564 13.12C100.503 11.68 102.17 10.96 103.956 10.96C107.396 10.96 109.116 12.8667 109.116 16.68C109.116 18.6267 108.676 20.6933 107.796 22.88C106.916 25.04 105.703 26.8667 104.156 28.36C102.636 29.8267 100.97 30.56 99.1564 30.56ZM99.5964 29.6C100.93 29.6 102.103 28.8533 103.116 27.36C104.156 25.84 104.956 24.04 105.516 21.96C106.076 19.8533 106.356 18.0267 106.356 16.48C106.356 14.96 106.13 13.8133 105.676 13.04C105.223 12.2667 104.503 11.88 103.516 11.88C102.183 11.88 101.01 12.6267 99.9964 14.12C98.9831 15.5867 98.1964 17.36 97.6364 19.44C97.0764 21.52 96.7964 23.3733 96.7964 25C96.7964 26.5467 97.0097 27.7067 97.4364 28.48C97.8897 29.2267 98.6097 29.6 99.5964 29.6ZM124.855 28.56C125.895 28.56 127.028 27.9733 128.255 26.8C129.508 25.6 130.668 23.8933 131.735 21.68L131.975 21.8C131.308 24.36 130.188 26.4667 128.615 28.12C127.068 29.7733 125.375 30.6 123.535 30.6C122.282 30.6 121.295 30.2 120.575 29.4C119.882 28.6 119.535 27.4267 119.535 25.88C119.535 23.96 120.042 21.8133 121.055 19.44C122.068 17.0667 123.388 15.0667 125.015 13.44C126.668 11.7867 128.402 10.96 130.215 10.96C131.362 10.96 132.215 11.1867 132.775 11.64C133.362 12.0933 133.655 12.7333 133.655 13.56C133.655 15.0533 132.762 16.5467 130.975 18.04C129.215 19.5067 126.468 20.9333 122.735 22.32C122.495 23.36 122.375 24.28 122.375 25.08C122.375 26.2533 122.575 27.1333 122.975 27.72C123.375 28.28 124.002 28.56 124.855 28.56ZM129.415 12C128.588 12 127.735 12.48 126.855 13.44C126.002 14.4 125.228 15.6267 124.535 17.12C123.842 18.5867 123.295 20.08 122.895 21.6C125.908 20.2133 128.002 18.8267 129.175 17.44C130.348 16.0267 130.935 14.7333 130.935 13.56C130.935 12.52 130.428 12 129.415 12ZM133.415 2.56V2.8L129.575 9L129.215 8.84L130.335 2.52L133.415 2.56ZM147.244 30.6C146.524 30.6 145.977 30.3867 145.604 29.96C145.231 29.5333 145.044 28.92 145.044 28.12C145.044 27.4533 145.164 26.7067 145.404 25.88L148.884 13.2L148.764 13.16C147.297 13.9867 145.844 15.84 144.404 18.72L144.124 18.6C144.791 16.36 145.671 14.56 146.764 13.2C147.884 11.8133 149.097 11.12 150.404 11.12C150.751 11.12 151.044 11.1867 151.284 11.32C151.551 11.4267 151.711 11.56 151.764 11.72L147.884 26C147.724 26.56 147.644 27.0133 147.644 27.36C147.644 28.1067 147.964 28.48 148.604 28.48C149.537 28.48 150.711 27.56 152.124 25.72C153.564 23.88 154.924 21.6933 156.204 19.16C157.484 16.6 158.351 14.4 158.804 12.56L159.084 11.48L161.564 11.52L157.564 28.32L157.684 28.36C159.071 27.6133 160.511 25.76 162.004 22.8L162.324 22.96C161.657 25.2 160.764 27.0133 159.644 28.4C158.551 29.76 157.351 30.44 156.044 30.44C155.697 30.44 155.391 30.3733 155.124 30.24C154.884 30.1333 154.737 29.9867 154.684 29.8L157.444 18.44H157.324C155.937 21.7467 154.311 24.6 152.444 27C150.577 29.4 148.844 30.6 147.244 30.6ZM169.194 13.16C167.754 13.9333 166.3 15.7867 164.834 18.72L164.554 18.56C165.22 16.32 166.1 14.52 167.194 13.16C168.314 11.7733 169.527 11.08 170.834 11.08C171.18 11.08 171.474 11.1467 171.714 11.28C171.98 11.3867 172.14 11.5333 172.194 11.72L169.434 23.08H169.554C170.914 19.8267 172.514 16.9867 174.354 14.56C176.22 12.1067 177.874 10.88 179.314 10.88C180.007 10.88 180.54 11.08 180.914 11.48C181.287 11.88 181.474 12.4667 181.474 13.24C181.474 13.8267 181.354 14.5467 181.114 15.4L178.954 23.08H179.114C179.967 21 180.967 19.0267 182.114 17.16C183.26 15.2933 184.42 13.7867 185.594 12.64C186.767 11.4667 187.82 10.88 188.754 10.88C190.22 10.88 190.954 11.6933 190.954 13.32C190.954 13.9067 190.834 14.6667 190.594 15.6L187.114 28.28L187.194 28.36C188.66 27.5333 190.114 25.68 191.554 22.8L191.834 22.92C191.167 25.16 190.287 26.9733 189.194 28.36C188.1 29.72 186.9 30.4 185.594 30.4C185.22 30.4 184.914 30.3333 184.674 30.2C184.434 30.0933 184.287 29.96 184.234 29.8L188.114 15.52C188.274 14.96 188.354 14.4933 188.354 14.12C188.354 13.3733 188.034 13 187.394 13C186.62 13 185.54 13.9333 184.154 15.8C182.767 17.6667 181.434 19.88 180.154 22.44C178.874 24.9733 178.02 27.1333 177.594 28.92L177.314 30.04L174.834 30L178.594 15.52C178.727 15.04 178.794 14.5733 178.794 14.12C178.794 13.3733 178.487 13 177.874 13C177.074 13 175.98 13.9333 174.594 15.8C173.207 17.64 171.874 19.84 170.594 22.4C169.34 24.96 168.487 27.1333 168.034 28.92L167.794 30.04L165.314 30L169.314 13.2L169.194 13.16ZM196.445 30.6C195.672 30.6 195.058 30.3067 194.605 29.72C194.152 29.1333 193.925 28.3067 193.925 27.24C193.925 25.6667 194.365 23.56 195.245 20.92C196.125 18.2533 197.298 15.92 198.765 13.92C200.232 11.92 201.818 10.92 203.525 10.92C204.885 10.92 206.632 11.4667 208.765 12.56L210.925 9.4H211.245L206.765 28.24L206.885 28.28C208.325 27.5067 209.765 25.6533 211.205 22.72L211.525 22.84C210.858 25.08 209.965 26.8933 208.845 28.28C207.752 29.6667 206.552 30.36 205.245 30.36C204.712 30.36 204.245 30.1867 203.845 29.84L206.565 18.64H206.485C204.992 22.1333 203.312 25 201.445 27.24C199.605 29.48 197.938 30.6 196.445 30.6ZM197.925 28.48C198.618 28.48 199.498 27.88 200.565 26.68C201.658 25.4533 202.805 23.8 204.005 21.72C205.232 19.64 206.352 17.36 207.365 14.88C206.778 14.16 206.098 13.4933 205.325 12.88C204.552 12.24 203.792 11.92 203.045 11.92C202.005 11.92 201.005 12.8133 200.045 14.6C199.085 16.36 198.298 18.4267 197.685 20.8C197.072 23.1733 196.765 25.12 196.765 26.64C196.765 27.8667 197.152 28.48 197.925 28.48ZM226.585 30.6C225.279 30.6 224.265 30.1867 223.545 29.36C222.852 28.5333 222.505 27.32 222.505 25.72C222.505 23.8533 222.972 21.7467 223.905 19.4C224.865 17.0533 226.119 15.0667 227.665 13.44C229.239 11.7867 230.892 10.96 232.625 10.96C233.425 10.96 234.225 11.0933 235.025 11.36C235.852 11.6 236.559 11.9067 237.145 12.28L235.305 17H235.105C234.945 15.2933 234.625 14.04 234.145 13.24C233.692 12.4133 233.052 12 232.225 12C231.052 12 229.932 12.7733 228.865 14.32C227.799 15.8667 226.932 17.6933 226.265 19.8C225.625 21.9067 225.305 23.6533 225.305 25.04C225.305 26.24 225.505 27.1333 225.905 27.72C226.305 28.28 226.945 28.56 227.825 28.56C228.892 28.56 230.025 27.9733 231.225 26.8C232.452 25.6 233.572 23.8933 234.585 21.68L234.825 21.8C234.425 23.48 233.812 24.9867 232.985 26.32C232.159 27.6533 231.185 28.7067 230.065 29.48C228.972 30.2267 227.812 30.6 226.585 30.6ZM242.242 30.56C238.802 30.56 237.082 28.5733 237.082 24.6C237.082 22.6533 237.522 20.6133 238.402 18.48C239.309 16.32 240.522 14.5333 242.042 13.12C243.589 11.68 245.256 10.96 247.042 10.96C250.482 10.96 252.202 12.8667 252.202 16.68C252.202 18.6267 251.762 20.6933 250.882 22.88C250.002 25.04 248.789 26.8667 247.242 28.36C245.722 29.8267 244.056 30.56 242.242 30.56ZM242.682 29.6C244.016 29.6 245.189 28.8533 246.202 27.36C247.242 25.84 248.042 24.04 248.602 21.96C249.162 19.8533 249.442 18.0267 249.442 16.48C249.442 14.96 249.216 13.8133 248.762 13.04C248.309 12.2667 247.589 11.88 246.602 11.88C245.269 11.88 244.096 12.6267 243.082 14.12C242.069 15.5867 241.282 17.36 240.722 19.44C240.162 21.52 239.882 23.3733 239.882 25C239.882 26.5467 240.096 27.7067 240.522 28.48C240.976 29.2267 241.696 29.6 242.682 29.6ZM258.728 13.2L258.608 13.16C257.168 13.9333 255.714 15.7867 254.248 18.72L253.968 18.56C254.634 16.32 255.514 14.52 256.608 13.16C257.728 11.7733 258.941 11.08 260.248 11.08C260.594 11.08 260.888 11.1467 261.128 11.28C261.394 11.3867 261.554 11.5333 261.608 11.72L258.848 23.08H258.968C260.354 19.8 261.981 16.9467 263.848 14.52C265.741 12.0933 267.474 10.88 269.048 10.88C269.741 10.88 270.274 11.0933 270.648 11.52C271.021 11.9467 271.208 12.5733 271.208 13.4C271.208 14.12 271.101 14.8533 270.888 15.6L267.408 28.28L267.528 28.32C268.914 27.5733 270.354 25.72 271.848 22.76L272.168 22.92C271.501 25.16 270.608 26.9733 269.488 28.36C268.394 29.72 267.194 30.4 265.888 30.4C265.541 30.4 265.234 30.3333 264.968 30.2C264.728 30.0933 264.581 29.9467 264.528 29.76L268.408 15.52C268.541 15.04 268.608 14.5733 268.608 14.12C268.608 13.3733 268.301 13 267.688 13C266.781 13 265.594 13.92 264.128 15.76C262.688 17.6 261.314 19.8 260.008 22.36C258.728 24.8933 257.874 27.08 257.448 28.92L257.208 30.04L254.728 30L258.728 13.2ZM266.797 37.52C266.264 37.52 265.771 37.4533 265.317 37.32L265.957 34.72L266.077 34.68C266.691 34.8933 267.264 35.0533 267.797 35.16C268.331 35.2667 269.037 35.32 269.917 35.32C271.224 35.32 272.224 34.8133 272.917 33.8C273.584 32.8133 274.171 31.1867 274.677 28.92L278.517 12.28H275.677L275.877 11.56L278.677 11.48C279.184 9.34667 279.984 7.45333 281.077 5.8C282.171 4.12 283.451 2.81333 284.917 1.88C286.384 0.946666 287.904 0.479999 289.477 0.479999C289.984 0.479999 290.477 0.546665 290.957 0.679998L290.277 3.28L290.197 3.32C289.237 3.16 288.077 3.08 286.717 3.08C284.984 3.08 283.624 3.77333 282.637 5.16C281.651 6.52 281.157 8.26667 281.157 10.4C281.157 10.88 281.171 11.24 281.197 11.48H286.797L286.877 11.6L286.757 12.28H280.997L277.837 26.32C277.011 29.8933 275.597 32.6533 273.597 34.6C271.624 36.5467 269.357 37.52 266.797 37.52ZM289.113 28.56C290.153 28.56 291.286 27.9733 292.513 26.8C293.766 25.6 294.926 23.8933 295.993 21.68L296.233 21.8C295.566 24.36 294.446 26.4667 292.873 28.12C291.326 29.7733 289.633 30.6 287.793 30.6C286.539 30.6 285.553 30.2 284.833 29.4C284.139 28.6 283.793 27.4267 283.793 25.88C283.793 23.96 284.299 21.8133 285.313 19.44C286.326 17.0667 287.646 15.0667 289.273 13.44C290.926 11.7867 292.659 10.96 294.473 10.96C295.619 10.96 296.473 11.1867 297.033 11.64C297.619 12.0933 297.913 12.7333 297.913 13.56C297.913 15.0533 297.019 16.5467 295.233 18.04C293.473 19.5067 290.726 20.9333 286.993 22.32C286.753 23.36 286.633 24.28 286.633 25.08C286.633 26.2533 286.833 27.1333 287.233 27.72C287.633 28.28 288.259 28.56 289.113 28.56ZM293.673 12C292.846 12 291.993 12.48 291.113 13.44C290.259 14.4 289.486 15.6267 288.793 17.12C288.099 18.5867 287.553 20.08 287.153 21.6C290.166 20.2133 292.259 18.8267 293.433 17.44C294.606 16.0267 295.193 14.7333 295.193 13.56C295.193 12.52 294.686 12 293.673 12ZM303.569 13.12C302.102 13.9467 300.662 15.8 299.249 18.68L298.929 18.56C299.595 16.32 300.475 14.52 301.569 13.16C302.689 11.7733 303.902 11.08 305.209 11.08C305.555 11.08 305.849 11.1467 306.089 11.28C306.355 11.3867 306.515 11.52 306.569 11.68L303.809 23.08H303.969C305.382 19.6933 306.915 16.8267 308.569 14.48C310.222 12.1067 311.702 10.92 313.009 10.92C313.142 10.92 313.235 10.9333 313.289 10.96L312.489 14.92C311.235 14.8933 309.915 15.64 308.529 17.16C307.142 18.68 305.902 20.5467 304.809 22.76C303.715 24.9733 302.942 27.0133 302.489 28.88L302.209 30.04L299.689 30L303.689 13.16L303.569 13.12ZM317.238 28.56C318.278 28.56 319.411 27.9733 320.638 26.8C321.891 25.6 323.051 23.8933 324.118 21.68L324.358 21.8C323.691 24.36 322.571 26.4667 320.998 28.12C319.451 29.7733 317.758 30.6 315.918 30.6C314.664 30.6 313.678 30.2 312.958 29.4C312.264 28.6 311.918 27.4267 311.918 25.88C311.918 23.96 312.424 21.8133 313.438 19.44C314.451 17.0667 315.771 15.0667 317.398 13.44C319.051 11.7867 320.784 10.96 322.598 10.96C323.744 10.96 324.598 11.1867 325.158 11.64C325.744 12.0933 326.038 12.7333 326.038 13.56C326.038 15.0533 325.144 16.5467 323.358 18.04C321.598 19.5067 318.851 20.9333 315.118 22.32C314.878 23.36 314.758 24.28 314.758 25.08C314.758 26.2533 314.958 27.1333 315.358 27.72C315.758 28.28 316.384 28.56 317.238 28.56ZM321.798 12C320.971 12 320.118 12.48 319.238 13.44C318.384 14.4 317.611 15.6267 316.918 17.12C316.224 18.5867 315.678 20.08 315.278 21.6C318.291 20.2133 320.384 18.8267 321.558 17.44C322.731 16.0267 323.318 14.7333 323.318 13.56C323.318 12.52 322.811 12 321.798 12ZM317.638 8.72C319.931 6.29333 321.984 4.26667 323.798 2.64H324.398C325.491 4.34667 326.571 6.37333 327.638 8.72L327.318 8.96C325.931 7.44 324.651 6.18667 323.478 5.2C321.851 6.18667 319.971 7.44 317.838 8.96L317.638 8.72ZM331.814 13.2L331.694 13.16C330.254 13.9333 328.8 15.7867 327.334 18.72L327.054 18.56C327.72 16.32 328.6 14.52 329.694 13.16C330.814 11.7733 332.027 11.08 333.334 11.08C333.68 11.08 333.974 11.1467 334.214 11.28C334.48 11.3867 334.64 11.5333 334.694 11.72L331.934 23.08H332.054C333.44 19.8 335.067 16.9467 336.934 14.52C338.827 12.0933 340.56 10.88 342.134 10.88C342.827 10.88 343.36 11.0933 343.734 11.52C344.107 11.9467 344.294 12.5733 344.294 13.4C344.294 14.12 344.187 14.8533 343.974 15.6L340.494 28.28L340.614 28.32C342 27.5733 343.44 25.72 344.934 22.76L345.254 22.92C344.587 25.16 343.694 26.9733 342.574 28.36C341.48 29.72 340.28 30.4 338.974 30.4C338.627 30.4 338.32 30.3333 338.054 30.2C337.814 30.0933 337.667 29.9467 337.614 29.76L341.494 15.52C341.627 15.04 341.694 14.5733 341.694 14.12C341.694 13.3733 341.387 13 340.774 13C339.867 13 338.68 13.92 337.214 15.76C335.774 17.6 334.4 19.8 333.094 22.36C331.814 24.8933 330.96 27.08 330.534 28.92L330.294 30.04L327.814 30L331.814 13.2ZM350.843 30.6C349.537 30.6 348.523 30.1867 347.803 29.36C347.11 28.5333 346.763 27.32 346.763 25.72C346.763 23.8533 347.23 21.7467 348.163 19.4C349.123 17.0533 350.377 15.0667 351.923 13.44C353.497 11.7867 355.15 10.96 356.883 10.96C357.683 10.96 358.483 11.0933 359.283 11.36C360.11 11.6 360.817 11.9067 361.403 12.28L359.563 17H359.363C359.203 15.2933 358.883 14.04 358.403 13.24C357.95 12.4133 357.31 12 356.483 12C355.31 12 354.19 12.7733 353.123 14.32C352.057 15.8667 351.19 17.6933 350.523 19.8C349.883 21.9067 349.563 23.6533 349.563 25.04C349.563 26.24 349.763 27.1333 350.163 27.72C350.563 28.28 351.203 28.56 352.083 28.56C353.15 28.56 354.283 27.9733 355.483 26.8C356.71 25.6 357.83 23.8933 358.843 21.68L359.083 21.8C358.683 23.48 358.07 24.9867 357.243 26.32C356.417 27.6533 355.443 28.7067 354.323 29.48C353.23 30.2267 352.07 30.6 350.843 30.6ZM369.18 5.72C368.673 5.72 368.273 5.61333 367.98 5.4C367.713 5.16 367.58 4.82667 367.58 4.4C367.58 3.62667 367.82 3.02667 368.3 2.6C368.78 2.17333 369.367 1.96 370.06 1.96C370.567 1.96 370.953 2.06667 371.22 2.28C371.513 2.49333 371.66 2.81333 371.66 3.24C371.66 3.34667 371.633 3.53333 371.58 3.8C371.447 4.41333 371.167 4.89333 370.74 5.24C370.313 5.56 369.793 5.72 369.18 5.72ZM366.38 13.28C364.993 14.0267 363.553 15.88 362.06 18.84L361.74 18.68C362.407 16.44 363.287 14.64 364.38 13.28C365.5 11.8933 366.713 11.2 368.02 11.2C368.367 11.2 368.66 11.2667 368.9 11.4C369.167 11.5067 369.327 11.64 369.38 11.8L365.22 28.2L365.34 28.24C366.78 27.4667 368.233 25.6133 369.7 22.68L369.98 22.8C369.313 25.04 368.42 26.8533 367.3 28.24C366.207 29.6267 365.007 30.32 363.7 30.32C363.353 30.32 363.047 30.2533 362.78 30.12C362.54 30.0133 362.393 29.8667 362.34 29.68L366.5 13.32L366.38 13.28ZM374.57 30.6C373.797 30.6 373.183 30.3067 372.73 29.72C372.277 29.1333 372.05 28.3067 372.05 27.24C372.05 25.6667 372.49 23.56 373.37 20.92C374.25 18.2533 375.423 15.92 376.89 13.92C378.357 11.92 379.943 10.92 381.65 10.92C383.01 10.92 384.757 11.4667 386.89 12.56L389.05 9.4H389.37L384.89 28.24L385.01 28.28C386.45 27.5067 387.89 25.6533 389.33 22.72L389.65 22.84C388.983 25.08 388.09 26.8933 386.97 28.28C385.877 29.6667 384.677 30.36 383.37 30.36C382.837 30.36 382.37 30.1867 381.97 29.84L384.69 18.64H384.61C383.117 22.1333 381.437 25 379.57 27.24C377.73 29.48 376.063 30.6 374.57 30.6ZM376.05 28.48C376.743 28.48 377.623 27.88 378.69 26.68C379.783 25.4533 380.93 23.8 382.13 21.72C383.357 19.64 384.477 17.36 385.49 14.88C384.903 14.16 384.223 13.4933 383.45 12.88C382.677 12.24 381.917 11.92 381.17 11.92C380.13 11.92 379.13 12.8133 378.17 14.6C377.21 16.36 376.423 18.4267 375.81 20.8C375.197 23.1733 374.89 25.12 374.89 26.64C374.89 27.8667 375.277 28.48 376.05 28.48ZM416.55 10.92C417.404 10.92 418.03 11.2267 418.43 11.84C418.857 12.4533 419.07 13.28 419.07 14.32C419.07 15.92 418.63 18.04 417.75 20.68C416.87 23.32 415.71 25.6267 414.27 27.6C412.83 29.5733 411.27 30.56 409.59 30.56C408.764 30.56 407.99 30.44 407.27 30.2C406.577 29.96 405.804 29.6267 404.95 29.2L404.27 32.12C403.95 33.4 403.79 34.3067 403.79 34.84C403.79 35.32 403.91 35.64 404.15 35.8C404.39 35.9867 404.83 36.1467 405.47 36.28L408.79 36.64V37.04H397.35V36.64L399.43 36.32C399.857 36.24 400.177 36.1067 400.39 35.92C400.604 35.7333 400.817 35.3333 401.03 34.72C401.244 34.1067 401.537 33.0667 401.91 31.6L405.31 17.4C404.804 17.6933 403.764 18.3467 402.19 19.36L401.99 18.88C402.737 18.2667 403.95 17.3333 405.63 16.08L407.31 9H409.83L408.59 14C410.27 12.9333 411.75 12.16 413.03 11.68C414.31 11.1733 415.484 10.92 416.55 10.92ZM409.99 29.6C411.03 29.6 412.03 28.72 412.99 26.96C413.95 25.2 414.737 23.1333 415.35 20.76C415.964 18.36 416.27 16.4 416.27 14.88C416.27 13.6533 415.857 13.04 415.03 13.04C414.177 13.04 413.217 13.24 412.15 13.64C411.11 14.04 409.804 14.7067 408.23 15.64L405.43 27.08C405.91 27.64 406.604 28.2 407.51 28.76C408.417 29.32 409.244 29.6 409.99 29.6ZM423.515 30.6C422.742 30.6 422.128 30.3067 421.675 29.72C421.222 29.1333 420.995 28.3067 420.995 27.24C420.995 25.6667 421.435 23.56 422.315 20.92C423.195 18.2533 424.368 15.92 425.835 13.92C427.302 11.92 428.888 10.92 430.595 10.92C431.955 10.92 433.702 11.4667 435.835 12.56L437.995 9.4H438.315L433.835 28.24L433.955 28.28C435.395 27.5067 436.835 25.6533 438.275 22.72L438.595 22.84C437.928 25.08 437.035 26.8933 435.915 28.28C434.822 29.6667 433.622 30.36 432.315 30.36C431.782 30.36 431.315 30.1867 430.915 29.84L433.635 18.64H433.555C432.062 22.1333 430.382 25 428.515 27.24C426.675 29.48 425.008 30.6 423.515 30.6ZM424.995 28.48C425.688 28.48 426.568 27.88 427.635 26.68C428.728 25.4533 429.875 23.8 431.075 21.72C432.302 19.64 433.422 17.36 434.435 14.88C433.848 14.16 433.168 13.4933 432.395 12.88C431.622 12.24 430.862 11.92 430.115 11.92C429.075 11.92 428.075 12.8133 427.115 14.6C426.155 16.36 425.368 18.4267 424.755 20.8C424.142 23.1733 423.835 25.12 423.835 26.64C423.835 27.8667 424.222 28.48 424.995 28.48ZM445.483 13.12C444.016 13.9467 442.576 15.8 441.163 18.68L440.843 18.56C441.509 16.32 442.389 14.52 443.483 13.16C444.603 11.7733 445.816 11.08 447.123 11.08C447.469 11.08 447.763 11.1467 448.003 11.28C448.269 11.3867 448.429 11.52 448.483 11.68L445.723 23.08H445.883C447.296 19.6933 448.829 16.8267 450.483 14.48C452.136 12.1067 453.616 10.92 454.923 10.92C455.056 10.92 455.149 10.9333 455.203 10.96L454.403 14.92C453.149 14.8933 451.829 15.64 450.443 17.16C449.056 18.68 447.816 20.5467 446.723 22.76C445.629 24.9733 444.856 27.0133 444.403 28.88L444.123 30.04L441.603 30L445.603 13.16L445.483 13.12ZM456.523 30.6C455.75 30.6 455.136 30.3067 454.683 29.72C454.23 29.1333 454.003 28.3067 454.003 27.24C454.003 25.6667 454.443 23.56 455.323 20.92C456.203 18.2533 457.376 15.92 458.843 13.92C460.31 11.92 461.896 10.92 463.603 10.92C464.963 10.92 466.71 11.4667 468.843 12.56L471.003 9.4H471.323L466.843 28.24L466.963 28.28C468.403 27.5067 469.843 25.6533 471.283 22.72L471.603 22.84C470.936 25.08 470.043 26.8933 468.923 28.28C467.83 29.6667 466.63 30.36 465.323 30.36C464.79 30.36 464.323 30.1867 463.923 29.84L466.643 18.64H466.563C465.07 22.1333 463.39 25 461.523 27.24C459.683 29.48 458.016 30.6 456.523 30.6ZM458.003 28.48C458.696 28.48 459.576 27.88 460.643 26.68C461.736 25.4533 462.883 23.8 464.083 21.72C465.31 19.64 466.43 17.36 467.443 14.88C466.856 14.16 466.176 13.4933 465.403 12.88C464.63 12.24 463.87 11.92 463.123 11.92C462.083 11.92 461.083 12.8133 460.123 14.6C459.163 16.36 458.376 18.4267 457.763 20.8C457.15 23.1733 456.843 25.12 456.843 26.64C456.843 27.8667 457.23 28.48 458.003 28.48ZM488.064 13.2L487.944 13.16C486.504 13.9333 485.05 15.7867 483.584 18.72L483.304 18.56C483.97 16.32 484.85 14.52 485.944 13.16C487.064 11.7733 488.277 11.08 489.584 11.08C489.93 11.08 490.224 11.1467 490.464 11.28C490.73 11.3867 490.89 11.5333 490.944 11.72L488.184 23.08H488.304C489.69 19.8 491.317 16.9467 493.184 14.52C495.077 12.0933 496.81 10.88 498.384 10.88C499.077 10.88 499.61 11.0933 499.984 11.52C500.357 11.9467 500.544 12.5733 500.544 13.4C500.544 14.12 500.437 14.8533 500.224 15.6L496.744 28.28L496.864 28.32C498.25 27.5733 499.69 25.72 501.184 22.76L501.504 22.92C500.837 25.16 499.944 26.9733 498.824 28.36C497.73 29.72 496.53 30.4 495.224 30.4C494.877 30.4 494.57 30.3333 494.304 30.2C494.064 30.0933 493.917 29.9467 493.864 29.76L497.744 15.52C497.877 15.04 497.944 14.5733 497.944 14.12C497.944 13.3733 497.637 13 497.024 13C496.117 13 494.93 13.92 493.464 15.76C492.024 17.6 490.65 19.8 489.344 22.36C488.064 24.8933 487.21 27.08 486.784 28.92L486.544 30.04L484.064 30L488.064 13.2ZM508.453 30.56C505.013 30.56 503.293 28.5733 503.293 24.6C503.293 22.6533 503.733 20.6133 504.613 18.48C505.52 16.32 506.733 14.5333 508.253 13.12C509.8 11.68 511.467 10.96 513.253 10.96C516.693 10.96 518.413 12.8667 518.413 16.68C518.413 18.6267 517.973 20.6933 517.093 22.88C516.213 25.04 515 26.8667 513.453 28.36C511.933 29.8267 510.267 30.56 508.453 30.56ZM508.893 29.6C510.227 29.6 511.4 28.8533 512.413 27.36C513.453 25.84 514.253 24.04 514.813 21.96C515.373 19.8533 515.653 18.0267 515.653 16.48C515.653 14.96 515.427 13.8133 514.973 13.04C514.52 12.2667 513.8 11.88 512.813 11.88C511.48 11.88 510.307 12.6267 509.293 14.12C508.28 15.5867 507.493 17.36 506.933 19.44C506.373 21.52 506.093 23.3733 506.093 25C506.093 26.5467 506.307 27.7067 506.733 28.48C507.187 29.2267 507.907 29.6 508.893 29.6ZM523.539 30.64C522.499 30.64 521.525 30.4933 520.619 30.2C519.712 29.9067 518.952 29.5733 518.339 29.2L520.459 24.12H520.579C520.499 25.6667 520.712 26.9867 521.219 28.08C521.752 29.1467 522.605 29.68 523.779 29.68C524.819 29.68 525.659 29.4 526.299 28.84C526.939 28.2533 527.259 27.44 527.259 26.4C527.259 25.6 527.059 24.7867 526.659 23.96C526.259 23.1333 525.605 22.2267 524.699 21.24C523.712 20.12 522.979 19.16 522.499 18.36C522.045 17.56 521.819 16.7067 521.819 15.8C521.819 14.28 522.392 13.0933 523.539 12.24C524.685 11.36 526.032 10.92 527.579 10.92C528.619 10.92 529.552 11.0667 530.379 11.36C531.205 11.6267 531.859 11.9333 532.339 12.28L530.379 16.76H530.259C530.205 15.1867 529.939 13.9867 529.459 13.16C529.005 12.3067 528.259 11.88 527.219 11.88C526.365 11.88 525.659 12.16 525.099 12.72C524.565 13.2533 524.299 13.96 524.299 14.84C524.299 15.5867 524.472 16.32 524.819 17.04C525.165 17.7333 525.792 18.5867 526.699 19.6C527.739 20.72 528.499 21.72 528.979 22.6C529.485 23.4533 529.739 24.3867 529.739 25.4C529.739 26.9467 529.192 28.2133 528.099 29.2C527.032 30.16 525.512 30.64 523.539 30.64ZM546.078 30.6C544.771 30.6 543.758 30.1867 543.038 29.36C542.344 28.5333 541.998 27.32 541.998 25.72C541.998 23.8533 542.464 21.7467 543.398 19.4C544.358 17.0533 545.611 15.0667 547.158 13.44C548.731 11.7867 550.384 10.96 552.118 10.96C552.918 10.96 553.718 11.0933 554.518 11.36C555.344 11.6 556.051 11.9067 556.638 12.28L554.798 17H554.598C554.438 15.2933 554.118 14.04 553.638 13.24C553.184 12.4133 552.544 12 551.718 12C550.544 12 549.424 12.7733 548.358 14.32C547.291 15.8667 546.424 17.6933 545.758 19.8C545.118 21.9067 544.798 23.6533 544.798 25.04C544.798 26.24 544.998 27.1333 545.398 27.72C545.798 28.28 546.438 28.56 547.318 28.56C548.384 28.56 549.518 27.9733 550.718 26.8C551.944 25.6 553.064 23.8933 554.078 21.68L554.318 21.8C553.918 23.48 553.304 24.9867 552.478 26.32C551.651 27.6533 550.678 28.7067 549.558 29.48C548.464 30.2267 547.304 30.6 546.078 30.6ZM561.735 30.56C558.295 30.56 556.575 28.5733 556.575 24.6C556.575 22.6533 557.015 20.6133 557.895 18.48C558.801 16.32 560.015 14.5333 561.535 13.12C563.081 11.68 564.748 10.96 566.535 10.96C569.975 10.96 571.695 12.8667 571.695 16.68C571.695 18.6267 571.255 20.6933 570.375 22.88C569.495 25.04 568.281 26.8667 566.735 28.36C565.215 29.8267 563.548 30.56 561.735 30.56ZM562.175 29.6C563.508 29.6 564.681 28.8533 565.695 27.36C566.735 25.84 567.535 24.04 568.095 21.96C568.655 19.8533 568.935 18.0267 568.935 16.48C568.935 14.96 568.708 13.8133 568.255 13.04C567.801 12.2667 567.081 11.88 566.095 11.88C564.761 11.88 563.588 12.6267 562.575 14.12C561.561 15.5867 560.775 17.36 560.215 19.44C559.655 21.52 559.375 23.3733 559.375 25C559.375 26.5467 559.588 27.7067 560.015 28.48C560.468 29.2267 561.188 29.6 562.175 29.6ZM578.22 13.2L578.1 13.16C576.66 13.9333 575.207 15.7867 573.74 18.72L573.46 18.56C574.127 16.32 575.007 14.52 576.1 13.16C577.22 11.7733 578.433 11.08 579.74 11.08C580.087 11.08 580.38 11.1467 580.62 11.28C580.887 11.3867 581.047 11.5333 581.1 11.72L578.34 23.08H578.46C579.847 19.8 581.473 16.9467 583.34 14.52C585.233 12.0933 586.967 10.88 588.54 10.88C589.233 10.88 589.767 11.0933 590.14 11.52C590.513 11.9467 590.7 12.5733 590.7 13.4C590.7 14.12 590.593 14.8533 590.38 15.6L586.9 28.28L587.02 28.32C588.407 27.5733 589.847 25.72 591.34 22.76L591.66 22.92C590.993 25.16 590.1 26.9733 588.98 28.36C587.887 29.72 586.687 30.4 585.38 30.4C585.033 30.4 584.727 30.3333 584.46 30.2C584.22 30.0933 584.073 29.9467 584.02 29.76L587.9 15.52C588.033 15.04 588.1 14.5733 588.1 14.12C588.1 13.3733 587.793 13 587.18 13C586.273 13 585.087 13.92 583.62 15.76C582.18 17.6 580.807 19.8 579.5 22.36C578.22 24.8933 577.367 27.08 576.94 28.92L576.7 30.04L574.22 30L578.22 13.2ZM598.41 28.56C599.45 28.56 600.583 27.9733 601.81 26.8C603.063 25.6 604.223 23.8933 605.29 21.68L605.53 21.8C604.863 24.36 603.743 26.4667 602.17 28.12C600.623 29.7733 598.93 30.6 597.09 30.6C595.836 30.6 594.85 30.2 594.13 29.4C593.436 28.6 593.09 27.4267 593.09 25.88C593.09 23.96 593.596 21.8133 594.61 19.44C595.623 17.0667 596.943 15.0667 598.57 13.44C600.223 11.7867 601.956 10.96 603.77 10.96C604.916 10.96 605.77 11.1867 606.33 11.64C606.916 12.0933 607.21 12.7333 607.21 13.56C607.21 15.0533 606.316 16.5467 604.53 18.04C602.77 19.5067 600.023 20.9333 596.29 22.32C596.05 23.36 595.93 24.28 595.93 25.08C595.93 26.2533 596.13 27.1333 596.53 27.72C596.93 28.28 597.556 28.56 598.41 28.56ZM602.97 12C602.143 12 601.29 12.48 600.41 13.44C599.556 14.4 598.783 15.6267 598.09 17.12C597.396 18.5867 596.85 20.08 596.45 21.6C599.463 20.2133 601.556 18.8267 602.73 17.44C603.903 16.0267 604.49 14.7333 604.49 13.56C604.49 12.52 603.983 12 602.97 12ZM611.585 30.6C610.279 30.6 609.265 30.1867 608.545 29.36C607.852 28.5333 607.505 27.32 607.505 25.72C607.505 23.8533 607.972 21.7467 608.905 19.4C609.865 17.0533 611.119 15.0667 612.665 13.44C614.239 11.7867 615.892 10.96 617.625 10.96C618.425 10.96 619.225 11.0933 620.025 11.36C620.852 11.6 621.559 11.9067 622.145 12.28L620.305 17H620.105C619.945 15.2933 619.625 14.04 619.145 13.24C618.692 12.4133 618.052 12 617.225 12C616.052 12 614.932 12.7733 613.865 14.32C612.799 15.8667 611.932 17.6933 611.265 19.8C610.625 21.9067 610.305 23.6533 610.305 25.04C610.305 26.24 610.505 27.1333 610.905 27.72C611.305 28.28 611.945 28.56 612.825 28.56C613.892 28.56 615.025 27.9733 616.225 26.8C617.452 25.6 618.572 23.8933 619.585 21.68L619.825 21.8C619.425 23.48 618.812 24.9867 617.985 26.32C617.159 27.6533 616.185 28.7067 615.065 29.48C613.972 30.2267 612.812 30.6 611.585 30.6ZM625.962 30.6C623.856 30.6 622.802 29.6 622.802 27.6C622.802 27.04 622.882 26.4267 623.042 25.76C623.416 24.1867 623.922 22.2667 624.562 20C624.829 18.9333 625.136 17.76 625.482 16.48C625.829 15.2 626.189 13.8133 626.562 12.32L623.642 12.28L623.802 11.56L626.602 11.48L630.082 6.08H630.482L629.162 11.48H634.522L634.562 11.56L634.322 12.28H628.962C627.869 16.4933 626.829 20.68 625.842 24.84C625.656 25.6133 625.562 26.28 625.562 26.84C625.562 27.48 625.682 27.9333 625.922 28.2C626.189 28.44 626.562 28.56 627.042 28.56C628.856 28.56 630.736 26.4933 632.682 22.36L633.002 22.44C632.256 24.9467 631.256 26.9333 630.002 28.4C628.776 29.8667 627.429 30.6 625.962 30.6ZM637.617 30.6C636.843 30.6 636.23 30.3067 635.777 29.72C635.323 29.1333 635.097 28.3067 635.097 27.24C635.097 25.6667 635.537 23.56 636.417 20.92C637.297 18.2533 638.47 15.92 639.937 13.92C641.403 11.92 642.99 10.92 644.697 10.92C646.057 10.92 647.803 11.4667 649.937 12.56L652.097 9.4H652.417L647.937 28.24L648.057 28.28C649.497 27.5067 650.937 25.6533 652.377 22.72L652.697 22.84C652.03 25.08 651.137 26.8933 650.017 28.28C648.923 29.6667 647.723 30.36 646.417 30.36C645.883 30.36 645.417 30.1867 645.017 29.84L647.737 18.64H647.657C646.163 22.1333 644.483 25 642.617 27.24C640.777 29.48 639.11 30.6 637.617 30.6ZM639.097 28.48C639.79 28.48 640.67 27.88 641.737 26.68C642.83 25.4533 643.977 23.8 645.177 21.72C646.403 19.64 647.523 17.36 648.537 14.88C647.95 14.16 647.27 13.4933 646.497 12.88C645.723 12.24 644.963 11.92 644.217 11.92C643.177 11.92 642.177 12.8133 641.217 14.6C640.257 16.36 639.47 18.4267 638.857 20.8C638.243 23.1733 637.937 25.12 637.937 26.64C637.937 27.8667 638.323 28.48 639.097 28.48ZM659.584 13.12C658.118 13.9467 656.678 15.8 655.264 18.68L654.944 18.56C655.611 16.32 656.491 14.52 657.584 13.16C658.704 11.7733 659.918 11.08 661.224 11.08C661.571 11.08 661.864 11.1467 662.104 11.28C662.371 11.3867 662.531 11.52 662.584 11.68L659.824 23.08H659.984C661.398 19.6933 662.931 16.8267 664.584 14.48C666.238 12.1067 667.718 10.92 669.024 10.92C669.158 10.92 669.251 10.9333 669.304 10.96L668.504 14.92C667.251 14.8933 665.931 15.64 664.544 17.16C663.158 18.68 661.918 20.5467 660.824 22.76C659.731 24.9733 658.958 27.0133 658.504 28.88L658.224 30.04L655.704 30L659.704 13.16L659.584 13.12ZM673.959 13.16C672.519 13.9333 671.066 15.7867 669.599 18.72L669.319 18.56C669.986 16.32 670.866 14.52 671.959 13.16C673.079 11.7733 674.293 11.08 675.599 11.08C675.946 11.08 676.239 11.1467 676.479 11.28C676.746 11.3867 676.906 11.5333 676.959 11.72L674.199 23.08H674.319C675.679 19.8267 677.279 16.9867 679.119 14.56C680.986 12.1067 682.639 10.88 684.079 10.88C684.773 10.88 685.306 11.08 685.679 11.48C686.053 11.88 686.239 12.4667 686.239 13.24C686.239 13.8267 686.119 14.5467 685.879 15.4L683.719 23.08H683.879C684.733 21 685.733 19.0267 686.879 17.16C688.026 15.2933 689.186 13.7867 690.359 12.64C691.533 11.4667 692.586 10.88 693.519 10.88C694.986 10.88 695.719 11.6933 695.719 13.32C695.719 13.9067 695.599 14.6667 695.359 15.6L691.879 28.28L691.959 28.36C693.426 27.5333 694.879 25.68 696.319 22.8L696.599 22.92C695.933 25.16 695.053 26.9733 693.959 28.36C692.866 29.72 691.666 30.4 690.359 30.4C689.986 30.4 689.679 30.3333 689.439 30.2C689.199 30.0933 689.053 29.96 688.999 29.8L692.879 15.52C693.039 14.96 693.119 14.4933 693.119 14.12C693.119 13.3733 692.799 13 692.159 13C691.386 13 690.306 13.9333 688.919 15.8C687.533 17.6667 686.199 19.88 684.919 22.44C683.639 24.9733 682.786 27.1333 682.359 28.92L682.079 30.04L679.599 30L683.359 15.52C683.493 15.04 683.559 14.5733 683.559 14.12C683.559 13.3733 683.253 13 682.639 13C681.839 13 680.746 13.9333 679.359 15.8C677.973 17.64 676.639 19.84 675.359 22.4C674.106 24.96 673.253 27.1333 672.799 28.92L672.559 30.04L670.079 30L674.079 13.2L673.959 13.16ZM703.57 30.56C700.13 30.56 698.41 28.5733 698.41 24.6C698.41 22.6533 698.85 20.6133 699.73 18.48C700.637 16.32 701.85 14.5333 703.37 13.12C704.917 11.68 706.584 10.96 708.37 10.96C711.81 10.96 713.53 12.8667 713.53 16.68C713.53 18.6267 713.09 20.6933 712.21 22.88C711.33 25.04 710.117 26.8667 708.57 28.36C707.05 29.8267 705.384 30.56 703.57 30.56ZM704.01 29.6C705.344 29.6 706.517 28.8533 707.53 27.36C708.57 25.84 709.37 24.04 709.93 21.96C710.49 19.8533 710.77 18.0267 710.77 16.48C710.77 14.96 710.544 13.8133 710.09 13.04C709.637 12.2667 708.917 11.88 707.93 11.88C706.597 11.88 705.424 12.6267 704.41 14.12C703.397 15.5867 702.61 17.36 702.05 19.44C701.49 21.52 701.21 23.3733 701.21 25C701.21 26.5467 701.424 27.7067 701.85 28.48C702.304 29.2267 703.024 29.6 704.01 29.6ZM718.656 30.64C717.616 30.64 716.642 30.4933 715.736 30.2C714.829 29.9067 714.069 29.5733 713.456 29.2L715.576 24.12H715.696C715.616 25.6667 715.829 26.9867 716.336 28.08C716.869 29.1467 717.722 29.68 718.896 29.68C719.936 29.68 720.776 29.4 721.416 28.84C722.056 28.2533 722.376 27.44 722.376 26.4C722.376 25.6 722.176 24.7867 721.776 23.96C721.376 23.1333 720.722 22.2267 719.816 21.24C718.829 20.12 718.096 19.16 717.616 18.36C717.162 17.56 716.936 16.7067 716.936 15.8C716.936 14.28 717.509 13.0933 718.656 12.24C719.802 11.36 721.149 10.92 722.696 10.92C723.736 10.92 724.669 11.0667 725.496 11.36C726.322 11.6267 726.976 11.9333 727.456 12.28L725.496 16.76H725.376C725.322 15.1867 725.056 13.9867 724.576 13.16C724.122 12.3067 723.376 11.88 722.336 11.88C721.482 11.88 720.776 12.16 720.216 12.72C719.682 13.2533 719.416 13.96 719.416 14.84C719.416 15.5867 719.589 16.32 719.936 17.04C720.282 17.7333 720.909 18.5867 721.816 19.6C722.856 20.72 723.616 21.72 724.096 22.6C724.602 23.4533 724.856 24.3867 724.856 25.4C724.856 26.9467 724.309 28.2133 723.216 29.2C722.149 30.16 720.629 30.64 718.656 30.64ZM748.755 19.28L748.595 20H738.275L738.435 19.28H748.755ZM775.574 10.92C776.427 10.92 777.054 11.2267 777.454 11.84C777.881 12.4533 778.094 13.28 778.094 14.32C778.094 15.92 777.654 18.04 776.774 20.68C775.894 23.32 774.734 25.6267 773.294 27.6C771.854 29.5733 770.294 30.56 768.614 30.56C767.787 30.56 767.014 30.44 766.294 30.2C765.601 29.96 764.827 29.6267 763.974 29.2L763.294 32.12C762.974 33.4 762.814 34.3067 762.814 34.84C762.814 35.32 762.934 35.64 763.174 35.8C763.414 35.9867 763.854 36.1467 764.494 36.28L767.814 36.64V37.04H756.374V36.64L758.454 36.32C758.881 36.24 759.201 36.1067 759.414 35.92C759.627 35.7333 759.841 35.3333 760.054 34.72C760.267 34.1067 760.561 33.0667 760.934 31.6L764.334 17.4C763.827 17.6933 762.787 18.3467 761.214 19.36L761.014 18.88C761.761 18.2667 762.974 17.3333 764.654 16.08L766.334 9H768.854L767.614 14C769.294 12.9333 770.774 12.16 772.054 11.68C773.334 11.1733 774.507 10.92 775.574 10.92ZM769.014 29.6C770.054 29.6 771.054 28.72 772.014 26.96C772.974 25.2 773.761 23.1333 774.374 20.76C774.987 18.36 775.294 16.4 775.294 14.88C775.294 13.6533 774.881 13.04 774.054 13.04C773.201 13.04 772.241 13.24 771.174 13.64C770.134 14.04 768.827 14.7067 767.254 15.64L764.454 27.08C764.934 27.64 765.627 28.2 766.534 28.76C767.441 29.32 768.267 29.6 769.014 29.6ZM782.539 30.6C781.765 30.6 781.152 30.3067 780.699 29.72C780.245 29.1333 780.019 28.3067 780.019 27.24C780.019 25.6667 780.459 23.56 781.339 20.92C782.219 18.2533 783.392 15.92 784.859 13.92C786.325 11.92 787.912 10.92 789.619 10.92C790.979 10.92 792.725 11.4667 794.859 12.56L797.019 9.4H797.339L792.859 28.24L792.979 28.28C794.419 27.5067 795.859 25.6533 797.299 22.72L797.619 22.84C796.952 25.08 796.059 26.8933 794.939 28.28C793.845 29.6667 792.645 30.36 791.339 30.36C790.805 30.36 790.339 30.1867 789.939 29.84L792.659 18.64H792.579C791.085 22.1333 789.405 25 787.539 27.24C785.699 29.48 784.032 30.6 782.539 30.6ZM784.019 28.48C784.712 28.48 785.592 27.88 786.659 26.68C787.752 25.4533 788.899 23.8 790.099 21.72C791.325 19.64 792.445 17.36 793.459 14.88C792.872 14.16 792.192 13.4933 791.419 12.88C790.645 12.24 789.885 11.92 789.139 11.92C788.099 11.92 787.099 12.8133 786.139 14.6C785.179 16.36 784.392 18.4267 783.779 20.8C783.165 23.1733 782.859 25.12 782.859 26.64C782.859 27.8667 783.245 28.48 784.019 28.48ZM804.506 13.12C803.039 13.9467 801.599 15.8 800.186 18.68L799.866 18.56C800.533 16.32 801.413 14.52 802.506 13.16C803.626 11.7733 804.839 11.08 806.146 11.08C806.493 11.08 806.786 11.1467 807.026 11.28C807.293 11.3867 807.453 11.52 807.506 11.68L804.746 23.08H804.906C806.319 19.6933 807.853 16.8267 809.506 14.48C811.159 12.1067 812.639 10.92 813.946 10.92C814.079 10.92 814.173 10.9333 814.226 10.96L813.426 14.92C812.173 14.8933 810.853 15.64 809.466 17.16C808.079 18.68 806.839 20.5467 805.746 22.76C804.653 24.9733 803.879 27.0133 803.426 28.88L803.146 30.04L800.626 30L804.626 13.16L804.506 13.12ZM815.546 30.6C814.773 30.6 814.16 30.3067 813.706 29.72C813.253 29.1333 813.026 28.3067 813.026 27.24C813.026 25.6667 813.466 23.56 814.346 20.92C815.226 18.2533 816.4 15.92 817.866 13.92C819.333 11.92 820.92 10.92 822.626 10.92C823.986 10.92 825.733 11.4667 827.866 12.56L830.026 9.4H830.346L825.866 28.24L825.986 28.28C827.426 27.5067 828.866 25.6533 830.306 22.72L830.626 22.84C829.96 25.08 829.066 26.8933 827.946 28.28C826.853 29.6667 825.653 30.36 824.346 30.36C823.813 30.36 823.346 30.1867 822.946 29.84L825.666 18.64H825.586C824.093 22.1333 822.413 25 820.546 27.24C818.706 29.48 817.04 30.6 815.546 30.6ZM817.026 28.48C817.72 28.48 818.6 27.88 819.666 26.68C820.76 25.4533 821.906 23.8 823.106 21.72C824.333 19.64 825.453 17.36 826.466 14.88C825.88 14.16 825.2 13.4933 824.426 12.88C823.653 12.24 822.893 11.92 822.146 11.92C821.106 11.92 820.106 12.8133 819.146 14.6C818.186 16.36 817.4 18.4267 816.786 20.8C816.173 23.1733 815.866 25.12 815.866 26.64C815.866 27.8667 816.253 28.48 817.026 28.48ZM72.6764 49.72C72.1697 49.72 71.7697 49.6133 71.4764 49.4C71.2097 49.16 71.0764 48.8267 71.0764 48.4C71.0764 47.6267 71.3164 47.0267 71.7964 46.6C72.2764 46.1733 72.8631 45.96 73.5564 45.96C74.0631 45.96 74.4497 46.0667 74.7164 46.28C75.0097 46.4933 75.1564 46.8133 75.1564 47.24C75.1564 47.3467 75.1297 47.5333 75.0764 47.8C74.9431 48.4133 74.6631 48.8933 74.2364 49.24C73.8097 49.56 73.2897 49.72 72.6764 49.72ZM59.3164 81.64C60.6231 80.9467 61.6897 80.1867 62.5164 79.36C63.3164 78.56 63.9964 77.52 64.5564 76.24C65.1431 74.96 65.6897 73.2667 66.1964 71.16L69.5164 57.32L69.4364 57.28C67.9964 58.0533 66.5431 59.9067 65.0764 62.84L64.7964 62.68C65.4631 60.44 66.3431 58.64 67.4364 57.28C68.5297 55.8933 69.7297 55.2 71.0364 55.2C71.4097 55.2 71.7164 55.2667 71.9564 55.4C72.1964 55.5067 72.3431 55.64 72.3964 55.8L68.5964 71.76C67.9297 74.5333 66.8097 76.7467 65.2364 78.4C63.6897 80.0533 61.7431 81.2667 59.3964 82.04L59.3164 81.64ZM77.283 74.6C76.563 74.6 76.0163 74.3867 75.643 73.96C75.2696 73.5333 75.083 72.92 75.083 72.12C75.083 71.4533 75.203 70.7067 75.443 69.88L78.923 57.2L78.803 57.16C77.3363 57.9867 75.883 59.84 74.443 62.72L74.163 62.6C74.8296 60.36 75.7096 58.56 76.803 57.2C77.923 55.8133 79.1363 55.12 80.443 55.12C80.7896 55.12 81.083 55.1867 81.323 55.32C81.5896 55.4267 81.7496 55.56 81.803 55.72L77.923 70C77.763 70.56 77.683 71.0133 77.683 71.36C77.683 72.1067 78.003 72.48 78.643 72.48C79.5763 72.48 80.7496 71.56 82.163 69.72C83.603 67.88 84.963 65.6933 86.243 63.16C87.523 60.6 88.3896 58.4 88.843 56.56L89.123 55.48L91.603 55.52L87.603 72.32L87.723 72.36C89.1096 71.6133 90.5496 69.76 92.043 66.8L92.363 66.96C91.6963 69.2 90.803 71.0133 89.683 72.4C88.5896 73.76 87.3896 74.44 86.083 74.44C85.7363 74.44 85.4296 74.3733 85.163 74.24C84.923 74.1333 84.7763 73.9867 84.723 73.8L87.483 62.44H87.363C85.9763 65.7467 84.3496 68.6 82.483 71C80.6163 73.4 78.883 74.6 77.283 74.6ZM99.3527 57.2L99.2327 57.16C97.7927 57.9333 96.3393 59.7867 94.8727 62.72L94.5927 62.56C95.2593 60.32 96.1393 58.52 97.2327 57.16C98.3527 55.7733 99.566 55.08 100.873 55.08C101.219 55.08 101.513 55.1467 101.753 55.28C102.019 55.3867 102.179 55.5333 102.233 55.72L99.4727 67.08H99.5927C100.979 63.8 102.606 60.9467 104.473 58.52C106.366 56.0933 108.099 54.88 109.673 54.88C110.366 54.88 110.899 55.0933 111.273 55.52C111.646 55.9467 111.833 56.5733 111.833 57.4C111.833 58.12 111.726 58.8533 111.513 59.6L108.033 72.28L108.153 72.32C109.539 71.5733 110.979 69.72 112.473 66.76L112.793 66.92C112.126 69.16 111.233 70.9733 110.113 72.36C109.019 73.72 107.819 74.4 106.513 74.4C106.166 74.4 105.859 74.3333 105.593 74.2C105.353 74.0933 105.206 73.9467 105.153 73.76L109.033 59.52C109.166 59.04 109.233 58.5733 109.233 58.12C109.233 57.3733 108.926 57 108.313 57C107.406 57 106.219 57.92 104.753 59.76C103.313 61.6 101.939 63.8 100.633 66.36C99.3527 68.8933 98.4993 71.08 98.0727 72.92L97.8327 74.04L95.3527 74L99.3527 57.2ZM118.462 74.6C116.356 74.6 115.302 73.6 115.302 71.6C115.302 71.04 115.382 70.4267 115.542 69.76C115.916 68.1867 116.422 66.2667 117.062 64C117.329 62.9333 117.636 61.76 117.982 60.48C118.329 59.2 118.689 57.8133 119.062 56.32L116.142 56.28L116.302 55.56L119.102 55.48L122.582 50.08H122.982L121.662 55.48H127.022L127.062 55.56L126.822 56.28H121.462C120.369 60.4933 119.329 64.68 118.342 68.84C118.156 69.6133 118.062 70.28 118.062 70.84C118.062 71.48 118.182 71.9333 118.422 72.2C118.689 72.44 119.062 72.56 119.542 72.56C121.356 72.56 123.236 70.4933 125.182 66.36L125.502 66.44C124.756 68.9467 123.756 70.9333 122.502 72.4C121.276 73.8667 119.929 74.6 118.462 74.6ZM130.117 74.6C129.343 74.6 128.73 74.3067 128.277 73.72C127.823 73.1333 127.597 72.3067 127.597 71.24C127.597 69.6667 128.037 67.56 128.917 64.92C129.797 62.2533 130.97 59.92 132.437 57.92C133.903 55.92 135.49 54.92 137.197 54.92C138.557 54.92 140.303 55.4667 142.437 56.56L144.597 53.4H144.917L140.437 72.24L140.557 72.28C141.997 71.5067 143.437 69.6533 144.877 66.72L145.197 66.84C144.53 69.08 143.637 70.8933 142.517 72.28C141.423 73.6667 140.223 74.36 138.917 74.36C138.383 74.36 137.917 74.1867 137.517 73.84L140.237 62.64H140.157C138.663 66.1333 136.983 69 135.117 71.24C133.277 73.48 131.61 74.6 130.117 74.6ZM131.597 72.48C132.29 72.48 133.17 71.88 134.237 70.68C135.33 69.4533 136.477 67.8 137.677 65.72C138.903 63.64 140.023 61.36 141.037 58.88C140.45 58.16 139.77 57.4933 138.997 56.88C138.223 56.24 137.463 55.92 136.717 55.92C135.677 55.92 134.677 56.8133 133.717 58.6C132.757 60.36 131.97 62.4267 131.357 64.8C130.743 67.1733 130.437 69.12 130.437 70.64C130.437 71.8667 130.823 72.48 131.597 72.48ZM150.804 74.64C149.764 74.64 148.791 74.4933 147.884 74.2C146.978 73.9067 146.218 73.5733 145.604 73.2L147.724 68.12H147.844C147.764 69.6667 147.978 70.9867 148.484 72.08C149.018 73.1467 149.871 73.68 151.044 73.68C152.084 73.68 152.924 73.4 153.564 72.84C154.204 72.2533 154.524 71.44 154.524 70.4C154.524 69.6 154.324 68.7867 153.924 67.96C153.524 67.1333 152.871 66.2267 151.964 65.24C150.978 64.12 150.244 63.16 149.764 62.36C149.311 61.56 149.084 60.7067 149.084 59.8C149.084 58.28 149.658 57.0933 150.804 56.24C151.951 55.36 153.298 54.92 154.844 54.92C155.884 54.92 156.818 55.0667 157.644 55.36C158.471 55.6267 159.124 55.9333 159.604 56.28L157.644 60.76H157.524C157.471 59.1867 157.204 57.9867 156.724 57.16C156.271 56.3067 155.524 55.88 154.484 55.88C153.631 55.88 152.924 56.16 152.364 56.72C151.831 57.2533 151.564 57.96 151.564 58.84C151.564 59.5867 151.738 60.32 152.084 61.04C152.431 61.7333 153.058 62.5867 153.964 63.6C155.004 64.72 155.764 65.72 156.244 66.6C156.751 67.4533 157.004 68.3867 157.004 69.4C157.004 70.9467 156.458 72.2133 155.364 73.2C154.298 74.16 152.778 74.64 150.804 74.64ZM172.343 74.6C171.57 74.6 170.957 74.3067 170.503 73.72C170.05 73.1333 169.823 72.3067 169.823 71.24C169.823 69.6667 170.263 67.56 171.143 64.92C172.023 62.2533 173.197 59.92 174.663 57.92C176.13 55.92 177.717 54.92 179.423 54.92C180.783 54.92 182.53 55.4667 184.663 56.56L186.823 53.4H187.143L182.663 72.24L182.783 72.28C184.223 71.5067 185.663 69.6533 187.103 66.72L187.423 66.84C186.757 69.08 185.863 70.8933 184.743 72.28C183.65 73.6667 182.45 74.36 181.143 74.36C180.61 74.36 180.143 74.1867 179.743 73.84L182.463 62.64H182.383C180.89 66.1333 179.21 69 177.343 71.24C175.503 73.48 173.837 74.6 172.343 74.6ZM173.823 72.48C174.517 72.48 175.397 71.88 176.463 70.68C177.557 69.4533 178.703 67.8 179.903 65.72C181.13 63.64 182.25 61.36 183.263 58.88C182.677 58.16 181.997 57.4933 181.223 56.88C180.45 56.24 179.69 55.92 178.943 55.92C177.903 55.92 176.903 56.8133 175.943 58.6C174.983 60.36 174.197 62.4267 173.583 64.8C172.97 67.1733 172.663 69.12 172.663 70.64C172.663 71.8667 173.05 72.48 173.823 72.48ZM204.871 54.92C205.724 54.92 206.351 55.2267 206.751 55.84C207.177 56.4533 207.391 57.28 207.391 58.32C207.391 59.92 206.951 62.04 206.071 64.68C205.191 67.32 204.031 69.6267 202.591 71.6C201.151 73.5733 199.591 74.56 197.911 74.56C197.084 74.56 196.311 74.44 195.591 74.2C194.897 73.96 194.124 73.6267 193.271 73.2L192.591 76.12C192.271 77.4 192.111 78.3067 192.111 78.84C192.111 79.32 192.231 79.64 192.471 79.8C192.711 79.9867 193.151 80.1467 193.791 80.28L197.111 80.64V81.04H185.671V80.64L187.751 80.32C188.177 80.24 188.497 80.1067 188.711 79.92C188.924 79.7333 189.137 79.3333 189.351 78.72C189.564 78.1067 189.857 77.0667 190.231 75.6L193.631 61.4C193.124 61.6933 192.084 62.3467 190.511 63.36L190.311 62.88C191.057 62.2667 192.271 61.3333 193.951 60.08L195.631 53H198.151L196.911 58C198.591 56.9333 200.071 56.16 201.351 55.68C202.631 55.1733 203.804 54.92 204.871 54.92ZM198.311 73.6C199.351 73.6 200.351 72.72 201.311 70.96C202.271 69.2 203.057 67.1333 203.671 64.76C204.284 62.36 204.591 60.4 204.591 58.88C204.591 57.6533 204.177 57.04 203.351 57.04C202.497 57.04 201.537 57.24 200.471 57.64C199.431 58.04 198.124 58.7067 196.551 59.64L193.751 71.08C194.231 71.64 194.924 72.2 195.831 72.76C196.737 73.32 197.564 73.6 198.311 73.6ZM214.115 57.12C212.649 57.9467 211.209 59.8 209.795 62.68L209.475 62.56C210.142 60.32 211.022 58.52 212.115 57.16C213.235 55.7733 214.449 55.08 215.755 55.08C216.102 55.08 216.395 55.1467 216.635 55.28C216.902 55.3867 217.062 55.52 217.115 55.68L214.355 67.08H214.515C215.929 63.6933 217.462 60.8267 219.115 58.48C220.769 56.1067 222.249 54.92 223.555 54.92C223.689 54.92 223.782 54.9333 223.835 54.96L223.035 58.92C221.782 58.8933 220.462 59.64 219.075 61.16C217.689 62.68 216.449 64.5467 215.355 66.76C214.262 68.9733 213.489 71.0133 213.035 72.88L212.755 74.04L210.235 74L214.235 57.16L214.115 57.12ZM227.785 72.56C228.825 72.56 229.958 71.9733 231.185 70.8C232.438 69.6 233.598 67.8933 234.665 65.68L234.905 65.8C234.238 68.36 233.118 70.4667 231.545 72.12C229.998 73.7733 228.305 74.6 226.465 74.6C225.211 74.6 224.225 74.2 223.505 73.4C222.811 72.6 222.465 71.4267 222.465 69.88C222.465 67.96 222.971 65.8133 223.985 63.44C224.998 61.0667 226.318 59.0667 227.945 57.44C229.598 55.7867 231.331 54.96 233.145 54.96C234.291 54.96 235.145 55.1867 235.705 55.64C236.291 56.0933 236.585 56.7333 236.585 57.56C236.585 59.0533 235.691 60.5467 233.905 62.04C232.145 63.5067 229.398 64.9333 225.665 66.32C225.425 67.36 225.305 68.28 225.305 69.08C225.305 70.2533 225.505 71.1333 225.905 71.72C226.305 72.28 226.931 72.56 227.785 72.56ZM232.345 56C231.518 56 230.665 56.48 229.785 57.44C228.931 58.4 228.158 59.6267 227.465 61.12C226.771 62.5867 226.225 64.08 225.825 65.6C228.838 64.2133 230.931 62.8267 232.105 61.44C233.278 60.0267 233.865 58.7333 233.865 57.56C233.865 56.52 233.358 56 232.345 56ZM242.36 57.2L242.24 57.16C240.8 57.9333 239.347 59.7867 237.88 62.72L237.6 62.56C238.267 60.32 239.147 58.52 240.24 57.16C241.36 55.7733 242.574 55.08 243.88 55.08C244.227 55.08 244.52 55.1467 244.76 55.28C245.027 55.3867 245.187 55.5333 245.24 55.72L242.48 67.08H242.6C243.987 63.8 245.614 60.9467 247.48 58.52C249.374 56.0933 251.107 54.88 252.68 54.88C253.374 54.88 253.907 55.0933 254.28 55.52C254.654 55.9467 254.84 56.5733 254.84 57.4C254.84 58.12 254.734 58.8533 254.52 59.6L251.04 72.28L251.16 72.32C252.547 71.5733 253.987 69.72 255.48 66.76L255.8 66.92C255.134 69.16 254.24 70.9733 253.12 72.36C252.027 73.72 250.827 74.4 249.52 74.4C249.174 74.4 248.867 74.3333 248.6 74.2C248.36 74.0933 248.214 73.9467 248.16 73.76L252.04 59.52C252.174 59.04 252.24 58.5733 252.24 58.12C252.24 57.3733 251.934 57 251.32 57C250.414 57 249.227 57.92 247.76 59.76C246.32 61.6 244.947 63.8 243.64 66.36C242.36 68.8933 241.507 71.08 241.08 72.92L240.84 74.04L238.36 74L242.36 57.2ZM260.47 74.6C259.67 74.6 259.03 74.2933 258.55 73.68C258.097 73.0667 257.87 72.2267 257.87 71.16C257.87 69.5867 258.31 67.48 259.19 64.84C260.07 62.2 261.23 59.8933 262.67 57.92C264.137 55.92 265.697 54.92 267.35 54.92C268.177 54.92 269.003 55.08 269.83 55.4C270.683 55.6933 271.417 56.0267 272.03 56.4L274.27 47.12H270.95L271.03 46.76L277.23 45.12C276.803 46.9067 276.337 48.8533 275.83 50.96L270.71 72.24L270.83 72.28C272.297 71.5067 273.737 69.6667 275.15 66.76L275.47 66.88C274.803 69.12 273.91 70.9333 272.79 72.32C271.697 73.68 270.497 74.36 269.19 74.36C268.843 74.36 268.537 74.2933 268.27 74.16C268.03 74.0533 267.883 73.92 267.83 73.76L270.51 62.64H270.43C269.443 64.9333 268.363 66.9867 267.19 68.8C266.017 70.6133 264.83 72.04 263.63 73.08C262.457 74.0933 261.403 74.6 260.47 74.6ZM261.87 72.48C262.563 72.48 263.443 71.8667 264.51 70.64C265.603 69.4133 266.75 67.76 267.95 65.68C269.177 63.6 270.297 61.3333 271.31 58.88C270.803 58.2133 270.15 57.56 269.35 56.92C268.55 56.2533 267.777 55.92 267.03 55.92C265.99 55.92 264.977 56.8 263.99 58.56C263.03 60.32 262.243 62.4 261.63 64.8C261.017 67.1733 260.71 69.12 260.71 70.64C260.71 71.3067 260.803 71.7867 260.99 72.08C261.177 72.3467 261.47 72.48 261.87 72.48ZM282.238 72.56C283.278 72.56 284.411 71.9733 285.638 70.8C286.891 69.6 288.051 67.8933 289.118 65.68L289.358 65.8C288.691 68.36 287.571 70.4667 285.998 72.12C284.451 73.7733 282.758 74.6 280.918 74.6C279.664 74.6 278.678 74.2 277.958 73.4C277.264 72.6 276.918 71.4267 276.918 69.88C276.918 67.96 277.424 65.8133 278.438 63.44C279.451 61.0667 280.771 59.0667 282.398 57.44C284.051 55.7867 285.784 54.96 287.598 54.96C288.744 54.96 289.598 55.1867 290.158 55.64C290.744 56.0933 291.038 56.7333 291.038 57.56C291.038 59.0533 290.144 60.5467 288.358 62.04C286.598 63.5067 283.851 64.9333 280.118 66.32C279.878 67.36 279.758 68.28 279.758 69.08C279.758 70.2533 279.958 71.1333 280.358 71.72C280.758 72.28 281.384 72.56 282.238 72.56ZM286.798 56C285.971 56 285.118 56.48 284.238 57.44C283.384 58.4 282.611 59.6267 281.918 61.12C281.224 62.5867 280.678 64.08 280.278 65.6C283.291 64.2133 285.384 62.8267 286.558 61.44C287.731 60.0267 288.318 58.7333 288.318 57.56C288.318 56.52 287.811 56 286.798 56ZM296.694 57.12C295.227 57.9467 293.787 59.8 292.374 62.68L292.054 62.56C292.72 60.32 293.6 58.52 294.694 57.16C295.814 55.7733 297.027 55.08 298.334 55.08C298.68 55.08 298.974 55.1467 299.214 55.28C299.48 55.3867 299.64 55.52 299.694 55.68L296.934 67.08H297.094C298.507 63.6933 300.04 60.8267 301.694 58.48C303.347 56.1067 304.827 54.92 306.134 54.92C306.267 54.92 306.36 54.9333 306.414 54.96L305.614 58.92C304.36 58.8933 303.04 59.64 301.654 61.16C300.267 62.68 299.027 64.5467 297.934 66.76C296.84 68.9733 296.067 71.0133 295.614 72.88L295.334 74.04L292.814 74L296.814 57.16L296.694 57.12ZM311.069 57.16C309.629 57.9333 308.175 59.7867 306.709 62.72L306.429 62.56C307.095 60.32 307.975 58.52 309.069 57.16C310.189 55.7733 311.402 55.08 312.709 55.08C313.055 55.08 313.349 55.1467 313.589 55.28C313.855 55.3867 314.015 55.5333 314.069 55.72L311.309 67.08H311.429C312.789 63.8267 314.389 60.9867 316.229 58.56C318.095 56.1067 319.749 54.88 321.189 54.88C321.882 54.88 322.415 55.08 322.789 55.48C323.162 55.88 323.349 56.4667 323.349 57.24C323.349 57.8267 323.229 58.5467 322.989 59.4L320.829 67.08H320.989C321.842 65 322.842 63.0267 323.989 61.16C325.135 59.2933 326.295 57.7867 327.469 56.64C328.642 55.4667 329.695 54.88 330.629 54.88C332.095 54.88 332.829 55.6933 332.829 57.32C332.829 57.9067 332.709 58.6667 332.469 59.6L328.989 72.28L329.069 72.36C330.535 71.5333 331.989 69.68 333.429 66.8L333.709 66.92C333.042 69.16 332.162 70.9733 331.069 72.36C329.975 73.72 328.775 74.4 327.469 74.4C327.095 74.4 326.789 74.3333 326.549 74.2C326.309 74.0933 326.162 73.96 326.109 73.8L329.989 59.52C330.149 58.96 330.229 58.4933 330.229 58.12C330.229 57.3733 329.909 57 329.269 57C328.495 57 327.415 57.9333 326.029 59.8C324.642 61.6667 323.309 63.88 322.029 66.44C320.749 68.9733 319.895 71.1333 319.469 72.92L319.189 74.04L316.709 74L320.469 59.52C320.602 59.04 320.669 58.5733 320.669 58.12C320.669 57.3733 320.362 57 319.749 57C318.949 57 317.855 57.9333 316.469 59.8C315.082 61.64 313.749 63.84 312.469 66.4C311.215 68.96 310.362 71.1333 309.909 72.92L309.669 74.04L307.189 74L311.189 57.2L311.069 57.16ZM340.68 74.56C337.24 74.56 335.52 72.5733 335.52 68.6C335.52 66.6533 335.96 64.6133 336.84 62.48C337.747 60.32 338.96 58.5333 340.48 57.12C342.027 55.68 343.693 54.96 345.48 54.96C348.92 54.96 350.64 56.8667 350.64 60.68C350.64 62.6267 350.2 64.6933 349.32 66.88C348.44 69.04 347.227 70.8667 345.68 72.36C344.16 73.8267 342.493 74.56 340.68 74.56ZM341.12 73.6C342.453 73.6 343.627 72.8533 344.64 71.36C345.68 69.84 346.48 68.04 347.04 65.96C347.6 63.8533 347.88 62.0267 347.88 60.48C347.88 58.96 347.653 57.8133 347.2 57.04C346.747 56.2667 346.027 55.88 345.04 55.88C343.707 55.88 342.533 56.6267 341.52 58.12C340.507 59.5867 339.72 61.36 339.16 63.44C338.6 65.52 338.32 67.3733 338.32 69C338.32 70.5467 338.533 71.7067 338.96 72.48C339.413 73.2267 340.133 73.6 341.12 73.6ZM355.765 74.64C354.725 74.64 353.752 74.4933 352.845 74.2C351.938 73.9067 351.178 73.5733 350.565 73.2L352.685 68.12H352.805C352.725 69.6667 352.938 70.9867 353.445 72.08C353.978 73.1467 354.832 73.68 356.005 73.68C357.045 73.68 357.885 73.4 358.525 72.84C359.165 72.2533 359.485 71.44 359.485 70.4C359.485 69.6 359.285 68.7867 358.885 67.96C358.485 67.1333 357.832 66.2267 356.925 65.24C355.938 64.12 355.205 63.16 354.725 62.36C354.272 61.56 354.045 60.7067 354.045 59.8C354.045 58.28 354.618 57.0933 355.765 56.24C356.912 55.36 358.258 54.92 359.805 54.92C360.845 54.92 361.778 55.0667 362.605 55.36C363.432 55.6267 364.085 55.9333 364.565 56.28L362.605 60.76H362.485C362.432 59.1867 362.165 57.9867 361.685 57.16C361.232 56.3067 360.485 55.88 359.445 55.88C358.592 55.88 357.885 56.16 357.325 56.72C356.792 57.2533 356.525 57.96 356.525 58.84C356.525 59.5867 356.698 60.32 357.045 61.04C357.392 61.7333 358.018 62.5867 358.925 63.6C359.965 64.72 360.725 65.72 361.205 66.6C361.712 67.4533 361.965 68.3867 361.965 69.4C361.965 70.9467 361.418 72.2133 360.325 73.2C359.258 74.16 357.738 74.64 355.765 74.64ZM378.304 74.6C376.998 74.6 375.984 74.1867 375.264 73.36C374.571 72.5333 374.224 71.32 374.224 69.72C374.224 67.8533 374.691 65.7467 375.624 63.4C376.584 61.0533 377.838 59.0667 379.384 57.44C380.958 55.7867 382.611 54.96 384.344 54.96C385.144 54.96 385.944 55.0933 386.744 55.36C387.571 55.6 388.278 55.9067 388.864 56.28L387.024 61H386.824C386.664 59.2933 386.344 58.04 385.864 57.24C385.411 56.4133 384.771 56 383.944 56C382.771 56 381.651 56.7733 380.584 58.32C379.518 59.8667 378.651 61.6933 377.984 63.8C377.344 65.9067 377.024 67.6533 377.024 69.04C377.024 70.24 377.224 71.1333 377.624 71.72C378.024 72.28 378.664 72.56 379.544 72.56C380.611 72.56 381.744 71.9733 382.944 70.8C384.171 69.6 385.291 67.8933 386.304 65.68L386.544 65.8C386.144 67.48 385.531 68.9867 384.704 70.32C383.878 71.6533 382.904 72.7067 381.784 73.48C380.691 74.2267 379.531 74.6 378.304 74.6ZM393.961 74.56C390.521 74.56 388.801 72.5733 388.801 68.6C388.801 66.6533 389.241 64.6133 390.121 62.48C391.028 60.32 392.241 58.5333 393.761 57.12C395.308 55.68 396.974 54.96 398.761 54.96C402.201 54.96 403.921 56.8667 403.921 60.68C403.921 62.6267 403.481 64.6933 402.601 66.88C401.721 69.04 400.508 70.8667 398.961 72.36C397.441 73.8267 395.774 74.56 393.961 74.56ZM394.401 73.6C395.734 73.6 396.908 72.8533 397.921 71.36C398.961 69.84 399.761 68.04 400.321 65.96C400.881 63.8533 401.161 62.0267 401.161 60.48C401.161 58.96 400.934 57.8133 400.481 57.04C400.028 56.2667 399.308 55.88 398.321 55.88C396.988 55.88 395.814 56.6267 394.801 58.12C393.788 59.5867 393.001 61.36 392.441 63.44C391.881 65.52 391.601 67.3733 391.601 69C391.601 70.5467 391.814 71.7067 392.241 72.48C392.694 73.2267 393.414 73.6 394.401 73.6ZM410.326 57.16C408.886 57.9333 407.433 59.7867 405.966 62.72L405.686 62.56C406.353 60.32 407.233 58.52 408.326 57.16C409.446 55.7733 410.66 55.08 411.966 55.08C412.313 55.08 412.606 55.1467 412.846 55.28C413.113 55.3867 413.273 55.5333 413.326 55.72L410.566 67.08H410.686C412.046 63.8267 413.646 60.9867 415.486 58.56C417.353 56.1067 419.006 54.88 420.446 54.88C421.14 54.88 421.673 55.08 422.046 55.48C422.42 55.88 422.606 56.4667 422.606 57.24C422.606 57.8267 422.486 58.5467 422.246 59.4L420.086 67.08H420.246C421.1 65 422.1 63.0267 423.246 61.16C424.393 59.2933 425.553 57.7867 426.726 56.64C427.9 55.4667 428.953 54.88 429.886 54.88C431.353 54.88 432.086 55.6933 432.086 57.32C432.086 57.9067 431.966 58.6667 431.726 59.6L428.246 72.28L428.326 72.36C429.793 71.5333 431.246 69.68 432.686 66.8L432.966 66.92C432.3 69.16 431.42 70.9733 430.326 72.36C429.233 73.72 428.033 74.4 426.726 74.4C426.353 74.4 426.046 74.3333 425.806 74.2C425.566 74.0933 425.42 73.96 425.366 73.8L429.246 59.52C429.406 58.96 429.486 58.4933 429.486 58.12C429.486 57.3733 429.166 57 428.526 57C427.753 57 426.673 57.9333 425.286 59.8C423.9 61.6667 422.566 63.88 421.286 66.44C420.006 68.9733 419.153 71.1333 418.726 72.92L418.446 74.04L415.966 74L419.726 59.52C419.86 59.04 419.926 58.5733 419.926 58.12C419.926 57.3733 419.62 57 419.006 57C418.206 57 417.113 57.9333 415.726 59.8C414.34 61.64 413.006 63.84 411.726 66.4C410.473 68.96 409.62 71.1333 409.166 72.92L408.926 74.04L406.446 74L410.446 57.2L410.326 57.16ZM439.938 74.56C436.498 74.56 434.778 72.5733 434.778 68.6C434.778 66.6533 435.218 64.6133 436.098 62.48C437.004 60.32 438.218 58.5333 439.738 57.12C441.284 55.68 442.951 54.96 444.738 54.96C448.178 54.96 449.898 56.8667 449.898 60.68C449.898 62.6267 449.458 64.6933 448.578 66.88C447.698 69.04 446.484 70.8667 444.938 72.36C443.418 73.8267 441.751 74.56 439.938 74.56ZM440.378 73.6C441.711 73.6 442.884 72.8533 443.898 71.36C444.938 69.84 445.738 68.04 446.298 65.96C446.858 63.8533 447.138 62.0267 447.138 60.48C447.138 58.96 446.911 57.8133 446.458 57.04C446.004 56.2667 445.284 55.88 444.298 55.88C442.964 55.88 441.791 56.6267 440.778 58.12C439.764 59.5867 438.978 61.36 438.418 63.44C437.858 65.52 437.578 67.3733 437.578 69C437.578 70.5467 437.791 71.7067 438.218 72.48C438.671 73.2267 439.391 73.6 440.378 73.6ZM480.356 71.16C480.676 71.7733 480.943 72.2133 481.156 72.48C481.369 72.72 481.636 72.92 481.956 73.08C482.303 73.2133 482.863 73.3733 483.636 73.56V73.84C482.729 74.1867 481.716 74.36 480.596 74.36C479.849 74.36 479.249 74.16 478.796 73.76C478.343 73.36 477.903 72.7067 477.476 71.8C475.769 68.12 474.436 64.5867 473.476 61.2C473.156 61.2267 472.649 61.24 471.956 61.24H469.276L468.276 65.28C467.503 68.48 467.116 70.5733 467.116 71.56C467.116 72.1733 467.209 72.5867 467.396 72.8C467.609 72.9867 467.943 73.1333 468.396 73.24L471.156 73.64V74H459.316V73.64L462.116 73.24C462.649 73.1067 463.036 72.9067 463.276 72.64C463.543 72.3467 463.836 71.68 464.156 70.64C464.503 69.6 464.983 67.8133 465.596 65.28L468.156 54.72C468.929 51.4667 469.316 49.36 469.316 48.4C469.316 47.7867 469.209 47.3867 468.996 47.2C468.809 47.0133 468.489 46.8667 468.036 46.76L465.236 46.36V46H475.476C478.809 46 481.263 46.5467 482.836 47.64C484.436 48.7067 485.236 50.36 485.236 52.6C485.236 53.6667 484.969 54.76 484.436 55.88C483.903 57 482.956 58.04 481.596 59C480.236 59.9333 478.396 60.5733 476.076 60.92C477.543 65.1067 478.969 68.52 480.356 71.16ZM469.476 60.36C470.543 60.4133 471.569 60.44 472.556 60.44C474.743 60.44 476.543 60.0667 477.956 59.32C479.396 58.5733 480.436 57.6133 481.076 56.44C481.743 55.24 482.076 53.9733 482.076 52.64C482.076 50.5067 481.436 49 480.156 48.12C478.876 47.24 477.023 46.8 474.596 46.8H473.036C472.689 47.6267 471.916 50.48 470.716 55.36L469.476 60.36ZM491.652 72.56C492.692 72.56 493.825 71.9733 495.052 70.8C496.305 69.6 497.465 67.8933 498.532 65.68L498.772 65.8C498.105 68.36 496.985 70.4667 495.412 72.12C493.865 73.7733 492.172 74.6 490.332 74.6C489.078 74.6 488.092 74.2 487.372 73.4C486.678 72.6 486.332 71.4267 486.332 69.88C486.332 67.96 486.838 65.8133 487.852 63.44C488.865 61.0667 490.185 59.0667 491.812 57.44C493.465 55.7867 495.198 54.96 497.012 54.96C498.158 54.96 499.012 55.1867 499.572 55.64C500.158 56.0933 500.452 56.7333 500.452 57.56C500.452 59.0533 499.558 60.5467 497.772 62.04C496.012 63.5067 493.265 64.9333 489.532 66.32C489.292 67.36 489.172 68.28 489.172 69.08C489.172 70.2533 489.372 71.1333 489.772 71.72C490.172 72.28 490.798 72.56 491.652 72.56ZM496.212 56C495.385 56 494.532 56.48 493.652 57.44C492.798 58.4 492.025 59.6267 491.332 61.12C490.638 62.5867 490.092 64.08 489.692 65.6C492.705 64.2133 494.798 62.8267 495.972 61.44C497.145 60.0267 497.732 58.7333 497.732 57.56C497.732 56.52 497.225 56 496.212 56ZM493.868 81.52C493.334 81.52 492.841 81.4533 492.388 81.32L493.028 78.72L493.148 78.68C493.761 78.8933 494.334 79.0533 494.868 79.16C495.401 79.2667 496.108 79.32 496.988 79.32C498.294 79.32 499.294 78.8133 499.988 77.8C500.654 76.8133 501.241 75.1867 501.748 72.92L505.588 56.28H502.748L502.948 55.56L505.748 55.48C506.254 53.32 507.014 51.4133 508.028 49.76C509.068 48.08 510.268 46.7867 511.628 45.88C513.014 44.9467 514.468 44.48 515.988 44.48C516.548 44.48 517.041 44.5333 517.468 44.64C517.921 44.72 518.481 44.8667 519.148 45.08L520.468 44.56C520.228 45.2 519.988 45.9333 519.748 46.76C519.508 47.56 519.188 48.8 518.788 50.48L513.548 72.2L513.668 72.24C515.108 71.4667 516.561 69.6133 518.028 66.68L518.308 66.8C517.641 69.04 516.748 70.8533 515.628 72.24C514.534 73.6267 513.334 74.32 512.028 74.32C511.681 74.32 511.374 74.2533 511.108 74.12C510.868 74.0133 510.721 73.8667 510.668 73.68L517.108 47.28C516.228 47.0133 515.321 46.88 514.388 46.88C512.334 46.88 510.788 47.5733 509.748 48.96C508.734 50.32 508.228 52.1067 508.228 54.32C508.228 54.8267 508.241 55.2133 508.268 55.48H513.028L513.108 55.6L512.948 56.28H508.068L504.908 70.32C504.081 73.8933 502.668 76.6533 500.668 78.6C498.694 80.5467 496.428 81.52 493.868 81.52ZM525.011 72.56C526.051 72.56 527.184 71.9733 528.411 70.8C529.664 69.6 530.824 67.8933 531.891 65.68L532.131 65.8C531.464 68.36 530.344 70.4667 528.771 72.12C527.224 73.7733 525.531 74.6 523.691 74.6C522.438 74.6 521.451 74.2 520.731 73.4C520.038 72.6 519.691 71.4267 519.691 69.88C519.691 67.96 520.198 65.8133 521.211 63.44C522.224 61.0667 523.544 59.0667 525.171 57.44C526.824 55.7867 528.558 54.96 530.371 54.96C531.518 54.96 532.371 55.1867 532.931 55.64C533.518 56.0933 533.811 56.7333 533.811 57.56C533.811 59.0533 532.918 60.5467 531.131 62.04C529.371 63.5067 526.624 64.9333 522.891 66.32C522.651 67.36 522.531 68.28 522.531 69.08C522.531 70.2533 522.731 71.1333 523.131 71.72C523.531 72.28 524.158 72.56 525.011 72.56ZM529.571 56C528.744 56 527.891 56.48 527.011 57.44C526.158 58.4 525.384 59.6267 524.691 61.12C523.998 62.5867 523.451 64.08 523.051 65.6C526.064 64.2133 528.158 62.8267 529.331 61.44C530.504 60.0267 531.091 58.7333 531.091 57.56C531.091 56.52 530.584 56 529.571 56ZM538.267 74.6C536.16 74.6 535.107 73.6 535.107 71.6C535.107 71.04 535.187 70.4267 535.347 69.76C535.72 68.1867 536.227 66.2667 536.867 64C537.134 62.9333 537.44 61.76 537.787 60.48C538.134 59.2 538.494 57.8133 538.867 56.32L535.947 56.28L536.107 55.56L538.907 55.48L542.387 50.08H542.787L541.467 55.48H546.827L546.867 55.56L546.627 56.28H541.267C540.174 60.4933 539.134 64.68 538.147 68.84C537.96 69.6133 537.867 70.28 537.867 70.84C537.867 71.48 537.987 71.9333 538.227 72.2C538.494 72.44 538.867 72.56 539.347 72.56C541.16 72.56 543.04 70.4933 544.987 66.36L545.307 66.44C544.56 68.9467 543.56 70.9333 542.307 72.4C541.08 73.8667 539.734 74.6 538.267 74.6ZM554.961 49.72C554.455 49.72 554.055 49.6133 553.761 49.4C553.495 49.16 553.361 48.8267 553.361 48.4C553.361 47.6267 553.601 47.0267 554.081 46.6C554.561 46.1733 555.148 45.96 555.841 45.96C556.348 45.96 556.735 46.0667 557.001 46.28C557.295 46.4933 557.441 46.8133 557.441 47.24C557.441 47.3467 557.415 47.5333 557.361 47.8C557.228 48.4133 556.948 48.8933 556.521 49.24C556.095 49.56 555.575 49.72 554.961 49.72ZM552.161 57.28C550.775 58.0267 549.335 59.88 547.841 62.84L547.521 62.68C548.188 60.44 549.068 58.64 550.161 57.28C551.281 55.8933 552.495 55.2 553.801 55.2C554.148 55.2 554.441 55.2667 554.681 55.4C554.948 55.5067 555.108 55.64 555.161 55.8L551.001 72.2L551.121 72.24C552.561 71.4667 554.015 69.6133 555.481 66.68L555.761 66.8C555.095 69.04 554.201 70.8533 553.081 72.24C551.988 73.6267 550.788 74.32 549.481 74.32C549.135 74.32 548.828 74.2533 548.561 74.12C548.321 74.0133 548.175 73.8667 548.121 73.68L552.281 57.32L552.161 57.28ZM562.631 57.12C561.164 57.9467 559.724 59.8 558.311 62.68L557.991 62.56C558.658 60.32 559.538 58.52 560.631 57.16C561.751 55.7733 562.964 55.08 564.271 55.08C564.618 55.08 564.911 55.1467 565.151 55.28C565.418 55.3867 565.578 55.52 565.631 55.68L562.871 67.08H563.031C564.444 63.6933 565.978 60.8267 567.631 58.48C569.284 56.1067 570.764 54.92 572.071 54.92C572.204 54.92 572.298 54.9333 572.351 54.96L571.551 58.92C570.298 58.8933 568.978 59.64 567.591 61.16C566.204 62.68 564.964 64.5467 563.871 66.76C562.778 68.9733 562.004 71.0133 561.551 72.88L561.271 74.04L558.751 74L562.751 57.16L562.631 57.12ZM580.019 73.64L582.819 73.24C583.353 73.1067 583.739 72.9067 583.979 72.64C584.246 72.3467 584.539 71.68 584.859 70.64C585.206 69.6 585.686 67.8133 586.299 65.28L588.859 54.72C589.633 51.4667 590.019 49.36 590.019 48.4C590.019 47.7867 589.913 47.3867 589.699 47.2C589.513 47.0133 589.193 46.8667 588.739 46.76L585.939 46.36V46H597.059C601.006 46 604.019 46.9333 606.099 48.8C608.179 50.6667 609.219 53.2 609.219 56.4C609.219 59.3333 608.526 62.1467 607.139 64.84C605.753 67.5333 603.673 69.7333 600.899 71.44C598.153 73.1467 594.846 74 590.979 74H580.019V73.64ZM590.939 73.2C594.219 73.2 596.979 72.3867 599.219 70.76C601.486 69.1333 603.166 67.0267 604.259 64.44C605.353 61.8533 605.899 59.1467 605.899 56.32C605.899 53.44 605.139 51.1333 603.619 49.4C602.099 47.6667 599.819 46.8 596.779 46.8C595.526 46.8 594.499 46.84 593.699 46.92C593.379 47.5333 592.619 50.3467 591.419 55.36L588.419 67.68C587.993 69.52 587.779 70.7867 587.779 71.48C587.779 72.0933 587.899 72.5333 588.139 72.8C588.406 73.0667 588.819 73.2 589.379 73.2H590.939ZM614.738 72.56C615.778 72.56 616.911 71.9733 618.138 70.8C619.391 69.6 620.551 67.8933 621.618 65.68L621.858 65.8C621.191 68.36 620.071 70.4667 618.498 72.12C616.951 73.7733 615.258 74.6 613.418 74.6C612.164 74.6 611.178 74.2 610.458 73.4C609.764 72.6 609.418 71.4267 609.418 69.88C609.418 67.96 609.924 65.8133 610.938 63.44C611.951 61.0667 613.271 59.0667 614.898 57.44C616.551 55.7867 618.284 54.96 620.098 54.96C621.244 54.96 622.098 55.1867 622.658 55.64C623.244 56.0933 623.538 56.7333 623.538 57.56C623.538 59.0533 622.644 60.5467 620.858 62.04C619.098 63.5067 616.351 64.9333 612.618 66.32C612.378 67.36 612.258 68.28 612.258 69.08C612.258 70.2533 612.458 71.1333 612.858 71.72C613.258 72.28 613.884 72.56 614.738 72.56ZM619.298 56C618.471 56 617.618 56.48 616.738 57.44C615.884 58.4 615.111 59.6267 614.418 61.12C613.724 62.5867 613.178 64.08 612.778 65.6C615.791 64.2133 617.884 62.8267 619.058 61.44C620.231 60.0267 620.818 58.7333 620.818 57.56C620.818 56.52 620.311 56 619.298 56ZM627.674 74.6C626.954 74.6 626.407 74.3867 626.034 73.96C625.66 73.5333 625.474 72.92 625.474 72.12C625.474 71.4533 625.594 70.7067 625.834 69.88L629.314 57.2L629.194 57.16C627.727 57.9867 626.274 59.84 624.834 62.72L624.554 62.6C625.22 60.36 626.1 58.56 627.194 57.2C628.314 55.8133 629.527 55.12 630.834 55.12C631.18 55.12 631.474 55.1867 631.714 55.32C631.98 55.4267 632.14 55.56 632.194 55.72L628.314 70C628.154 70.56 628.074 71.0133 628.074 71.36C628.074 72.1067 628.394 72.48 629.034 72.48C629.967 72.48 631.14 71.56 632.554 69.72C633.994 67.88 635.354 65.6933 636.634 63.16C637.914 60.6 638.78 58.4 639.234 56.56L639.514 55.48L641.994 55.52L637.994 72.32L638.114 72.36C639.5 71.6133 640.94 69.76 642.434 66.8L642.754 66.96C642.087 69.2 641.194 71.0133 640.074 72.4C638.98 73.76 637.78 74.44 636.474 74.44C636.127 74.44 635.82 74.3733 635.554 74.24C635.314 74.1333 635.167 73.9867 635.114 73.8L637.874 62.44H637.754C636.367 65.7467 634.74 68.6 632.874 71C631.007 73.4 629.274 74.6 627.674 74.6ZM648.343 74.64C647.303 74.64 646.33 74.4933 645.423 74.2C644.517 73.9067 643.757 73.5733 643.143 73.2L645.263 68.12H645.383C645.303 69.6667 645.517 70.9867 646.023 72.08C646.557 73.1467 647.41 73.68 648.583 73.68C649.623 73.68 650.463 73.4 651.103 72.84C651.743 72.2533 652.063 71.44 652.063 70.4C652.063 69.6 651.863 68.7867 651.463 67.96C651.063 67.1333 650.41 66.2267 649.503 65.24C648.517 64.12 647.783 63.16 647.303 62.36C646.85 61.56 646.623 60.7067 646.623 59.8C646.623 58.28 647.197 57.0933 648.343 56.24C649.49 55.36 650.837 54.92 652.383 54.92C653.423 54.92 654.357 55.0667 655.183 55.36C656.01 55.6267 656.663 55.9333 657.143 56.28L655.183 60.76H655.063C655.01 59.1867 654.743 57.9867 654.263 57.16C653.81 56.3067 653.063 55.88 652.023 55.88C651.17 55.88 650.463 56.16 649.903 56.72C649.37 57.2533 649.103 57.96 649.103 58.84C649.103 59.5867 649.277 60.32 649.623 61.04C649.97 61.7333 650.597 62.5867 651.503 63.6C652.543 64.72 653.303 65.72 653.783 66.6C654.29 67.4533 654.543 68.3867 654.543 69.4C654.543 70.9467 653.997 72.2133 652.903 73.2C651.837 74.16 650.317 74.64 648.343 74.64ZM672.042 72.56C673.082 72.56 674.216 71.9733 675.442 70.8C676.696 69.6 677.856 67.8933 678.922 65.68L679.162 65.8C678.496 68.36 677.376 70.4667 675.802 72.12C674.256 73.7733 672.562 74.6 670.722 74.6C669.469 74.6 668.482 74.2 667.762 73.4C667.069 72.6 666.722 71.4267 666.722 69.88C666.722 67.96 667.229 65.8133 668.242 63.44C669.256 61.0667 670.576 59.0667 672.202 57.44C673.856 55.7867 675.589 54.96 677.402 54.96C678.549 54.96 679.402 55.1867 679.962 55.64C680.549 56.0933 680.842 56.7333 680.842 57.56C680.842 59.0533 679.949 60.5467 678.162 62.04C676.402 63.5067 673.656 64.9333 669.922 66.32C669.682 67.36 669.562 68.28 669.562 69.08C669.562 70.2533 669.762 71.1333 670.162 71.72C670.562 72.28 671.189 72.56 672.042 72.56ZM676.602 56C675.776 56 674.922 56.48 674.042 57.44C673.189 58.4 672.416 59.6267 671.722 61.12C671.029 62.5867 670.482 64.08 670.082 65.6C673.096 64.2133 675.189 62.8267 676.362 61.44C677.536 60.0267 678.122 58.7333 678.122 57.56C678.122 56.52 677.616 56 676.602 56ZM686.498 57.16C685.058 57.9333 683.605 59.7867 682.138 62.72L681.858 62.56C682.525 60.32 683.405 58.52 684.498 57.16C685.618 55.7733 686.832 55.08 688.138 55.08C688.485 55.08 688.778 55.1467 689.018 55.28C689.285 55.3867 689.445 55.5333 689.498 55.72L686.738 67.08H686.858C688.218 63.8267 689.818 60.9867 691.658 58.56C693.525 56.1067 695.178 54.88 696.618 54.88C697.312 54.88 697.845 55.08 698.218 55.48C698.592 55.88 698.778 56.4667 698.778 57.24C698.778 57.8267 698.658 58.5467 698.418 59.4L696.258 67.08H696.418C697.272 65 698.272 63.0267 699.418 61.16C700.565 59.2933 701.725 57.7867 702.898 56.64C704.072 55.4667 705.125 54.88 706.058 54.88C707.525 54.88 708.258 55.6933 708.258 57.32C708.258 57.9067 708.138 58.6667 707.898 59.6L704.418 72.28L704.498 72.36C705.965 71.5333 707.418 69.68 708.858 66.8L709.138 66.92C708.472 69.16 707.592 70.9733 706.498 72.36C705.405 73.72 704.205 74.4 702.898 74.4C702.525 74.4 702.218 74.3333 701.978 74.2C701.738 74.0933 701.592 73.96 701.538 73.8L705.418 59.52C705.578 58.96 705.658 58.4933 705.658 58.12C705.658 57.3733 705.338 57 704.698 57C703.925 57 702.845 57.9333 701.458 59.8C700.072 61.6667 698.738 63.88 697.458 66.44C696.178 68.9733 695.325 71.1333 694.898 72.92L694.618 74.04L692.138 74L695.898 59.52C696.032 59.04 696.098 58.5733 696.098 58.12C696.098 57.3733 695.792 57 695.178 57C694.378 57 693.285 57.9333 691.898 59.8C690.512 61.64 689.178 63.84 687.898 66.4C686.645 68.96 685.792 71.1333 685.338 72.92L685.098 74.04L682.618 74L686.618 57.2L686.498 57.16ZM725.603 57.2L725.483 57.16C724.043 57.9333 722.589 59.7867 721.123 62.72L720.843 62.56C721.509 60.32 722.389 58.52 723.483 57.16C724.603 55.7733 725.816 55.08 727.123 55.08C727.469 55.08 727.763 55.1467 728.003 55.28C728.269 55.3867 728.429 55.5333 728.483 55.72L725.723 67.08H725.843C727.229 63.8 728.856 60.9467 730.723 58.52C732.616 56.0933 734.349 54.88 735.923 54.88C736.616 54.88 737.149 55.0933 737.523 55.52C737.896 55.9467 738.083 56.5733 738.083 57.4C738.083 58.12 737.976 58.8533 737.763 59.6L734.283 72.28L734.403 72.32C735.789 71.5733 737.229 69.72 738.723 66.76L739.043 66.92C738.376 69.16 737.483 70.9733 736.363 72.36C735.269 73.72 734.069 74.4 732.763 74.4C732.416 74.4 732.109 74.3333 731.843 74.2C731.603 74.0933 731.456 73.9467 731.403 73.76L735.283 59.52C735.416 59.04 735.483 58.5733 735.483 58.12C735.483 57.3733 735.176 57 734.563 57C733.656 57 732.469 57.92 731.003 59.76C729.563 61.6 728.189 63.8 726.883 66.36C725.603 68.8933 724.749 71.08 724.323 72.92L724.083 74.04L721.603 74L725.603 57.2ZM745.992 74.56C742.552 74.56 740.832 72.5733 740.832 68.6C740.832 66.6533 741.272 64.6133 742.152 62.48C743.059 60.32 744.272 58.5333 745.792 57.12C747.339 55.68 749.006 54.96 750.792 54.96C754.232 54.96 755.952 56.8667 755.952 60.68C755.952 62.6267 755.512 64.6933 754.632 66.88C753.752 69.04 752.539 70.8667 750.992 72.36C749.472 73.8267 747.806 74.56 745.992 74.56ZM746.432 73.6C747.766 73.6 748.939 72.8533 749.952 71.36C750.992 69.84 751.792 68.04 752.352 65.96C752.912 63.8533 753.192 62.0267 753.192 60.48C753.192 58.96 752.966 57.8133 752.512 57.04C752.059 56.2667 751.339 55.88 750.352 55.88C749.019 55.88 747.846 56.6267 746.832 58.12C745.819 59.5867 745.032 61.36 744.472 63.44C743.912 65.52 743.632 67.3733 743.632 69C743.632 70.5467 743.846 71.7067 744.272 72.48C744.726 73.2267 745.446 73.6 746.432 73.6ZM755.272 46.36V46.6L751.432 52.8L751.072 52.64L752.192 46.32L755.272 46.36ZM761.078 74.64C760.038 74.64 759.064 74.4933 758.158 74.2C757.251 73.9067 756.491 73.5733 755.878 73.2L757.998 68.12H758.118C758.038 69.6667 758.251 70.9867 758.758 72.08C759.291 73.1467 760.144 73.68 761.318 73.68C762.358 73.68 763.198 73.4 763.838 72.84C764.478 72.2533 764.798 71.44 764.798 70.4C764.798 69.6 764.598 68.7867 764.198 67.96C763.798 67.1333 763.144 66.2267 762.238 65.24C761.251 64.12 760.518 63.16 760.038 62.36C759.584 61.56 759.358 60.7067 759.358 59.8C759.358 58.28 759.931 57.0933 761.078 56.24C762.224 55.36 763.571 54.92 765.118 54.92C766.158 54.92 767.091 55.0667 767.918 55.36C768.744 55.6267 769.398 55.9333 769.878 56.28L767.918 60.76H767.798C767.744 59.1867 767.478 57.9867 766.998 57.16C766.544 56.3067 765.798 55.88 764.758 55.88C763.904 55.88 763.198 56.16 762.638 56.72C762.104 57.2533 761.838 57.96 761.838 58.84C761.838 59.5867 762.011 60.32 762.358 61.04C762.704 61.7333 763.331 62.5867 764.238 63.6C765.278 64.72 766.038 65.72 766.518 66.6C767.024 67.4533 767.278 68.3867 767.278 69.4C767.278 70.9467 766.731 72.2133 765.638 73.2C764.571 74.16 763.051 74.64 761.078 74.64Z" fill="black"/>
</svg>
