<svg width="22" height="21" viewBox="0 0 22 21" fill="none" xmlns="http://www.w3.org/2000/svg">
<path d="M18.8318 13.8189H6.23161C6.00663 13.8189 5.82669 13.6347 5.78165 13.4044L4.43158 3.73119L4.02645 0.921168H1.2815C1.01148 0.921168 0.831543 0.736977 0.831543 0.460584C0.831543 0.184191 1.01148 0 1.2815 0H4.43157C4.65655 0 4.83649 0.184191 4.88153 0.414483L5.28645 3.22428L20.6314 3.2245C20.7663 3.2245 20.9014 3.2706 20.9915 3.40869C21.0815 3.50089 21.1264 3.63898 21.0815 3.77728L19.2815 13.4505C19.2365 13.6808 19.0563 13.8189 18.8314 13.8189L18.8318 13.8189ZM6.63651 12.8977H18.4717L20.0918 4.14573L5.42168 4.14551L6.63651 12.8977Z" fill="black"/>
<path d="M7.13134 20.2675C5.87132 20.2675 4.88135 19.2542 4.88135 17.9644C4.88135 16.6746 5.87132 15.6613 7.13134 15.6613C8.39136 15.6613 9.38133 16.6746 9.38133 17.9644C9.38133 19.2542 8.39136 20.2675 7.13134 20.2675ZM7.13134 16.5824C6.36633 16.5824 5.78127 17.1813 5.78127 17.9644C5.78127 18.7475 6.36633 19.3464 7.13134 19.3464C7.89635 19.3464 8.48141 18.7475 8.48141 17.9644C8.48141 17.1813 7.89635 16.5824 7.13134 16.5824Z" fill="black"/>
<path d="M18.3816 20.2675C17.1216 20.2675 16.1316 19.2542 16.1316 17.9644C16.1316 16.6746 17.1216 15.6613 18.3816 15.6613C19.6416 15.6613 20.6316 16.6746 20.6316 17.9644C20.6316 19.2542 19.6416 20.2675 18.3816 20.2675ZM18.3816 16.5824C17.6166 16.5824 17.0315 17.1813 17.0315 17.9644C17.0315 18.7475 17.6166 19.3464 18.3816 19.3464C19.1466 19.3464 19.7317 18.7475 19.7317 17.9644C19.7317 17.1813 19.1466 16.5824 18.3816 16.5824Z" fill="black"/>
</svg>