<svg width="319" height="41" viewBox="0 0 319 41" fill="none" xmlns="http://www.w3.org/2000/svg">
<rect x="1" y="1.06982" width="317" height="38.0716" stroke="black" stroke-width="2"/>
<path d="M70.6992 27.0858H72.457V12.994H70.6992V27.0858ZM75.6211 27.0858H77.3203V20.9139C77.3203 20.3085 77.431 19.7876 77.6523 19.3514C77.8802 18.9087 78.196 18.5669 78.5996 18.326C79.0098 18.0852 79.4915 17.9647 80.0449 17.9647C80.8717 17.9647 81.4837 18.1926 81.8809 18.6483C82.278 19.0975 82.4766 19.7844 82.4766 20.7089V27.0858H84.1758V20.3182C84.1758 19.0943 83.86 18.147 83.2285 17.4764C82.597 16.7994 81.6986 16.4608 80.5332 16.4608C79.7585 16.4608 79.1172 16.6171 78.6094 16.9296C78.1081 17.2356 77.724 17.6587 77.457 18.1991H77.3203V16.6464H75.6211V27.0858ZM90.6406 27.2714C91.4349 27.2714 92.1445 27.1412 92.7695 26.8807C93.3945 26.6138 93.8893 26.246 94.2539 25.7772C94.6185 25.302 94.8008 24.7551 94.8008 24.1366V24.1171C94.8008 23.3684 94.5664 22.7727 94.0977 22.33C93.6289 21.8807 92.8932 21.5357 91.8906 21.2948L90.2695 20.9042C89.6641 20.7609 89.2246 20.5721 88.9512 20.3378C88.6842 20.0969 88.5508 19.8007 88.5508 19.4491V19.4296C88.5508 19.1171 88.6419 18.8469 88.8242 18.619C89.0065 18.3846 89.2572 18.2024 89.5762 18.0721C89.8952 17.9419 90.263 17.8768 90.6797 17.8768C91.3112 17.8768 91.8223 18.0135 92.2129 18.287C92.6035 18.5539 92.8509 18.9022 92.9551 19.3319V19.3514H94.6152L94.6055 19.3221C94.5404 18.7492 94.3353 18.2479 93.9902 17.8182C93.6517 17.3885 93.1992 17.0565 92.6328 16.8221C92.0729 16.5813 91.4219 16.4608 90.6797 16.4608C89.944 16.4608 89.2832 16.5943 88.6973 16.8612C88.1113 17.1216 87.6491 17.483 87.3105 17.9452C86.9785 18.4009 86.8125 18.9218 86.8125 19.5077V19.5175C86.8125 20.2662 87.0436 20.8684 87.5059 21.3241C87.9681 21.7733 88.6875 22.1151 89.6641 22.3495L91.2949 22.7401C91.9264 22.8964 92.3789 23.0982 92.6523 23.3456C92.9258 23.5865 93.0625 23.8859 93.0625 24.244V24.2635C93.0625 24.576 92.9616 24.8527 92.7598 25.0936C92.5579 25.3345 92.2812 25.5233 91.9297 25.66C91.5781 25.7902 91.1647 25.8553 90.6895 25.8553C90.0124 25.8553 89.4688 25.7219 89.0586 25.455C88.6549 25.1815 88.3848 24.8169 88.248 24.3612V24.3417H86.5195V24.3612C86.5846 24.9471 86.793 25.4582 87.1445 25.8944C87.5026 26.3306 87.9779 26.6691 88.5703 26.91C89.1693 27.1509 89.8594 27.2714 90.6406 27.2714ZM101.51 27.2714C102.337 27.2714 103.049 27.1314 103.648 26.8514C104.247 26.565 104.732 26.1744 105.104 25.6796C105.475 25.1783 105.725 24.6086 105.855 23.9706L105.875 23.8729L104.195 23.8827L104.176 23.9413C103.993 24.5272 103.678 24.9797 103.229 25.2987C102.786 25.6112 102.21 25.7675 101.5 25.7675C100.888 25.7675 100.351 25.608 99.8887 25.2889C99.4329 24.9699 99.0781 24.5175 98.8242 23.9315C98.5703 23.3456 98.4434 22.649 98.4434 21.8417V21.8319C98.4434 21.0441 98.5671 20.3606 98.8145 19.7811C99.0684 19.2017 99.4232 18.7557 99.8789 18.4432C100.335 18.1242 100.875 17.9647 101.5 17.9647C102.255 17.9647 102.857 18.1503 103.307 18.5214C103.762 18.8859 104.052 19.3287 104.176 19.8495L104.195 19.8885H105.875L105.865 19.8202C105.768 19.2082 105.536 18.6483 105.172 18.1405C104.807 17.6327 104.316 17.2258 103.697 16.9198C103.085 16.6138 102.353 16.4608 101.5 16.4608C100.523 16.4608 99.6771 16.6822 98.9609 17.1249C98.2448 17.5676 97.6882 18.1893 97.291 18.9901C96.9004 19.7909 96.7051 20.7349 96.7051 21.8221V21.8417C96.7051 22.9484 96.9004 23.9087 97.291 24.7225C97.6882 25.5298 98.2448 26.1581 98.9609 26.6073C99.6836 27.05 100.533 27.2714 101.51 27.2714ZM108.141 27.0858H109.84V20.621C109.84 20.1066 109.951 19.6607 110.172 19.2831C110.4 18.899 110.712 18.6027 111.109 18.3944C111.507 18.1861 111.962 18.0819 112.477 18.0819C112.672 18.0819 112.851 18.0917 113.014 18.1112C113.183 18.1242 113.342 18.147 113.492 18.1796V16.5292C113.408 16.5162 113.29 16.5031 113.141 16.4901C112.991 16.4706 112.838 16.4608 112.682 16.4608C112.005 16.4608 111.432 16.6203 110.963 16.9393C110.494 17.2518 110.165 17.688 109.977 18.2479H109.84V16.6464H108.141V27.0858ZM115.484 27.0858H117.184V16.6464H115.484V27.0858ZM116.344 14.6932C116.663 14.6932 116.933 14.5793 117.154 14.3514C117.376 14.1236 117.486 13.8534 117.486 13.5409C117.486 13.2219 117.376 12.9517 117.154 12.7303C116.933 12.509 116.663 12.3983 116.344 12.3983C116.031 12.3983 115.761 12.509 115.533 12.7303C115.305 12.9517 115.191 13.2219 115.191 13.5409C115.191 13.8534 115.305 14.1236 115.533 14.3514C115.761 14.5793 116.031 14.6932 116.344 14.6932ZM124.459 27.2714C125.286 27.2714 125.999 27.1314 126.598 26.8514C127.197 26.565 127.682 26.1744 128.053 25.6796C128.424 25.1783 128.674 24.6086 128.805 23.9706L128.824 23.8729L127.145 23.8827L127.125 23.9413C126.943 24.5272 126.627 24.9797 126.178 25.2987C125.735 25.6112 125.159 25.7675 124.449 25.7675C123.837 25.7675 123.3 25.608 122.838 25.2889C122.382 24.9699 122.027 24.5175 121.773 23.9315C121.52 23.3456 121.393 22.649 121.393 21.8417V21.8319C121.393 21.0441 121.516 20.3606 121.764 19.7811C122.018 19.2017 122.372 18.7557 122.828 18.4432C123.284 18.1242 123.824 17.9647 124.449 17.9647C125.204 17.9647 125.807 18.1503 126.256 18.5214C126.712 18.8859 127.001 19.3287 127.125 19.8495L127.145 19.8885H128.824L128.814 19.8202C128.717 19.2082 128.486 18.6483 128.121 18.1405C127.757 17.6327 127.265 17.2258 126.646 16.9198C126.035 16.6138 125.302 16.4608 124.449 16.4608C123.473 16.4608 122.626 16.6822 121.91 17.1249C121.194 17.5676 120.637 18.1893 120.24 18.9901C119.85 19.7909 119.654 20.7349 119.654 21.8221V21.8417C119.654 22.9484 119.85 23.9087 120.24 24.7225C120.637 25.5298 121.194 26.1581 121.91 26.6073C122.633 27.05 123.482 27.2714 124.459 27.2714ZM124.225 31.8221C124.648 31.8221 125.045 31.7538 125.416 31.6171C125.794 31.4869 126.096 31.2785 126.324 30.9921C126.559 30.7056 126.676 30.3345 126.676 29.8788V29.8593C126.676 29.3124 126.49 28.8794 126.119 28.5604C125.748 28.2479 125.263 28.0884 124.664 28.0819L125.357 27.0858V26.871H124.156L123.229 28.2577V29.1366H123.609C124.091 29.1366 124.456 29.1887 124.703 29.2928C124.957 29.4035 125.084 29.6119 125.084 29.9178V29.9374C125.084 30.2043 124.957 30.3899 124.703 30.494C124.456 30.5982 124.186 30.6503 123.893 30.6503C123.626 30.6503 123.382 30.6307 123.16 30.5917C122.939 30.5591 122.779 30.5331 122.682 30.5135V31.6268C122.91 31.6919 123.154 31.7408 123.414 31.7733C123.681 31.8059 123.951 31.8221 124.225 31.8221ZM134 27.2714C134.475 27.2714 134.911 27.203 135.309 27.0663C135.706 26.9296 136.064 26.731 136.383 26.4706C136.702 26.2037 136.969 25.8846 137.184 25.5135H137.311V27.0858H139.01V19.9178C139.01 19.2017 138.854 18.5865 138.541 18.0721C138.235 17.5513 137.783 17.1542 137.184 16.8807C136.591 16.6008 135.875 16.4608 135.035 16.4608C134.273 16.4608 133.6 16.5813 133.014 16.8221C132.428 17.063 131.956 17.3951 131.598 17.8182C131.24 18.2414 131.021 18.7297 130.943 19.2831L130.934 19.3514H132.613L132.623 19.3124C132.753 18.8892 133.02 18.5604 133.424 18.326C133.827 18.0852 134.348 17.9647 134.986 17.9647C135.755 17.9647 136.334 18.1372 136.725 18.4823C137.115 18.8274 137.311 19.3221 137.311 19.9667V23.1796C137.311 23.6744 137.184 24.1203 136.93 24.5175C136.676 24.9146 136.324 25.2271 135.875 25.455C135.432 25.6828 134.928 25.7968 134.361 25.7968C133.749 25.7968 133.245 25.6503 132.848 25.3573C132.457 25.0643 132.262 24.6574 132.262 24.1366V24.1171C132.262 23.6027 132.444 23.2024 132.809 22.9159C133.18 22.6294 133.753 22.4634 134.527 22.4178L138.16 22.1932V20.8456L134.322 21.0702C133.111 21.1418 132.174 21.4413 131.51 21.9686C130.852 22.496 130.523 23.2219 130.523 24.1464V24.1659C130.523 24.7974 130.673 25.3475 130.973 25.8163C131.279 26.2785 131.692 26.6366 132.213 26.8905C132.74 27.1444 133.336 27.2714 134 27.2714ZM136.471 15.1913C137.057 15.1913 137.512 14.9602 137.838 14.4979C138.163 14.0292 138.326 13.3781 138.326 12.5448V12.4374H136.998V12.4862C136.998 12.9615 136.936 13.3195 136.812 13.5604C136.695 13.7948 136.526 13.912 136.305 13.912C136.174 13.912 136.044 13.8762 135.914 13.8046C135.79 13.7264 135.637 13.6027 135.455 13.4335L135.289 13.2772C135.042 13.0363 134.788 12.841 134.527 12.6913C134.267 12.535 133.958 12.4569 133.6 12.4569C133.014 12.4569 132.558 12.6913 132.232 13.16C131.907 13.6223 131.744 14.2733 131.744 15.1132V15.2206H133.072V15.1718C133.072 14.69 133.131 14.3319 133.248 14.0975C133.372 13.8632 133.544 13.746 133.766 13.746C133.896 13.746 134.023 13.785 134.146 13.8632C134.277 13.9348 134.43 14.0552 134.605 14.2245L134.771 14.3807C135.019 14.6216 135.273 14.8169 135.533 14.9667C135.8 15.1164 136.113 15.1913 136.471 15.1913ZM146.197 27.2714C147.18 27.2714 148.03 27.0533 148.746 26.6171C149.469 26.1809 150.025 25.5591 150.416 24.7518C150.813 23.9445 151.012 22.9843 151.012 21.871V21.8514C151.012 20.7382 150.813 19.7779 150.416 18.9706C150.025 18.1633 149.469 17.5448 148.746 17.1151C148.03 16.6789 147.177 16.4608 146.188 16.4608C145.211 16.4608 144.361 16.6789 143.639 17.1151C142.916 17.5448 142.356 18.1633 141.959 18.9706C141.568 19.7779 141.373 20.7382 141.373 21.8514V21.871C141.373 22.9843 141.568 23.9445 141.959 24.7518C142.356 25.5591 142.916 26.1809 143.639 26.6171C144.361 27.0533 145.214 27.2714 146.197 27.2714ZM146.197 25.7675C145.546 25.7675 144.99 25.6145 144.527 25.3085C144.072 24.996 143.72 24.55 143.473 23.9706C143.232 23.3912 143.111 22.6913 143.111 21.871V21.8514C143.111 21.0311 143.232 20.3313 143.473 19.7518C143.72 19.1724 144.072 18.7297 144.527 18.4237C144.99 18.1177 145.543 17.9647 146.188 17.9647C146.839 17.9647 147.392 18.1177 147.848 18.4237C148.31 18.7297 148.661 19.1724 148.902 19.7518C149.15 20.3313 149.273 21.0311 149.273 21.8514V21.871C149.273 22.6913 149.15 23.3912 148.902 23.9706C148.661 24.55 148.31 24.996 147.848 25.3085C147.392 25.6145 146.842 25.7675 146.197 25.7675ZM158.609 22.1932H165.104V20.6112H158.609V22.1932ZM173.453 27.0858H175.211V21.5096H178.551C178.564 21.5096 178.58 21.5096 178.6 21.5096C178.619 21.5096 178.635 21.5096 178.648 21.5096L181.666 27.0858H183.727L180.465 21.2362C181.35 20.9563 182.044 20.4582 182.545 19.7421C183.046 19.0259 183.297 18.1796 183.297 17.203V17.1835C183.297 16.3371 183.111 15.6014 182.74 14.9764C182.369 14.3514 181.845 13.8664 181.168 13.5214C180.497 13.1698 179.71 12.994 178.805 12.994H173.453V27.0858ZM175.211 19.9471V14.5565H178.57C179.482 14.5565 180.195 14.7941 180.709 15.2694C181.223 15.7447 181.48 16.4022 181.48 17.2421V17.2616C181.48 18.121 181.233 18.785 180.738 19.2538C180.25 19.716 179.553 19.9471 178.648 19.9471H175.211ZM190.094 27.2714C190.693 27.2714 191.24 27.1932 191.734 27.037C192.229 26.8807 192.659 26.6659 193.023 26.3925C193.388 26.119 193.688 25.813 193.922 25.4745C194.156 25.1294 194.316 24.7714 194.4 24.4003L194.42 24.3221H192.73L192.691 24.41C192.6 24.6379 192.441 24.856 192.213 25.0643C191.985 25.2662 191.695 25.4322 191.344 25.5624C190.999 25.6926 190.595 25.7577 190.133 25.7577C189.501 25.7577 188.951 25.6177 188.482 25.3378C188.02 25.0578 187.662 24.6574 187.408 24.1366C187.161 23.6093 187.037 22.9745 187.037 22.2323V21.5682C187.037 20.787 187.164 20.1294 187.418 19.5956C187.678 19.0617 188.03 18.6581 188.473 18.3846C188.915 18.1112 189.417 17.9745 189.977 17.9745C190.536 17.9745 191.031 18.1047 191.461 18.3651C191.891 18.6255 192.229 19.0194 192.477 19.5468C192.724 20.0741 192.848 20.7479 192.848 21.5682V22.2323L193.688 20.9921H186.168V22.3495H194.547V21.6952C194.547 20.6535 194.365 19.7421 194 18.9608C193.635 18.1731 193.111 17.5611 192.428 17.1249C191.744 16.6822 190.93 16.4608 189.986 16.4608C189.042 16.4608 188.215 16.6919 187.506 17.1542C186.803 17.6099 186.259 18.2447 185.875 19.0585C185.491 19.8723 185.299 20.8163 185.299 21.8905V21.9003C185.299 22.994 185.491 23.9445 185.875 24.7518C186.259 25.5526 186.809 26.1744 187.525 26.6171C188.242 27.0533 189.098 27.2714 190.094 27.2714ZM197.643 27.0858H199.342V18.0526H201.656V16.6464H199.332V15.494C199.332 14.9341 199.459 14.5142 199.713 14.2343C199.973 13.9543 200.39 13.8143 200.963 13.8143C201.106 13.8143 201.246 13.8176 201.383 13.8241C201.52 13.8306 201.64 13.8404 201.744 13.8534V12.496C201.581 12.4634 201.406 12.4406 201.217 12.4276C201.028 12.4146 200.833 12.4081 200.631 12.4081C199.648 12.4081 198.902 12.6587 198.395 13.16C197.893 13.6613 197.643 14.4263 197.643 15.455V16.6464H195.973V18.0526H197.643V27.0858ZM204.039 27.0858H205.738V12.5253H204.039V27.0858ZM213.043 27.2714C213.642 27.2714 214.189 27.1932 214.684 27.037C215.178 26.8807 215.608 26.6659 215.973 26.3925C216.337 26.119 216.637 25.813 216.871 25.4745C217.105 25.1294 217.265 24.7714 217.35 24.4003L217.369 24.3221H215.68L215.641 24.41C215.549 24.6379 215.39 24.856 215.162 25.0643C214.934 25.2662 214.645 25.4322 214.293 25.5624C213.948 25.6926 213.544 25.7577 213.082 25.7577C212.451 25.7577 211.9 25.6177 211.432 25.3378C210.969 25.0578 210.611 24.6574 210.357 24.1366C210.11 23.6093 209.986 22.9745 209.986 22.2323V21.5682C209.986 20.787 210.113 20.1294 210.367 19.5956C210.628 19.0617 210.979 18.6581 211.422 18.3846C211.865 18.1112 212.366 17.9745 212.926 17.9745C213.486 17.9745 213.98 18.1047 214.41 18.3651C214.84 18.6255 215.178 19.0194 215.426 19.5468C215.673 20.0741 215.797 20.7479 215.797 21.5682V22.2323L216.637 20.9921H209.117V22.3495H217.496V21.6952C217.496 20.6535 217.314 19.7421 216.949 18.9608C216.585 18.1731 216.061 17.5611 215.377 17.1249C214.693 16.6822 213.88 16.4608 212.936 16.4608C211.992 16.4608 211.165 16.6919 210.455 17.1542C209.752 17.6099 209.208 18.2447 208.824 19.0585C208.44 19.8723 208.248 20.8163 208.248 21.8905V21.9003C208.248 22.994 208.44 23.9445 208.824 24.7518C209.208 25.5526 209.758 26.1744 210.475 26.6171C211.191 27.0533 212.047 27.2714 213.043 27.2714ZM218.746 27.0858H220.641L223.131 23.1405H223.258L225.738 27.0858H227.701L224.137 21.7928L227.672 16.6464H225.777L223.316 20.5331H223.189L220.699 16.6464H218.727L222.311 21.8612L218.746 27.0858ZM233.697 27.2714C234.68 27.2714 235.53 27.0533 236.246 26.6171C236.969 26.1809 237.525 25.5591 237.916 24.7518C238.313 23.9445 238.512 22.9843 238.512 21.871V21.8514C238.512 20.7382 238.313 19.7779 237.916 18.9706C237.525 18.1633 236.969 17.5448 236.246 17.1151C235.53 16.6789 234.677 16.4608 233.688 16.4608C232.711 16.4608 231.861 16.6789 231.139 17.1151C230.416 17.5448 229.856 18.1633 229.459 18.9706C229.068 19.7779 228.873 20.7382 228.873 21.8514V21.871C228.873 22.9843 229.068 23.9445 229.459 24.7518C229.856 25.5591 230.416 26.1809 231.139 26.6171C231.861 27.0533 232.714 27.2714 233.697 27.2714ZM233.697 25.7675C233.046 25.7675 232.49 25.6145 232.027 25.3085C231.572 24.996 231.22 24.55 230.973 23.9706C230.732 23.3912 230.611 22.6913 230.611 21.871V21.8514C230.611 21.0311 230.732 20.3313 230.973 19.7518C231.22 19.1724 231.572 18.7297 232.027 18.4237C232.49 18.1177 233.043 17.9647 233.688 17.9647C234.339 17.9647 234.892 18.1177 235.348 18.4237C235.81 18.7297 236.161 19.1724 236.402 19.7518C236.65 20.3313 236.773 21.0311 236.773 21.8514V21.871C236.773 22.6913 236.65 23.3912 236.402 23.9706C236.161 24.55 235.81 24.996 235.348 25.3085C234.892 25.6145 234.342 25.7675 233.697 25.7675ZM246.217 27.0858H255.377V25.5038H248.199L248.648 25.8456V24.9764L248.189 25.8456L251.881 22.037C252.74 21.1581 253.404 20.4191 253.873 19.8202C254.342 19.2147 254.671 18.6678 254.859 18.1796C255.048 17.6848 255.143 17.1737 255.143 16.6464V16.6268C255.143 15.8716 254.951 15.1978 254.566 14.6053C254.189 14.0129 253.668 13.5441 253.004 13.1991C252.346 12.854 251.604 12.6815 250.777 12.6815C249.885 12.6815 249.088 12.8671 248.385 13.2382C247.682 13.6027 247.128 14.1106 246.725 14.7616C246.327 15.4061 246.126 16.1418 246.119 16.9686L246.129 16.9882L247.818 16.9979L247.828 16.9686C247.828 16.4283 247.949 15.953 248.189 15.5428C248.43 15.1262 248.766 14.8007 249.195 14.5663C249.632 14.3319 250.133 14.2147 250.699 14.2147C251.24 14.2147 251.708 14.3287 252.105 14.5565C252.503 14.7779 252.809 15.0839 253.023 15.4745C253.245 15.8586 253.355 16.2948 253.355 16.7831V16.8026C253.355 17.2128 253.287 17.5904 253.15 17.9354C253.02 18.2805 252.786 18.6678 252.447 19.0975C252.109 19.5207 251.633 20.0611 251.021 20.7186L246.217 25.8749V27.0858ZM258.111 27.0858H267.271V25.5038H260.094L260.543 25.8456V24.9764L260.084 25.8456L263.775 22.037C264.635 21.1581 265.299 20.4191 265.768 19.8202C266.236 19.2147 266.565 18.6678 266.754 18.1796C266.943 17.6848 267.037 17.1737 267.037 16.6464V16.6268C267.037 15.8716 266.845 15.1978 266.461 14.6053C266.083 14.0129 265.562 13.5441 264.898 13.1991C264.241 12.854 263.499 12.6815 262.672 12.6815C261.78 12.6815 260.982 12.8671 260.279 13.2382C259.576 13.6027 259.023 14.1106 258.619 14.7616C258.222 15.4061 258.02 16.1418 258.014 16.9686L258.023 16.9882L259.713 16.9979L259.723 16.9686C259.723 16.4283 259.843 15.953 260.084 15.5428C260.325 15.1262 260.66 14.8007 261.09 14.5663C261.526 14.3319 262.027 14.2147 262.594 14.2147C263.134 14.2147 263.603 14.3287 264 14.5565C264.397 14.7779 264.703 15.0839 264.918 15.4745C265.139 15.8586 265.25 16.2948 265.25 16.7831V16.8026C265.25 17.2128 265.182 17.5904 265.045 17.9354C264.915 18.2805 264.68 18.6678 264.342 19.0975C264.003 19.5207 263.528 20.0611 262.916 20.7186L258.111 25.8749V27.0858Z" fill="black"/>
</svg>
