<svg width="42" height="13" viewBox="0 0 42 13" fill="none" xmlns="http://www.w3.org/2000/svg">
<path d="M0.367188 12H7.74219V10.0547H2.72656V0.726562H0.367188V12ZM14.5 12.2891C15.6094 12.2891 16.5703 12.0495 17.3828 11.5703C18.1953 11.0859 18.8203 10.401 19.2578 9.51562C19.7005 8.63021 19.9219 7.58073 19.9219 6.36719V6.35156C19.9219 5.13802 19.7005 4.08854 19.2578 3.20312C18.8151 2.31771 18.1875 1.63542 17.375 1.15625C16.5677 0.677083 15.6094 0.4375 14.5 0.4375C13.3958 0.4375 12.4375 0.677083 11.625 1.15625C10.8125 1.63542 10.1823 2.31771 9.73438 3.20312C9.29167 4.08333 9.07031 5.13281 9.07031 6.35156V6.36719C9.07031 7.58073 9.28906 8.63021 9.72656 9.51562C10.1693 10.401 10.7969 11.0859 11.6094 11.5703C12.4219 12.0495 13.3854 12.2891 14.5 12.2891ZM14.5 10.2891C13.8802 10.2891 13.3438 10.1276 12.8906 9.80469C12.4427 9.48177 12.0938 9.02604 11.8438 8.4375C11.599 7.84896 11.4766 7.15885 11.4766 6.36719V6.35156C11.4766 5.55469 11.6016 4.86458 11.8516 4.28125C12.1016 3.69271 12.4531 3.23958 12.9062 2.92188C13.3594 2.59896 13.8906 2.4375 14.5 2.4375C15.1094 2.4375 15.6406 2.59896 16.0938 2.92188C16.5469 3.23958 16.8958 3.69271 17.1406 4.28125C17.3906 4.86458 17.5156 5.55469 17.5156 6.35156V6.36719C17.5156 7.15885 17.3906 7.84896 17.1406 8.4375C16.8958 9.02604 16.5469 9.48177 16.0938 9.80469C15.6406 10.1276 15.1094 10.2891 14.5 10.2891ZM25.1953 12.2891C26.4141 12.2891 27.3594 11.9609 28.0312 11.3047C28.7083 10.6432 29.0469 9.71875 29.0469 8.53125V0.726562H26.6875V8.51562C26.6875 9.07812 26.5573 9.50781 26.2969 9.80469C26.0417 10.1016 25.6641 10.25 25.1641 10.25C24.8568 10.25 24.5938 10.1875 24.375 10.0625C24.1615 9.9375 23.9948 9.76302 23.875 9.53906C23.7604 9.3151 23.6953 9.0599 23.6797 8.77344V8.72656H21.3906V8.78906C21.4115 9.49219 21.5755 10.1068 21.8828 10.6328C22.1901 11.1589 22.625 11.5677 23.1875 11.8594C23.75 12.1458 24.4193 12.2891 25.1953 12.2891ZM30.7031 12H33.1797L35.9375 2.97656H36.625V0.726562H34.6172L30.7031 12ZM32.7969 9.26562H39.1641L38.5859 7.5H33.375L32.7969 9.26562ZM38.8281 12H41.3125L37.3906 0.726562H36.0781V2.97656L38.8281 12Z" fill="white"/>
</svg>
