<svg width="21" height="21" viewBox="0 0 21 21" fill="none" xmlns="http://www.w3.org/2000/svg">
<path d="M20.1026 19.3062C20.3226 19.5261 20.3226 19.8827 20.1026 20.1026C19.8827 20.3226 19.5261 20.3226 19.3062 20.1026L13.244 14.0404C13.1329 13.9292 12.944 13.9206 12.8258 14.0176C12.8258 14.0176 12.7335 14.0973 12.5713 14.2175C11.2609 15.1891 9.63857 15.7636 7.88196 15.7636C3.5288 15.7636 0 12.2347 0 7.882C0 3.52881 3.5289 0 7.88196 0C12.2347 0 15.7635 3.52891 15.7635 7.882C15.7635 9.5985 15.2149 11.187 14.283 12.4814C14.1436 12.6754 14.0175 12.8238 14.0175 12.8238C13.9189 12.9448 13.9276 13.1313 14.0403 13.244L20.1026 19.3062ZM7.88189 14.6377C11.613 14.6377 14.6376 11.613 14.6376 7.88194C14.6376 4.15085 11.613 1.12581 7.88189 1.12581C4.15082 1.12581 1.1258 4.15085 1.1258 7.88194C1.1258 11.613 4.15082 14.6377 7.88189 14.6377Z" fill="black"/>
</svg>