<svg width="410" height="118" viewBox="0 0 410 118" fill="none" xmlns="http://www.w3.org/2000/svg">
<path d="M0.197266 5.25781V3.42676H34.4014C49.123 3.42676 59.2305 9.21289 64.2842 18.2217C66.8477 22.6895 68.0928 27.1572 68.0928 32.2109C68.0928 40.1211 61.6475 48.3975 52.4922 52.499C47.8779 54.5498 42.458 55.5752 36.2324 55.5752L35.1338 55.7217L69.9971 109.115C72.1211 112.411 75.1973 114.022 79.2256 114.022V115.927L75.5635 116L71.0957 116.146C67.7998 116.146 64.2109 113.803 60.3291 109.115L48.9033 92.416C43.8496 84.8721 36.0859 72.6406 25.6123 55.7217H15.2852V106.991L15.5049 109.701C15.6514 110.8 15.9443 111.679 16.457 112.338L17.1162 112.924C17.7021 113.144 18.5811 113.437 19.8262 113.656L23.415 114.022V115.927L0.636719 116V114.022C2.90723 114.022 4.73828 113.583 6.05664 112.704C6.78906 112.118 7.22852 111.093 7.375 109.628L7.66797 106.039V13.8271C7.66797 13.0947 7.59473 12.4355 7.52148 11.9229L7.30176 10.6045C6.78906 7.89453 5.76367 6.57617 3.2002 5.99023L0.197266 5.25781ZM18.9473 7.23535C16.9697 7.82129 15.8711 8.91992 15.5781 10.6045L15.2852 14.4863V52.0596H34.6211C49.7822 52.0596 59.084 43.417 59.084 32.2109C59.084 18.2217 52.6387 6.50293 34.4014 6.50293C29.1279 6.50293 21.6572 6.35645 18.9473 7.23535ZM147.78 84.4326H91.2373V84.7256C91.2373 95.5654 95.8516 105.673 103.176 111.459C106.691 114.169 110.939 115.487 115.847 115.487C121.633 115.487 126.906 113.803 131.887 110.873C136.501 107.724 139.797 103.476 141.921 98.2021H145.217C141.701 105.673 137.307 110.873 132.033 113.803C126.174 116.293 121.12 117.538 116.945 117.538L114.821 117.465C106.252 117.465 98.1221 113.729 92.6289 107.504C87.0625 101.278 83.6934 92.5625 83.6934 84.0664C83.6934 72.5674 89.4062 61.5078 99.0742 55.2822C103.835 52.2061 109.108 50.668 114.821 50.668C126.906 50.668 137.453 57.1133 143.386 67.3672C146.315 72.5674 147.78 78.1338 147.78 84.0664V84.4326ZM140.017 81.2832C140.017 77.1816 138.698 73.2266 136.354 68.6123C131.154 58.8711 122.365 52.6455 115.041 52.6455C104.128 52.6455 96.877 59.8965 93.6543 69.6377C92.1895 74.252 91.3838 77.4746 91.3838 81.2832H140.017ZM166.896 51.9863H174.44V55.1357H166.896V106.991L167.116 109.701C167.409 111.972 168.142 113.217 170.998 113.803L174.367 114.096V116H152.248V114.096C154.519 114.096 156.35 113.656 157.668 112.777C158.4 112.191 158.84 111.166 158.986 109.701L159.279 106.112V55.1357H152.248V51.9863H159.279V31.0391C159.279 25.5459 161.623 14.7061 164.626 9.35938C166.091 6.72266 167.775 4.59863 169.753 2.9873L171.291 1.88867C171.95 1.37598 172.902 0.936523 174.147 0.423828H174.66L175.539 0.49707C176.491 0.570312 177.443 1.15625 178.103 2.25488L178.249 2.47461C178.542 3.06055 178.762 4.81836 178.176 5.77051C177.517 6.72266 176.711 7.16211 175.246 7.38184C174.147 7.38184 172.976 6.7959 172.316 5.69727C172.316 5.62402 172.17 5.47754 171.95 5.33105C171.657 5.47754 171.438 5.62402 171.364 5.69727C169.68 8.26074 168.435 11.1172 167.775 14.1201C167.189 18.2949 166.896 25.6191 166.896 32.7236V51.9863ZM183.01 5.25781V3.5H198.098V106.991L198.317 109.701C198.61 111.972 199.343 113.217 202.199 113.803L205.568 114.096V116H183.449V114.096C185.72 114.096 187.551 113.656 188.869 112.777C189.602 112.191 190.041 111.166 190.188 109.701L190.48 106.112V13.8271C190.48 13.0947 190.407 12.4355 190.334 11.9229L190.114 10.6045C189.602 7.89453 188.576 6.57617 186.013 5.99023L183.01 5.25781ZM274.05 84.4326H217.507V84.7256C217.507 95.5654 222.121 105.673 229.445 111.459C232.961 114.169 237.209 115.487 242.116 115.487C247.902 115.487 253.176 113.803 258.156 110.873C262.771 107.724 266.066 103.476 268.19 98.2021H271.486C267.971 105.673 263.576 110.873 258.303 113.803C252.443 116.293 247.39 117.538 243.215 117.538L241.091 117.465C232.521 117.465 224.392 113.729 218.898 107.504C213.332 101.278 209.963 92.5625 209.963 84.0664C209.963 72.5674 215.676 61.5078 225.344 55.2822C230.104 52.2061 235.378 50.668 241.091 50.668C253.176 50.668 263.723 57.1133 269.655 67.3672C272.585 72.5674 274.05 78.1338 274.05 84.0664V84.4326ZM266.286 81.2832C266.286 77.1816 264.968 73.2266 262.624 68.6123C257.424 58.8711 248.635 52.6455 241.311 52.6455C230.397 52.6455 223.146 59.8965 219.924 69.6377C218.459 74.252 217.653 77.4746 217.653 81.2832H266.286ZM313.674 82.0889L326.491 102.011L330.959 107.87C332.79 110.287 334.108 111.752 334.841 112.338C335.573 112.924 336.599 113.363 337.844 113.656L340.92 114.096V116H316.164V114.096C318.947 114.096 320.705 113.656 321.438 112.704C321.73 112.411 321.877 111.972 321.877 111.459C321.877 110.434 321.218 108.822 319.899 106.698L315.432 99.7402L307.961 88.0215L298.879 100.18C296.755 102.816 292.214 109.408 292.214 111.459C292.214 111.825 292.287 112.118 292.507 112.338C292.727 113.51 294.851 114.096 298.879 114.096V116H278.518V114.096C284.743 114.096 286.501 111.752 290.676 106.405L295.217 100.18L305.983 85.0918L293.459 65.4629L289.577 60.043C287.966 57.7725 286.647 56.3076 285.549 55.5752C285.109 55.1357 284.084 54.7695 282.473 54.4766L278.884 53.7441V51.9863H303.566V53.7441C301.735 53.7441 298.952 53.8174 297.854 55.8682C297.634 56.0879 297.487 56.4541 297.487 56.8203C297.487 57.626 298.073 58.8711 299.172 60.5557C300.856 62.8262 302.028 64.584 302.688 65.9023L311.623 79.4521L322.829 63.5586C323.781 62.3135 324.66 60.9951 325.393 59.457C325.832 58.6514 326.052 57.8457 326.052 57.1865C326.052 56.6738 325.905 56.2344 325.686 55.7217C325.319 54.7695 324.294 54.2568 322.463 54.0371L318.361 53.7441V51.9863H338.723V53.7441C333.815 53.7441 331.472 56.8203 329.421 59.2373C328.322 60.4824 327.224 61.874 326.052 63.5586L313.674 82.0889ZM376.442 50.668C388.527 50.668 399.074 57.1133 405.007 67.3672C407.937 72.5674 409.401 78.1338 409.401 84.0664C409.401 95.7119 403.176 106.771 392.995 112.851C387.941 115.927 382.375 117.465 376.442 117.465C367.873 117.465 359.743 113.729 354.25 107.504C348.684 101.278 345.314 92.5625 345.314 84.0664C345.314 72.5674 351.027 61.5078 360.695 55.2822C365.456 52.2061 370.729 50.668 376.442 50.668ZM352.858 84.7256C352.858 95.5654 357.473 105.673 364.87 111.386C368.532 114.242 372.487 115.707 376.662 115.707C389.26 115.707 396.438 108.822 399.514 99.1543C401.052 94.3203 401.784 89.3398 401.784 84.2861C401.784 73.1533 396.145 62.8262 388.161 56.9668C384.133 54.1104 380.324 52.6455 376.662 52.6455C365.749 52.6455 358.498 59.8232 355.275 69.7109C353.664 74.6182 352.858 79.6719 352.858 84.7256Z" fill="white"/>
</svg>
