<svg width="110" height="32" viewBox="0 0 110 32" fill="none" xmlns="http://www.w3.org/2000/svg">
<path d="M0.585938 1.46875V0.980469H9.70703C13.6328 0.980469 16.3281 2.52344 17.6758 4.92578C18.3594 6.11719 18.6914 7.30859 18.6914 8.65625C18.6914 10.7656 16.9727 12.9727 14.5312 14.0664C13.3008 14.6133 11.8555 14.8867 10.1953 14.8867L9.90234 14.9258L19.1992 29.1641C19.7656 30.043 20.5859 30.4727 21.6602 30.4727V30.9805L20.6836 31L19.4922 31.0391C18.6133 31.0391 17.6562 30.4141 16.6211 29.1641L13.5742 24.7109C12.2266 22.6992 10.1562 19.4375 7.36328 14.9258H4.60938V28.5977L4.66797 29.3203C4.70703 29.6133 4.78516 29.8477 4.92188 30.0234L5.09766 30.1797C5.25391 30.2383 5.48828 30.3164 5.82031 30.375L6.77734 30.4727V30.9805L0.703125 31V30.4727C1.30859 30.4727 1.79688 30.3555 2.14844 30.1211C2.34375 29.9648 2.46094 29.6914 2.5 29.3008L2.57812 28.3438V3.75391C2.57812 3.55859 2.55859 3.38281 2.53906 3.24609L2.48047 2.89453C2.34375 2.17188 2.07031 1.82031 1.38672 1.66406L0.585938 1.46875ZM5.58594 1.99609C5.05859 2.15234 4.76562 2.44531 4.6875 2.89453L4.60938 3.92969V13.9492H9.76562C13.8086 13.9492 16.2891 11.6445 16.2891 8.65625C16.2891 4.92578 14.5703 1.80078 9.70703 1.80078C8.30078 1.80078 6.30859 1.76172 5.58594 1.99609ZM39.9414 22.582H24.8633V22.6602C24.8633 25.5508 26.0938 28.2461 28.0469 29.7891C28.9844 30.5117 30.1172 30.8633 31.4258 30.8633C32.9688 30.8633 34.375 30.4141 35.7031 29.6328C36.9336 28.793 37.8125 27.6602 38.3789 26.2539H39.2578C38.3203 28.2461 37.1484 29.6328 35.7422 30.4141C34.1797 31.0781 32.832 31.4102 31.7188 31.4102L31.1523 31.3906C28.8672 31.3906 26.6992 30.3945 25.2344 28.7344C23.75 27.0742 22.8516 24.75 22.8516 22.4844C22.8516 19.418 24.375 16.4688 26.9531 14.8086C28.2227 13.9883 29.6289 13.5781 31.1523 13.5781C34.375 13.5781 37.1875 15.2969 38.7695 18.0312C39.5508 19.418 39.9414 20.9023 39.9414 22.4844V22.582ZM37.8711 21.7422C37.8711 20.6484 37.5195 19.5938 36.8945 18.3633C35.5078 15.7656 33.1641 14.1055 31.2109 14.1055C28.3008 14.1055 26.3672 16.0391 25.5078 18.6367C25.1172 19.8672 24.9023 20.7266 24.9023 21.7422H37.8711ZM45.0391 13.9297H47.0508V14.7695H45.0391V28.5977L45.0977 29.3203C45.1758 29.9258 45.3711 30.2578 46.1328 30.4141L47.0312 30.4922V31H41.1328V30.4922C41.7383 30.4922 42.2266 30.375 42.5781 30.1406C42.7734 29.9844 42.8906 29.7109 42.9297 29.3203L43.0078 28.3633V14.7695H41.1328V13.9297H43.0078V8.34375C43.0078 6.87891 43.6328 3.98828 44.4336 2.5625C44.8242 1.85938 45.2734 1.29297 45.8008 0.863281L46.2109 0.570312C46.3867 0.433594 46.6406 0.316406 46.9727 0.179688H47.1094L47.3438 0.199219C47.5977 0.21875 47.8516 0.375 48.0273 0.667969L48.0664 0.726562C48.1445 0.882812 48.2031 1.35156 48.0469 1.60547C47.8711 1.85938 47.6562 1.97656 47.2656 2.03516C46.9727 2.03516 46.6602 1.87891 46.4844 1.58594C46.4844 1.56641 46.4453 1.52734 46.3867 1.48828C46.3086 1.52734 46.25 1.56641 46.2305 1.58594C45.7812 2.26953 45.4492 3.03125 45.2734 3.83203C45.1172 4.94531 45.0391 6.89844 45.0391 8.79297V13.9297ZM49.3359 1.46875V1H53.3594V28.5977L53.418 29.3203C53.4961 29.9258 53.6914 30.2578 54.4531 30.4141L55.3516 30.4922V31H49.4531V30.4922C50.0586 30.4922 50.5469 30.375 50.8984 30.1406C51.0938 29.9844 51.2109 29.7109 51.25 29.3203L51.3281 28.3633V3.75391C51.3281 3.55859 51.3086 3.38281 51.2891 3.24609L51.2305 2.89453C51.0938 2.17188 50.8203 1.82031 50.1367 1.66406L49.3359 1.46875ZM73.6133 22.582H58.5352V22.6602C58.5352 25.5508 59.7656 28.2461 61.7188 29.7891C62.6562 30.5117 63.7891 30.8633 65.0977 30.8633C66.6406 30.8633 68.0469 30.4141 69.375 29.6328C70.6055 28.793 71.4844 27.6602 72.0508 26.2539H72.9297C71.9922 28.2461 70.8203 29.6328 69.4141 30.4141C67.8516 31.0781 66.5039 31.4102 65.3906 31.4102L64.8242 31.3906C62.5391 31.3906 60.3711 30.3945 58.9062 28.7344C57.4219 27.0742 56.5234 24.75 56.5234 22.4844C56.5234 19.418 58.0469 16.4688 60.625 14.8086C61.8945 13.9883 63.3008 13.5781 64.8242 13.5781C68.0469 13.5781 70.8594 15.2969 72.4414 18.0312C73.2227 19.418 73.6133 20.9023 73.6133 22.4844V22.582ZM71.543 21.7422C71.543 20.6484 71.1914 19.5938 70.5664 18.3633C69.1797 15.7656 66.8359 14.1055 64.8828 14.1055C61.9727 14.1055 60.0391 16.0391 59.1797 18.6367C58.7891 19.8672 58.5742 20.7266 58.5742 21.7422H71.543ZM84.1797 21.957L87.5977 27.2695L88.7891 28.832C89.2773 29.4766 89.6289 29.8672 89.8242 30.0234C90.0195 30.1797 90.293 30.2969 90.625 30.375L91.4453 30.4922V31H84.8438V30.4922C85.5859 30.4922 86.0547 30.375 86.25 30.1211C86.3281 30.043 86.3672 29.9258 86.3672 29.7891C86.3672 29.5156 86.1914 29.0859 85.8398 28.5195L84.6484 26.6641L82.6562 23.5391L80.2344 26.7812C79.668 27.4844 78.457 29.2422 78.457 29.7891C78.457 29.8867 78.4766 29.9648 78.5352 30.0234C78.5938 30.3359 79.1602 30.4922 80.2344 30.4922V31H74.8047V30.4922C76.4648 30.4922 76.9336 29.8672 78.0469 28.4414L79.2578 26.7812L82.1289 22.7578L78.7891 17.5234L77.7539 16.0781C77.3242 15.4727 76.9727 15.082 76.6797 14.8867C76.5625 14.7695 76.2891 14.6719 75.8594 14.5938L74.9023 14.3984V13.9297H81.4844V14.3984C80.9961 14.3984 80.2539 14.418 79.9609 14.9648C79.9023 15.0234 79.8633 15.1211 79.8633 15.2188C79.8633 15.4336 80.0195 15.7656 80.3125 16.2148C80.7617 16.8203 81.0742 17.2891 81.25 17.6406L83.6328 21.2539L86.6211 17.0156C86.875 16.6836 87.1094 16.332 87.3047 15.9219C87.4219 15.707 87.4805 15.4922 87.4805 15.3164C87.4805 15.1797 87.4414 15.0625 87.3828 14.9258C87.2852 14.6719 87.0117 14.5352 86.5234 14.4766L85.4297 14.3984V13.9297H90.8594V14.3984C89.5508 14.3984 88.9258 15.2188 88.3789 15.8633C88.0859 16.1953 87.793 16.5664 87.4805 17.0156L84.1797 21.957ZM100.918 13.5781C104.141 13.5781 106.953 15.2969 108.535 18.0312C109.316 19.418 109.707 20.9023 109.707 22.4844C109.707 25.5898 108.047 28.5391 105.332 30.1602C103.984 30.9805 102.5 31.3906 100.918 31.3906C98.6328 31.3906 96.4648 30.3945 95 28.7344C93.5156 27.0742 92.6172 24.75 92.6172 22.4844C92.6172 19.418 94.1406 16.4688 96.7188 14.8086C97.9883 13.9883 99.3945 13.5781 100.918 13.5781ZM94.6289 22.6602C94.6289 25.5508 95.8594 28.2461 97.832 29.7695C98.8086 30.5312 99.8633 30.9219 100.977 30.9219C104.336 30.9219 106.25 29.0859 107.07 26.5078C107.48 25.2188 107.676 23.8906 107.676 22.543C107.676 19.5742 106.172 16.8203 104.043 15.2578C102.969 14.4961 101.953 14.1055 100.977 14.1055C98.0664 14.1055 96.1328 16.0195 95.2734 18.6562C94.8438 19.9648 94.6289 21.3125 94.6289 22.6602Z" fill="black"/>
</svg>
