<svg width="184" height="43" viewBox="0 0 184 43" fill="none" xmlns="http://www.w3.org/2000/svg">
<rect x="1" y="1" width="182" height="41" stroke="white" stroke-width="2"/>
<path d="M71.3906 27H73.4062V22.7578H75.5391C75.5547 22.7578 75.5729 22.7578 75.5938 22.7578C75.6146 22.7578 75.6302 22.7578 75.6406 22.7578L77.8594 27H80.1562L77.6953 22.4453C78.362 22.2057 78.8802 21.7995 79.25 21.2266C79.625 20.6484 79.8125 19.987 79.8125 19.2422V19.2266C79.8125 18.5078 79.6589 17.888 79.3516 17.3672C79.0443 16.8464 78.6016 16.4427 78.0234 16.1562C77.4453 15.8698 76.7526 15.7266 75.9453 15.7266H71.3906V27ZM73.4062 21.2109V17.3516H75.6953C76.3359 17.3516 76.8385 17.526 77.2031 17.875C77.5729 18.2188 77.7578 18.6849 77.7578 19.2734V19.2891C77.7578 19.8932 77.5807 20.3646 77.2266 20.7031C76.8724 21.0417 76.375 21.2109 75.7344 21.2109H73.4062ZM86.1797 27.2812C87.0807 27.2812 87.8594 27.1354 88.5156 26.8438C89.1771 26.5521 89.6849 26.1406 90.0391 25.6094C90.3984 25.0781 90.5781 24.4479 90.5781 23.7188V23.7109C90.5781 22.8568 90.3125 22.1797 89.7812 21.6797C89.2552 21.1745 88.3984 20.7969 87.2109 20.5469L86 20.2891C85.2969 20.1432 84.7891 19.9401 84.4766 19.6797C84.1693 19.4193 84.0156 19.0911 84.0156 18.6953V18.6875C84.0156 18.3646 84.1068 18.0885 84.2891 17.8594C84.4766 17.6302 84.7318 17.4531 85.0547 17.3281C85.3776 17.1979 85.7448 17.1328 86.1562 17.1328C86.5885 17.1328 86.9661 17.1979 87.2891 17.3281C87.612 17.4583 87.8698 17.6354 88.0625 17.8594C88.2604 18.0781 88.3828 18.3359 88.4297 18.6328L88.4453 18.7266H90.3672L90.3594 18.625C90.3177 18.0208 90.1224 17.4792 89.7734 17C89.4245 16.5208 88.9453 16.1432 88.3359 15.8672C87.7266 15.5859 87.0052 15.4453 86.1719 15.4453C85.3594 15.4453 84.638 15.5885 84.0078 15.875C83.3828 16.1562 82.8906 16.5495 82.5312 17.0547C82.1771 17.5599 82 18.1484 82 18.8203V18.8281C82 19.6667 82.2604 20.3568 82.7812 20.8984C83.3073 21.4349 84.1484 21.8255 85.3047 22.0703L86.5156 22.3203C87.2448 22.4766 87.7682 22.6849 88.0859 22.9453C88.4036 23.2005 88.5625 23.5312 88.5625 23.9375V23.9453C88.5625 24.2682 88.4635 24.5547 88.2656 24.8047C88.0677 25.0495 87.7943 25.2422 87.4453 25.3828C87.0964 25.5234 86.6953 25.5938 86.2422 25.5938C85.7682 25.5938 85.3464 25.5286 84.9766 25.3984C84.6068 25.263 84.3099 25.0781 84.0859 24.8438C83.8672 24.6094 83.7422 24.3333 83.7109 24.0156L83.7031 23.9375H81.75L81.7578 24.0469C81.8047 24.6927 82.013 25.2578 82.3828 25.7422C82.7526 26.2266 83.2578 26.6042 83.8984 26.875C84.5443 27.1458 85.3047 27.2812 86.1797 27.2812ZM95.7188 27H98.0703L101.977 15.7266H99.7578L96.9609 24.6719H96.8281L94.0391 15.7266H91.8203L95.7188 27ZM104.93 23.2734H108.422C109.188 23.2734 109.857 23.1172 110.43 22.8047C111.003 22.487 111.451 22.0469 111.773 21.4844C112.096 20.9167 112.258 20.2578 112.258 19.5078V19.4922C112.258 18.737 112.096 18.0781 111.773 17.5156C111.451 16.9479 111.003 16.5078 110.43 16.1953C109.857 15.8828 109.188 15.7266 108.422 15.7266H104.93V17.3672H107.93C108.654 17.3672 109.216 17.5521 109.617 17.9219C110.018 18.2917 110.219 18.8177 110.219 19.5V19.5156C110.219 20.1927 110.018 20.7188 109.617 21.0938C109.216 21.4635 108.654 21.6484 107.93 21.6484H104.93V23.2734ZM103.922 27H105.938V15.7266H103.922V27Z" fill="white"/>
</svg>