<svg width="823" height="165" viewBox="0 0 823 165" fill="none" xmlns="http://www.w3.org/2000/svg">
<path d="M3.01562 14.7102H4.42188V3.43677H3.02344L0.0234375 5.59302V7.07739L2.89062 4.99927H3.01562V14.7102ZM7.67969 14.7102H14.9766V13.4446H9.28906L9.63281 13.679V13.0305L9.28125 13.679L12.1953 10.6711C12.8776 9.96802 13.4062 9.37687 13.7812 8.89771C14.1562 8.41333 14.4167 7.97323 14.5625 7.57739C14.7135 7.18156 14.7891 6.7701 14.7891 6.34302V6.32739C14.7891 5.71802 14.6354 5.17635 14.3281 4.70239C14.026 4.22843 13.612 3.85604 13.0859 3.58521C12.5599 3.30916 11.9688 3.17114 11.3125 3.17114C10.5938 3.17114 9.95573 3.31958 9.39844 3.61646C8.84115 3.90812 8.40365 4.31437 8.08594 4.83521C7.76823 5.35083 7.60677 5.94198 7.60156 6.60864L7.61719 6.61646L8.96094 6.62427L8.96875 6.60864C8.96875 6.16593 9.0625 5.78052 9.25 5.45239C9.4375 5.11906 9.70052 4.86125 10.0391 4.67896C10.3776 4.49146 10.7708 4.39771 11.2188 4.39771C11.6615 4.39771 12.0417 4.48885 12.3594 4.67114C12.6771 4.85343 12.9219 5.10083 13.0938 5.41333C13.2656 5.72583 13.3516 6.08 13.3516 6.47583V6.49146C13.3516 6.81958 13.2969 7.12166 13.1875 7.39771C13.0781 7.67375 12.888 7.98364 12.6172 8.32739C12.3464 8.66593 11.9714 9.09562 11.4922 9.61646L7.67969 13.7415V14.7102ZM22.0156 14.7102H25.8828C27.0026 14.7102 27.9583 14.4889 28.75 14.0461C29.5417 13.5982 30.1484 12.955 30.5703 12.1165C30.9922 11.2727 31.2031 10.2597 31.2031 9.07739V9.06177C31.2031 7.87948 30.9922 6.86906 30.5703 6.03052C30.1484 5.19198 29.5391 4.55135 28.7422 4.10864C27.9505 3.66073 26.9974 3.43677 25.8828 3.43677H22.0156V14.7102ZM23.4219 13.4446V4.70239H25.7891C26.6224 4.70239 27.3359 4.87687 27.9297 5.22583C28.5234 5.56958 28.9766 6.06958 29.2891 6.72583C29.6068 7.37687 29.7656 8.16073 29.7656 9.07739V9.09302C29.7656 10.0045 29.6094 10.7857 29.2969 11.4368C28.9844 12.0878 28.5312 12.5852 27.9375 12.929C27.3438 13.2727 26.6276 13.4446 25.7891 13.4446H23.4219ZM33.6406 14.7102H40.625V13.4446H35.0469V9.56958H40.3359V8.31958H35.0469V4.70239H40.625V3.43677H33.6406V14.7102ZM47.6719 14.7102H49.0625V5.96802H49.7812L48.8438 5.47583L55.3047 14.7102H56.6719V3.43677H55.2812V12.2102H54.5625L55.5 12.7024L49.0391 3.43677H47.6719V14.7102ZM64.2812 14.9758C65.3542 14.9758 66.276 14.7336 67.0469 14.2493C67.8229 13.7649 68.4167 13.0826 68.8281 12.2024C69.2448 11.317 69.4531 10.2753 69.4531 9.07739V9.06177C69.4531 7.85864 69.2448 6.81698 68.8281 5.93677C68.4115 5.05135 67.8151 4.36906 67.0391 3.88989C66.2682 3.41073 65.349 3.17114 64.2812 3.17114C63.2188 3.17114 62.2995 3.41073 61.5234 3.88989C60.7526 4.36906 60.1562 5.04875 59.7344 5.92896C59.3177 6.80916 59.1094 7.85343 59.1094 9.06177V9.07739C59.1094 10.2753 59.3151 11.317 59.7266 12.2024C60.1432 13.0878 60.737 13.7727 61.5078 14.2571C62.2786 14.7362 63.2031 14.9758 64.2812 14.9758ZM64.2812 13.679C63.5 13.679 62.8307 13.4889 62.2734 13.1086C61.7161 12.7284 61.2891 12.1946 60.9922 11.5071C60.6953 10.8144 60.5469 10.0045 60.5469 9.07739V9.06177C60.5469 8.12427 60.6979 7.31177 61 6.62427C61.3073 5.93677 61.7396 5.40552 62.2969 5.03052C62.8542 4.65552 63.5156 4.46802 64.2812 4.46802C65.0521 4.46802 65.7161 4.65552 66.2734 5.03052C66.8307 5.40552 67.2604 5.93677 67.5625 6.62427C67.8646 7.31177 68.0156 8.12427 68.0156 9.06177V9.07739C68.0156 10.0045 67.8646 10.8144 67.5625 11.5071C67.2604 12.1946 66.8307 12.7284 66.2734 13.1086C65.7161 13.4889 65.0521 13.679 64.2812 13.679ZM74.7578 14.7102H76.1484L80.3047 3.43677H78.8281L75.5156 12.8899H75.3906L72.0781 3.43677H70.6016L74.7578 14.7102ZM82.2812 14.7102H89.2656V13.4446H83.6875V9.56958H88.9766V8.31958H83.6875V4.70239H89.2656V3.43677H82.2812V14.7102ZM91.8125 14.7102H93.125V6.10083H93.8125L92.2422 3.74927L96.7734 14.7102H97.9609L102.5 3.74927L100.922 6.10083H101.609V14.7102H102.922V3.43677H101.289L97.4297 12.843H97.3047L93.4453 3.43677H91.8125V14.7102ZM106.5 14.7102H110.195C110.997 14.7102 111.682 14.5852 112.25 14.3352C112.818 14.08 113.253 13.718 113.555 13.2493C113.862 12.7753 114.016 12.2102 114.016 11.554V11.5383C114.016 11.0435 113.911 10.6034 113.703 10.218C113.5 9.82739 113.211 9.50968 112.836 9.26489C112.461 9.0201 112.016 8.86646 111.5 8.80396V8.67896C111.865 8.61125 112.193 8.46021 112.484 8.22583C112.776 7.99146 113.008 7.70239 113.18 7.35864C113.357 7.01489 113.445 6.64771 113.445 6.25708V6.24146C113.445 5.66854 113.31 5.17375 113.039 4.75708C112.773 4.33521 112.391 4.00968 111.891 3.78052C111.396 3.55135 110.802 3.43677 110.109 3.43677H106.5V4.67896H109.812C110.51 4.67896 111.052 4.83781 111.438 5.15552C111.828 5.46802 112.023 5.91073 112.023 6.48364V6.49927C112.023 7.09302 111.807 7.54093 111.375 7.84302C110.948 8.1451 110.307 8.29614 109.453 8.29614H106.5V9.50708H109.852C110.451 9.50708 110.951 9.58 111.352 9.72583C111.758 9.87166 112.062 10.0904 112.266 10.3821C112.469 10.6737 112.57 11.0357 112.57 11.468V11.4836C112.57 12.1295 112.352 12.6217 111.914 12.9602C111.477 13.2987 110.833 13.468 109.984 13.468H106.5V14.7102ZM105.797 14.7102H107.203V3.43677H105.797V14.7102ZM116.312 14.7102H117.719V10.2493H120.414C120.424 10.2493 120.438 10.2493 120.453 10.2493C120.469 10.2493 120.482 10.2493 120.492 10.2493L122.906 14.7102H124.555L121.945 10.0305C122.654 9.80656 123.208 9.40812 123.609 8.83521C124.01 8.26229 124.211 7.58521 124.211 6.80396V6.78833C124.211 6.11125 124.062 5.52271 123.766 5.02271C123.469 4.52271 123.049 4.13468 122.508 3.85864C121.971 3.57739 121.341 3.43677 120.617 3.43677H116.312V14.7102ZM117.719 8.99927V4.68677H120.43C121.159 4.68677 121.729 4.87687 122.141 5.25708C122.552 5.63729 122.758 6.16333 122.758 6.83521V6.85083C122.758 7.53833 122.56 8.06958 122.164 8.44458C121.773 8.81437 121.216 8.99927 120.492 8.99927H117.719ZM131.5 14.9758C132.573 14.9758 133.495 14.7336 134.266 14.2493C135.042 13.7649 135.635 13.0826 136.047 12.2024C136.464 11.317 136.672 10.2753 136.672 9.07739V9.06177C136.672 7.85864 136.464 6.81698 136.047 5.93677C135.63 5.05135 135.034 4.36906 134.258 3.88989C133.487 3.41073 132.568 3.17114 131.5 3.17114C130.438 3.17114 129.518 3.41073 128.742 3.88989C127.971 4.36906 127.375 5.04875 126.953 5.92896C126.536 6.80916 126.328 7.85343 126.328 9.06177V9.07739C126.328 10.2753 126.534 11.317 126.945 12.2024C127.362 13.0878 127.956 13.7727 128.727 14.2571C129.497 14.7362 130.422 14.9758 131.5 14.9758ZM131.5 13.679C130.719 13.679 130.049 13.4889 129.492 13.1086C128.935 12.7284 128.508 12.1946 128.211 11.5071C127.914 10.8144 127.766 10.0045 127.766 9.07739V9.06177C127.766 8.12427 127.917 7.31177 128.219 6.62427C128.526 5.93677 128.958 5.40552 129.516 5.03052C130.073 4.65552 130.734 4.46802 131.5 4.46802C132.271 4.46802 132.935 4.65552 133.492 5.03052C134.049 5.40552 134.479 5.93677 134.781 6.62427C135.083 7.31177 135.234 8.12427 135.234 9.06177V9.07739C135.234 10.0045 135.083 10.8144 134.781 11.5071C134.479 12.1946 134.049 12.7284 133.492 13.1086C132.935 13.4889 132.271 13.679 131.5 13.679Z" fill="black"/>
<path d="M750.016 11.7048H751.422V0.431396H750.023L747.023 2.58765V4.07202L749.891 1.9939H750.016V11.7048ZM755.148 11.7048H756.625L761.641 1.73608V0.431396H754.18V1.68921H760.211V1.79858L755.148 11.7048ZM764.75 10.1033C765.031 10.1033 765.271 10.0043 765.469 9.8064C765.667 9.60327 765.766 9.36369 765.766 9.08765C765.766 8.8064 765.667 8.56681 765.469 8.3689C765.271 8.17098 765.031 8.07202 764.75 8.07202C764.474 8.07202 764.234 8.17098 764.031 8.3689C763.833 8.56681 763.734 8.8064 763.734 9.08765C763.734 9.36369 763.833 9.60327 764.031 9.8064C764.234 10.0043 764.474 10.1033 764.75 10.1033ZM764.75 4.0564C765.031 4.0564 765.271 3.95744 765.469 3.75952C765.667 3.5564 765.766 3.31681 765.766 3.04077C765.766 2.75952 765.667 2.51994 765.469 2.32202C765.271 2.1241 765.031 2.02515 764.75 2.02515C764.474 2.02515 764.234 2.1241 764.031 2.32202C763.833 2.51994 763.734 2.75952 763.734 3.04077C763.734 3.31681 763.833 3.5564 764.031 3.75952C764.234 3.95744 764.474 4.0564 764.75 4.0564ZM772.156 11.9705C772.99 11.9705 773.703 11.7309 774.297 11.2517C774.891 10.7725 775.346 10.0929 775.664 9.21265C775.987 8.32723 776.148 7.28035 776.148 6.07202V6.0564C776.148 4.84806 775.987 3.80379 775.664 2.92358C775.346 2.04338 774.891 1.36369 774.297 0.884521C773.703 0.405355 772.99 0.165771 772.156 0.165771C771.323 0.165771 770.609 0.405355 770.016 0.884521C769.427 1.36369 768.974 2.04338 768.656 2.92358C768.339 3.80379 768.18 4.84806 768.18 6.0564V6.07202C768.18 7.28035 768.339 8.32723 768.656 9.21265C768.974 10.0929 769.427 10.7725 770.016 11.2517C770.609 11.7309 771.323 11.9705 772.156 11.9705ZM772.156 10.7439C771.62 10.7439 771.159 10.5538 770.773 10.1736C770.393 9.79338 770.102 9.25431 769.898 8.5564C769.695 7.85848 769.594 7.03035 769.594 6.07202V6.0564C769.594 5.09806 769.695 4.27254 769.898 3.57983C770.102 2.88192 770.393 2.34546 770.773 1.97046C771.159 1.59025 771.62 1.40015 772.156 1.40015C772.698 1.40015 773.159 1.59025 773.539 1.97046C773.924 2.34546 774.219 2.88192 774.422 3.57983C774.63 4.27254 774.734 5.09806 774.734 6.0564V6.07202C774.734 7.03035 774.63 7.85848 774.422 8.5564C774.219 9.25431 773.924 9.79338 773.539 10.1736C773.159 10.5538 772.698 10.7439 772.156 10.7439ZM782.234 11.9705C783.068 11.9705 783.781 11.7309 784.375 11.2517C784.969 10.7725 785.424 10.0929 785.742 9.21265C786.065 8.32723 786.227 7.28035 786.227 6.07202V6.0564C786.227 4.84806 786.065 3.80379 785.742 2.92358C785.424 2.04338 784.969 1.36369 784.375 0.884521C783.781 0.405355 783.068 0.165771 782.234 0.165771C781.401 0.165771 780.688 0.405355 780.094 0.884521C779.505 1.36369 779.052 2.04338 778.734 2.92358C778.417 3.80379 778.258 4.84806 778.258 6.0564V6.07202C778.258 7.28035 778.417 8.32723 778.734 9.21265C779.052 10.0929 779.505 10.7725 780.094 11.2517C780.688 11.7309 781.401 11.9705 782.234 11.9705ZM782.234 10.7439C781.698 10.7439 781.237 10.5538 780.852 10.1736C780.471 9.79338 780.18 9.25431 779.977 8.5564C779.773 7.85848 779.672 7.03035 779.672 6.07202V6.0564C779.672 5.09806 779.773 4.27254 779.977 3.57983C780.18 2.88192 780.471 2.34546 780.852 1.97046C781.237 1.59025 781.698 1.40015 782.234 1.40015C782.776 1.40015 783.237 1.59025 783.617 1.97046C784.003 2.34546 784.297 2.88192 784.5 3.57983C784.708 4.27254 784.812 5.09806 784.812 6.0564V6.07202C784.812 7.03035 784.708 7.85848 784.5 8.5564C784.297 9.25431 784.003 9.79338 783.617 10.1736C783.237 10.5538 782.776 10.7439 782.234 10.7439ZM793.922 11.7048H797.617C798.419 11.7048 799.104 11.5798 799.672 11.3298C800.24 11.0746 800.674 10.7126 800.977 10.2439C801.284 9.76994 801.438 9.20483 801.438 8.54858V8.53296C801.438 8.03817 801.333 7.59806 801.125 7.21265C800.922 6.82202 800.633 6.50431 800.258 6.25952C799.883 6.01473 799.438 5.86108 798.922 5.79858V5.67358C799.286 5.60588 799.615 5.45483 799.906 5.22046C800.198 4.98608 800.43 4.69702 800.602 4.35327C800.779 4.00952 800.867 3.64233 800.867 3.25171V3.23608C800.867 2.66317 800.732 2.16838 800.461 1.75171C800.195 1.32983 799.812 1.00431 799.312 0.775146C798.818 0.54598 798.224 0.431396 797.531 0.431396H793.922V1.67358H797.234C797.932 1.67358 798.474 1.83244 798.859 2.15015C799.25 2.46265 799.445 2.90535 799.445 3.47827V3.4939C799.445 4.08765 799.229 4.53556 798.797 4.83765C798.37 5.13973 797.729 5.29077 796.875 5.29077H793.922V6.50171H797.273C797.872 6.50171 798.372 6.57463 798.773 6.72046C799.18 6.86629 799.484 7.08504 799.688 7.37671C799.891 7.66838 799.992 8.03035 799.992 8.46265V8.47827C799.992 9.1241 799.773 9.61629 799.336 9.95483C798.898 10.2934 798.255 10.4626 797.406 10.4626H793.922V11.7048ZM793.219 11.7048H794.625V0.431396H793.219V11.7048ZM803.734 11.7048H805.141V7.2439H807.836C807.846 7.2439 807.859 7.2439 807.875 7.2439C807.891 7.2439 807.904 7.2439 807.914 7.2439L810.328 11.7048H811.977L809.367 7.02515C810.076 6.80119 810.63 6.40275 811.031 5.82983C811.432 5.25692 811.633 4.57983 811.633 3.79858V3.78296C811.633 3.10588 811.484 2.51733 811.188 2.01733C810.891 1.51733 810.471 1.12931 809.93 0.853271C809.393 0.572021 808.763 0.431396 808.039 0.431396H803.734V11.7048ZM805.141 5.9939V1.6814H807.852C808.581 1.6814 809.151 1.8715 809.562 2.25171C809.974 2.63192 810.18 3.15796 810.18 3.82983V3.84546C810.18 4.53296 809.982 5.06421 809.586 5.43921C809.195 5.809 808.638 5.9939 807.914 5.9939H805.141ZM817.117 11.7048H818.523V1.69702H822.156V0.431396H813.484V1.69702H817.117V11.7048Z" fill="black"/>
<path d="M351.664 105.792H359.856L348.336 87.3605C355.376 85.8245 359.216 80.8965 359.216 73.9845C359.216 65.6005 353.584 60.1605 343.344 60.1605H322.16V105.856H329.2V87.8725H340.592L351.664 105.792ZM329.2 81.9205V66.0485H342.512C348.72 66.0485 352.048 68.9285 352.048 73.9845C352.048 79.0405 348.72 81.9205 342.512 81.9205H329.2ZM399.582 72.7045C397.342 64.1285 391.454 59.1365 381.406 59.1365C371.934 59.1365 364.702 64.1925 364.702 72.0645C364.702 80.5125 370.782 82.8805 376.734 84.3525L385.054 86.4005C389.918 87.5525 393.502 88.7685 393.502 93.6325C393.502 98.3045 389.214 101.184 383.07 101.184C376.734 101.184 371.102 98.6885 370.142 91.0725L363.166 91.7765C364.766 101.568 371.806 106.816 382.942 106.816C392.67 106.816 400.67 102.336 400.67 93.4405C400.67 83.4565 394.014 81.6005 387.038 79.8725L379.166 78.0805C375.07 77.1205 371.87 75.7765 371.87 71.8725C371.87 67.7765 375.518 64.7685 381.342 64.7685C387.102 64.7685 391.326 67.5845 392.542 73.2805L399.582 72.7045ZM443.953 60.0965H436.337L422.897 97.7925H422.641L409.201 60.0965H401.521L418.929 105.792H426.609L443.953 60.0965ZM449.161 60.0965V105.792H456.202V88.4485H469.002C479.178 88.4485 484.746 82.8805 484.746 74.3045C484.746 65.7285 479.178 60.0965 469.002 60.0965H449.161ZM456.202 82.5605V66.0485H467.978C474.186 66.0485 477.578 69.0565 477.578 74.3045C477.578 79.5525 474.186 82.5605 467.978 82.5605H456.202Z" fill="black"/>
<path d="M276.258 162H283.555V160.734H277.867L278.211 160.969V160.32L277.859 160.969L280.773 157.961C281.456 157.258 281.984 156.667 282.359 156.188C282.734 155.703 282.995 155.263 283.141 154.867C283.292 154.471 283.367 154.06 283.367 153.633V153.617C283.367 153.008 283.214 152.466 282.906 151.992C282.604 151.518 282.19 151.146 281.664 150.875C281.138 150.599 280.547 150.461 279.891 150.461C279.172 150.461 278.534 150.609 277.977 150.906C277.419 151.198 276.982 151.604 276.664 152.125C276.346 152.641 276.185 153.232 276.18 153.898L276.195 153.906L277.539 153.914L277.547 153.898C277.547 153.456 277.641 153.07 277.828 152.742C278.016 152.409 278.279 152.151 278.617 151.969C278.956 151.781 279.349 151.688 279.797 151.688C280.24 151.688 280.62 151.779 280.938 151.961C281.255 152.143 281.5 152.391 281.672 152.703C281.844 153.016 281.93 153.37 281.93 153.766V153.781C281.93 154.109 281.875 154.411 281.766 154.688C281.656 154.964 281.466 155.273 281.195 155.617C280.924 155.956 280.549 156.385 280.07 156.906L276.258 161.031V162ZM290.828 162.266C291.901 162.266 292.823 162.023 293.594 161.539C294.37 161.055 294.964 160.372 295.375 159.492C295.792 158.607 296 157.565 296 156.367V156.352C296 155.148 295.792 154.107 295.375 153.227C294.958 152.341 294.362 151.659 293.586 151.18C292.815 150.701 291.896 150.461 290.828 150.461C289.766 150.461 288.846 150.701 288.07 151.18C287.299 151.659 286.703 152.339 286.281 153.219C285.865 154.099 285.656 155.143 285.656 156.352V156.367C285.656 157.565 285.862 158.607 286.273 159.492C286.69 160.378 287.284 161.062 288.055 161.547C288.826 162.026 289.75 162.266 290.828 162.266ZM290.828 160.969C290.047 160.969 289.378 160.779 288.82 160.398C288.263 160.018 287.836 159.484 287.539 158.797C287.242 158.104 287.094 157.294 287.094 156.367V156.352C287.094 155.414 287.245 154.602 287.547 153.914C287.854 153.227 288.286 152.695 288.844 152.32C289.401 151.945 290.062 151.758 290.828 151.758C291.599 151.758 292.263 151.945 292.82 152.32C293.378 152.695 293.807 153.227 294.109 153.914C294.411 154.602 294.562 155.414 294.562 156.352V156.367C294.562 157.294 294.411 158.104 294.109 158.797C293.807 159.484 293.378 160.018 292.82 160.398C292.263 160.779 291.599 160.969 290.828 160.969ZM293.891 163.273H295.469L292.195 158.773H290.617L293.891 163.273ZM301.086 162.148C301.706 162.148 302.224 162.026 302.641 161.781C303.062 161.536 303.378 161.19 303.586 160.742H303.711V162H305.07V153.578H303.711V158.562C303.711 159.052 303.625 159.477 303.453 159.836C303.281 160.19 303.026 160.464 302.688 160.656C302.349 160.849 301.932 160.945 301.438 160.945C300.766 160.945 300.281 160.76 299.984 160.391C299.693 160.021 299.547 159.458 299.547 158.703V153.578H298.188V159.031C298.188 159.693 298.294 160.258 298.508 160.727C298.727 161.19 299.052 161.544 299.484 161.789C299.917 162.029 300.451 162.148 301.086 162.148ZM309.922 162.148C310.302 162.148 310.651 162.096 310.969 161.992C311.286 161.883 311.57 161.724 311.82 161.516C312.076 161.307 312.292 161.055 312.469 160.758H312.594V162H313.953V156.234C313.953 155.651 313.828 155.151 313.578 154.734C313.333 154.312 312.971 153.99 312.492 153.766C312.018 153.542 311.438 153.43 310.75 153.43C310.151 153.43 309.617 153.523 309.148 153.711C308.68 153.893 308.297 154.151 308 154.484C307.708 154.812 307.526 155.198 307.453 155.641L307.445 155.688H308.805L308.812 155.664C308.922 155.336 309.138 155.083 309.461 154.906C309.784 154.724 310.198 154.633 310.703 154.633C311.333 154.633 311.805 154.771 312.117 155.047C312.435 155.318 312.594 155.714 312.594 156.234V158.859C312.594 159.26 312.49 159.62 312.281 159.938C312.078 160.255 311.797 160.508 311.438 160.695C311.078 160.878 310.667 160.969 310.203 160.969C309.714 160.969 309.307 160.852 308.984 160.617C308.661 160.378 308.5 160.044 308.5 159.617V159.602C308.5 159.185 308.646 158.862 308.938 158.633C309.234 158.404 309.703 158.271 310.344 158.234L313.273 158.047V156.961L310.18 157.148C309.201 157.206 308.443 157.448 307.906 157.875C307.375 158.297 307.109 158.883 307.109 159.633V159.648C307.109 160.159 307.232 160.602 307.477 160.977C307.727 161.352 308.062 161.641 308.484 161.844C308.911 162.047 309.391 162.148 309.922 162.148ZM319.547 162.148C320.135 162.148 320.656 162.018 321.109 161.758C321.562 161.492 321.917 161.125 322.172 160.656H322.297V162H323.656V150.234H322.297V154.906H322.172C321.943 154.458 321.591 154.102 321.117 153.836C320.648 153.565 320.125 153.43 319.547 153.43C318.833 153.43 318.211 153.609 317.68 153.969C317.154 154.328 316.745 154.833 316.453 155.484C316.161 156.135 316.016 156.901 316.016 157.781V157.797C316.016 158.672 316.161 159.438 316.453 160.094C316.745 160.745 317.156 161.25 317.688 161.609C318.219 161.969 318.839 162.148 319.547 162.148ZM319.859 160.945C319.349 160.945 318.909 160.82 318.539 160.57C318.174 160.315 317.893 159.953 317.695 159.484C317.503 159.01 317.406 158.448 317.406 157.797V157.781C317.406 157.125 317.503 156.562 317.695 156.094C317.893 155.625 318.174 155.266 318.539 155.016C318.909 154.76 319.349 154.633 319.859 154.633C320.37 154.633 320.81 154.76 321.18 155.016C321.549 155.271 321.833 155.633 322.031 156.102C322.229 156.57 322.328 157.13 322.328 157.781V157.797C322.328 158.443 322.229 159.003 322.031 159.477C321.833 159.945 321.549 160.307 321.18 160.562C320.81 160.818 320.37 160.945 319.859 160.945ZM326.266 162H327.625V156.781C327.625 156.37 327.719 156.01 327.906 155.703C328.099 155.396 328.362 155.156 328.695 154.984C329.029 154.812 329.411 154.727 329.844 154.727C329.995 154.727 330.135 154.734 330.266 154.75C330.401 154.76 330.539 154.779 330.68 154.805V153.484C330.612 153.474 330.513 153.464 330.383 153.453C330.258 153.438 330.13 153.43 330 153.43C329.432 153.43 328.956 153.552 328.57 153.797C328.185 154.042 327.911 154.385 327.75 154.828H327.625V153.578H326.266V162ZM334.672 162.148C335.052 162.148 335.401 162.096 335.719 161.992C336.036 161.883 336.32 161.724 336.57 161.516C336.826 161.307 337.042 161.055 337.219 160.758H337.344V162H338.703V156.234C338.703 155.651 338.578 155.151 338.328 154.734C338.083 154.312 337.721 153.99 337.242 153.766C336.768 153.542 336.188 153.43 335.5 153.43C334.901 153.43 334.367 153.523 333.898 153.711C333.43 153.893 333.047 154.151 332.75 154.484C332.458 154.812 332.276 155.198 332.203 155.641L332.195 155.688H333.555L333.562 155.664C333.672 155.336 333.888 155.083 334.211 154.906C334.534 154.724 334.948 154.633 335.453 154.633C336.083 154.633 336.555 154.771 336.867 155.047C337.185 155.318 337.344 155.714 337.344 156.234V158.859C337.344 159.26 337.24 159.62 337.031 159.938C336.828 160.255 336.547 160.508 336.188 160.695C335.828 160.878 335.417 160.969 334.953 160.969C334.464 160.969 334.057 160.852 333.734 160.617C333.411 160.378 333.25 160.044 333.25 159.617V159.602C333.25 159.185 333.396 158.862 333.688 158.633C333.984 158.404 334.453 158.271 335.094 158.234L338.023 158.047V156.961L334.93 157.148C333.951 157.206 333.193 157.448 332.656 157.875C332.125 158.297 331.859 158.883 331.859 159.633V159.648C331.859 160.159 331.982 160.602 332.227 160.977C332.477 161.352 332.812 161.641 333.234 161.844C333.661 162.047 334.141 162.148 334.672 162.148ZM341.188 162H342.547V157.016C342.547 156.521 342.635 156.096 342.812 155.742C342.995 155.388 343.25 155.115 343.578 154.922C343.906 154.729 344.294 154.633 344.742 154.633C345.414 154.633 345.909 154.818 346.227 155.188C346.549 155.552 346.711 156.115 346.711 156.875V162H348.07V156.547C348.07 155.547 347.815 154.779 347.305 154.242C346.799 153.701 346.073 153.43 345.125 153.43C344.505 153.43 343.995 153.555 343.594 153.805C343.193 154.049 342.885 154.396 342.672 154.844H342.547V153.578H341.188V162ZM354 164.969C354.766 164.969 355.43 164.841 355.992 164.586C356.555 164.336 356.987 163.979 357.289 163.516C357.596 163.052 357.75 162.508 357.75 161.883V153.578H356.391V154.969H356.297C356.125 154.651 355.909 154.378 355.648 154.148C355.393 153.919 355.099 153.742 354.766 153.617C354.432 153.492 354.068 153.43 353.672 153.43C352.938 153.43 352.305 153.607 351.773 153.961C351.242 154.31 350.831 154.792 350.539 155.406C350.253 156.016 350.109 156.714 350.109 157.5V157.516C350.109 158.302 350.253 159 350.539 159.609C350.826 160.219 351.232 160.698 351.758 161.047C352.289 161.391 352.917 161.562 353.641 161.562C354.026 161.562 354.385 161.508 354.719 161.398C355.052 161.284 355.352 161.117 355.617 160.898C355.883 160.68 356.104 160.417 356.281 160.109H356.406V161.812C356.406 162.432 356.193 162.911 355.766 163.25C355.344 163.594 354.755 163.766 354 163.766C353.396 163.766 352.911 163.661 352.547 163.453C352.182 163.25 351.964 162.99 351.891 162.672L351.883 162.664H350.477L350.461 162.672C350.534 163.13 350.719 163.531 351.016 163.875C351.318 164.224 351.721 164.492 352.227 164.68C352.732 164.872 353.323 164.969 354 164.969ZM353.938 160.359C353.417 160.359 352.974 160.24 352.609 160C352.25 159.755 351.974 159.419 351.781 158.992C351.594 158.565 351.5 158.073 351.5 157.516V157.5C351.5 156.943 351.594 156.448 351.781 156.016C351.974 155.583 352.25 155.245 352.609 155C352.974 154.755 353.417 154.633 353.938 154.633C354.458 154.633 354.904 154.755 355.273 155C355.648 155.245 355.935 155.583 356.133 156.016C356.336 156.448 356.438 156.943 356.438 157.5V157.516C356.438 158.073 356.336 158.565 356.133 158.992C355.935 159.419 355.648 159.755 355.273 160C354.904 160.24 354.458 160.359 353.938 160.359ZM363.102 162.148C363.721 162.148 364.24 162.026 364.656 161.781C365.078 161.536 365.393 161.19 365.602 160.742H365.727V162H367.086V153.578H365.727V158.562C365.727 159.052 365.641 159.477 365.469 159.836C365.297 160.19 365.042 160.464 364.703 160.656C364.365 160.849 363.948 160.945 363.453 160.945C362.781 160.945 362.297 160.76 362 160.391C361.708 160.021 361.562 159.458 361.562 158.703V153.578H360.203V159.031C360.203 159.693 360.31 160.258 360.523 160.727C360.742 161.19 361.068 161.544 361.5 161.789C361.932 162.029 362.466 162.148 363.102 162.148ZM369.703 162H371.062V150.234H369.703V162ZM375.984 162.148C376.365 162.148 376.714 162.096 377.031 161.992C377.349 161.883 377.633 161.724 377.883 161.516C378.138 161.307 378.354 161.055 378.531 160.758H378.656V162H380.016V156.234C380.016 155.651 379.891 155.151 379.641 154.734C379.396 154.312 379.034 153.99 378.555 153.766C378.081 153.542 377.5 153.43 376.812 153.43C376.214 153.43 375.68 153.523 375.211 153.711C374.742 153.893 374.359 154.151 374.062 154.484C373.771 154.812 373.589 155.198 373.516 155.641L373.508 155.688H374.867L374.875 155.664C374.984 155.336 375.201 155.083 375.523 154.906C375.846 154.724 376.26 154.633 376.766 154.633C377.396 154.633 377.867 154.771 378.18 155.047C378.497 155.318 378.656 155.714 378.656 156.234V158.859C378.656 159.26 378.552 159.62 378.344 159.938C378.141 160.255 377.859 160.508 377.5 160.695C377.141 160.878 376.729 160.969 376.266 160.969C375.776 160.969 375.37 160.852 375.047 160.617C374.724 160.378 374.562 160.044 374.562 159.617V159.602C374.562 159.185 374.708 158.862 375 158.633C375.297 158.404 375.766 158.271 376.406 158.234L379.336 158.047V156.961L376.242 157.148C375.263 157.206 374.505 157.448 373.969 157.875C373.438 158.297 373.172 158.883 373.172 159.633V159.648C373.172 160.159 373.294 160.602 373.539 160.977C373.789 161.352 374.125 161.641 374.547 161.844C374.974 162.047 375.453 162.148 375.984 162.148ZM382.5 162H383.859V156.781C383.859 156.37 383.953 156.01 384.141 155.703C384.333 155.396 384.596 155.156 384.93 154.984C385.263 154.812 385.646 154.727 386.078 154.727C386.229 154.727 386.37 154.734 386.5 154.75C386.635 154.76 386.773 154.779 386.914 154.805V153.484C386.846 153.474 386.747 153.464 386.617 153.453C386.492 153.438 386.365 153.43 386.234 153.43C385.667 153.43 385.19 153.552 384.805 153.797C384.419 154.042 384.146 154.385 383.984 154.828H383.859V153.578H382.5V162ZM397.805 162.266C398.607 162.266 399.326 162.125 399.961 161.844C400.602 161.562 401.13 161.169 401.547 160.664C401.964 160.154 402.234 159.555 402.359 158.867V158.852H400.938L400.922 158.867C400.807 159.299 400.604 159.674 400.312 159.992C400.021 160.305 399.661 160.547 399.234 160.719C398.807 160.885 398.331 160.969 397.805 160.969C397.081 160.969 396.453 160.781 395.922 160.406C395.396 160.031 394.99 159.5 394.703 158.812C394.417 158.125 394.273 157.312 394.273 156.375V156.359C394.273 155.417 394.417 154.602 394.703 153.914C394.99 153.227 395.396 152.695 395.922 152.32C396.453 151.945 397.078 151.758 397.797 151.758C398.318 151.758 398.789 151.854 399.211 152.047C399.638 152.24 400 152.513 400.297 152.867C400.594 153.216 400.805 153.633 400.93 154.117L400.938 154.133H402.352L402.359 154.117C402.25 153.398 401.984 152.766 401.562 152.219C401.141 151.667 400.604 151.237 399.953 150.93C399.307 150.617 398.589 150.461 397.797 150.461C396.776 150.461 395.893 150.701 395.148 151.18C394.409 151.659 393.836 152.339 393.43 153.219C393.029 154.099 392.828 155.146 392.828 156.359V156.375C392.828 157.583 393.029 158.628 393.43 159.508C393.836 160.388 394.411 161.068 395.156 161.547C395.901 162.026 396.784 162.266 397.805 162.266ZM404.625 162H405.984V157.016C405.984 156.521 406.073 156.096 406.25 155.742C406.432 155.388 406.688 155.115 407.016 154.922C407.344 154.729 407.732 154.633 408.18 154.633C408.852 154.633 409.346 154.818 409.664 155.188C409.987 155.552 410.148 156.115 410.148 156.875V162H411.508V156.547C411.508 155.88 411.393 155.315 411.164 154.852C410.935 154.388 410.602 154.036 410.164 153.797C409.727 153.552 409.193 153.43 408.562 153.43C407.943 153.43 407.432 153.555 407.031 153.805C406.63 154.049 406.323 154.396 406.109 154.844H405.984V150.234H404.625V162ZM416.789 162.148C417.409 162.148 417.927 162.026 418.344 161.781C418.766 161.536 419.081 161.19 419.289 160.742H419.414V162H420.773V153.578H419.414V158.562C419.414 159.052 419.328 159.477 419.156 159.836C418.984 160.19 418.729 160.464 418.391 160.656C418.052 160.849 417.635 160.945 417.141 160.945C416.469 160.945 415.984 160.76 415.688 160.391C415.396 160.021 415.25 159.458 415.25 158.703V153.578H413.891V159.031C413.891 159.693 413.997 160.258 414.211 160.727C414.43 161.19 414.755 161.544 415.188 161.789C415.62 162.029 416.154 162.148 416.789 162.148ZM423.312 162H424.672V156.781C424.672 156.37 424.766 156.01 424.953 155.703C425.146 155.396 425.409 155.156 425.742 154.984C426.076 154.812 426.458 154.727 426.891 154.727C427.042 154.727 427.182 154.734 427.312 154.75C427.448 154.76 427.586 154.779 427.727 154.805V153.484C427.659 153.474 427.56 153.464 427.43 153.453C427.305 153.438 427.177 153.43 427.047 153.43C426.479 153.43 426.003 153.552 425.617 153.797C425.232 154.042 424.958 154.385 424.797 154.828H424.672V153.578H423.312V162ZM432.617 162.148C433.294 162.148 433.872 162.036 434.352 161.812C434.831 161.589 435.216 161.281 435.508 160.891C435.799 160.495 436.003 160.044 436.117 159.539L436.133 159.453L434.789 159.461L434.773 159.508C434.617 159.977 434.359 160.333 434 160.578C433.641 160.823 433.177 160.945 432.609 160.945C432.109 160.945 431.674 160.815 431.305 160.555C430.935 160.294 430.648 159.927 430.445 159.453C430.242 158.974 430.141 158.411 430.141 157.766V157.75C430.141 157.115 430.24 156.565 430.438 156.102C430.641 155.633 430.927 155.271 431.297 155.016C431.667 154.76 432.104 154.633 432.609 154.633C433.214 154.633 433.701 154.779 434.07 155.07C434.44 155.362 434.677 155.716 434.781 156.133L434.789 156.156H436.141L436.133 156.109C436.049 155.609 435.859 155.159 435.562 154.758C435.266 154.352 434.87 154.029 434.375 153.789C433.88 153.549 433.292 153.43 432.609 153.43C431.823 153.43 431.141 153.609 430.562 153.969C429.984 154.323 429.536 154.823 429.219 155.469C428.906 156.115 428.75 156.875 428.75 157.75V157.766C428.75 158.656 428.909 159.43 429.227 160.086C429.544 160.742 429.992 161.25 430.57 161.609C431.148 161.969 431.831 162.148 432.617 162.148ZM438.203 162H439.562V157.016C439.562 156.521 439.651 156.096 439.828 155.742C440.01 155.388 440.266 155.115 440.594 154.922C440.922 154.729 441.31 154.633 441.758 154.633C442.43 154.633 442.924 154.818 443.242 155.188C443.565 155.552 443.727 156.115 443.727 156.875V162H445.086V156.547C445.086 155.88 444.971 155.315 444.742 154.852C444.513 154.388 444.18 154.036 443.742 153.797C443.305 153.552 442.771 153.43 442.141 153.43C441.521 153.43 441.01 153.555 440.609 153.805C440.208 154.049 439.901 154.396 439.688 154.844H439.562V150.234H438.203V162ZM451.93 158.094H457.18V156.828H451.93V158.094ZM464.266 162H465.578V153.391H466.266L464.695 151.039L469.227 162H470.414L474.953 151.039L473.375 153.391H474.062V162H475.375V150.727H473.742L469.883 160.133H469.758L465.898 150.727H464.266V162ZM478.109 162H479.469V153.578H478.109V162ZM478.797 151.953C479.057 151.953 479.279 151.862 479.461 151.68C479.643 151.492 479.734 151.271 479.734 151.016C479.734 150.755 479.643 150.534 479.461 150.352C479.279 150.169 479.057 150.078 478.797 150.078C478.542 150.078 478.32 150.169 478.133 150.352C477.951 150.534 477.859 150.755 477.859 151.016C477.859 151.271 477.951 151.492 478.133 151.68C478.32 151.862 478.542 151.953 478.797 151.953ZM482.031 162H483.391V156.781C483.391 156.37 483.484 156.01 483.672 155.703C483.865 155.396 484.128 155.156 484.461 154.984C484.794 154.812 485.177 154.727 485.609 154.727C485.76 154.727 485.901 154.734 486.031 154.75C486.167 154.76 486.305 154.779 486.445 154.805V153.484C486.378 153.474 486.279 153.464 486.148 153.453C486.023 153.438 485.896 153.43 485.766 153.43C485.198 153.43 484.721 153.552 484.336 153.797C483.951 154.042 483.677 154.385 483.516 154.828H483.391V153.578H482.031V162ZM490.438 162.148C490.818 162.148 491.167 162.096 491.484 161.992C491.802 161.883 492.086 161.724 492.336 161.516C492.591 161.307 492.807 161.055 492.984 160.758H493.109V162H494.469V156.234C494.469 155.651 494.344 155.151 494.094 154.734C493.849 154.312 493.487 153.99 493.008 153.766C492.534 153.542 491.953 153.43 491.266 153.43C490.667 153.43 490.133 153.523 489.664 153.711C489.195 153.893 488.812 154.151 488.516 154.484C488.224 154.812 488.042 155.198 487.969 155.641L487.961 155.688H489.32L489.328 155.664C489.438 155.336 489.654 155.083 489.977 154.906C490.299 154.724 490.714 154.633 491.219 154.633C491.849 154.633 492.32 154.771 492.633 155.047C492.951 155.318 493.109 155.714 493.109 156.234V158.859C493.109 159.26 493.005 159.62 492.797 159.938C492.594 160.255 492.312 160.508 491.953 160.695C491.594 160.878 491.182 160.969 490.719 160.969C490.229 160.969 489.823 160.852 489.5 160.617C489.177 160.378 489.016 160.044 489.016 159.617V159.602C489.016 159.185 489.161 158.862 489.453 158.633C489.75 158.404 490.219 158.271 490.859 158.234L493.789 158.047V156.961L490.695 157.148C489.716 157.206 488.958 157.448 488.422 157.875C487.891 158.297 487.625 158.883 487.625 159.633V159.648C487.625 160.159 487.747 160.602 487.992 160.977C488.242 161.352 488.578 161.641 489 161.844C489.427 162.047 489.906 162.148 490.438 162.148ZM499.844 162.148C500.484 162.148 501.057 162.042 501.562 161.828C502.073 161.615 502.477 161.318 502.773 160.938C503.07 160.552 503.219 160.109 503.219 159.609V159.594C503.219 158.99 503.023 158.508 502.633 158.148C502.247 157.789 501.659 157.513 500.867 157.32L499.57 157.008C499.076 156.888 498.716 156.734 498.492 156.547C498.268 156.359 498.156 156.122 498.156 155.836V155.82C498.156 155.57 498.232 155.352 498.383 155.164C498.534 154.977 498.74 154.831 499 154.727C499.26 154.617 499.557 154.562 499.891 154.562C500.401 154.562 500.815 154.667 501.133 154.875C501.451 155.083 501.654 155.354 501.742 155.688H503.078C503.016 155.229 502.844 154.831 502.562 154.492C502.286 154.154 501.919 153.893 501.461 153.711C501.008 153.523 500.487 153.43 499.898 153.43C499.305 153.43 498.771 153.536 498.297 153.75C497.823 153.964 497.448 154.255 497.172 154.625C496.901 154.995 496.766 155.414 496.766 155.883V155.891C496.766 156.495 496.951 156.979 497.32 157.344C497.69 157.703 498.268 157.977 499.055 158.164L500.359 158.477C500.88 158.602 501.255 158.766 501.484 158.969C501.714 159.167 501.828 159.409 501.828 159.695V159.711C501.828 159.966 501.745 160.193 501.578 160.391C501.411 160.583 501.182 160.737 500.891 160.852C500.604 160.961 500.271 161.016 499.891 161.016C499.354 161.016 498.919 160.909 498.586 160.695C498.253 160.482 498.029 160.201 497.914 159.852H496.523C496.576 160.315 496.745 160.719 497.031 161.062C497.323 161.406 497.708 161.674 498.188 161.867C498.667 162.055 499.219 162.148 499.844 162.148ZM508.062 162.148C508.703 162.148 509.276 162.042 509.781 161.828C510.292 161.615 510.695 161.318 510.992 160.938C511.289 160.552 511.438 160.109 511.438 159.609V159.594C511.438 158.99 511.242 158.508 510.852 158.148C510.466 157.789 509.878 157.513 509.086 157.32L507.789 157.008C507.294 156.888 506.935 156.734 506.711 156.547C506.487 156.359 506.375 156.122 506.375 155.836V155.82C506.375 155.57 506.451 155.352 506.602 155.164C506.753 154.977 506.958 154.831 507.219 154.727C507.479 154.617 507.776 154.562 508.109 154.562C508.62 154.562 509.034 154.667 509.352 154.875C509.669 155.083 509.872 155.354 509.961 155.688H511.297C511.234 155.229 511.062 154.831 510.781 154.492C510.505 154.154 510.138 153.893 509.68 153.711C509.227 153.523 508.706 153.43 508.117 153.43C507.523 153.43 506.99 153.536 506.516 153.75C506.042 153.964 505.667 154.255 505.391 154.625C505.12 154.995 504.984 155.414 504.984 155.883V155.891C504.984 156.495 505.169 156.979 505.539 157.344C505.909 157.703 506.487 157.977 507.273 158.164L508.578 158.477C509.099 158.602 509.474 158.766 509.703 158.969C509.932 159.167 510.047 159.409 510.047 159.695V159.711C510.047 159.966 509.964 160.193 509.797 160.391C509.63 160.583 509.401 160.737 509.109 160.852C508.823 160.961 508.49 161.016 508.109 161.016C507.573 161.016 507.138 160.909 506.805 160.695C506.471 160.482 506.247 160.201 506.133 159.852H504.742C504.794 160.315 504.964 160.719 505.25 161.062C505.542 161.406 505.927 161.674 506.406 161.867C506.885 162.055 507.438 162.148 508.062 162.148ZM517.008 162.148C517.81 162.148 518.5 161.974 519.078 161.625C519.656 161.271 520.102 160.768 520.414 160.117C520.732 159.466 520.891 158.693 520.891 157.797V157.781C520.891 156.88 520.732 156.104 520.414 155.453C520.102 154.802 519.656 154.302 519.078 153.953C518.5 153.604 517.81 153.43 517.008 153.43C516.211 153.43 515.521 153.604 514.938 153.953C514.359 154.302 513.911 154.802 513.594 155.453C513.281 156.104 513.125 156.88 513.125 157.781V157.797C513.125 158.693 513.281 159.466 513.594 160.117C513.911 160.768 514.359 161.271 514.938 161.625C515.521 161.974 516.211 162.148 517.008 162.148ZM517.008 160.945C516.477 160.945 516.026 160.82 515.656 160.57C515.286 160.32 515.003 159.961 514.805 159.492C514.612 159.023 514.516 158.458 514.516 157.797V157.781C514.516 157.115 514.612 156.547 514.805 156.078C515.003 155.609 515.286 155.253 515.656 155.008C516.026 154.758 516.477 154.633 517.008 154.633C517.539 154.633 517.99 154.758 518.359 155.008C518.729 155.253 519.01 155.609 519.203 156.078C519.401 156.547 519.5 157.115 519.5 157.781V157.797C519.5 158.458 519.401 159.023 519.203 159.492C519.01 159.961 518.729 160.32 518.359 160.57C517.99 160.82 517.539 160.945 517.008 160.945ZM523.078 162H524.438V150.234H523.078V162Z" fill="#3E3E3E"/>
</svg>
