<svg width="332" height="106" viewBox="0 0 332 106" fill="none" xmlns="http://www.w3.org/2000/svg">
<path d="M2.50977 9H3.38867V1.9541H2.51465L0.639648 3.30176V4.22949L2.43164 2.93066H2.50977V9ZM5.4248 9H9.98535V8.20898H6.43066L6.64551 8.35547V7.9502L6.42578 8.35547L8.24707 6.47559C8.6735 6.03613 9.00391 5.66667 9.23828 5.36719C9.47266 5.06445 9.63542 4.78939 9.72656 4.54199C9.82096 4.2946 9.86816 4.03743 9.86816 3.77051V3.76074C9.86816 3.37988 9.77214 3.04134 9.58008 2.74512C9.39128 2.44889 9.13249 2.21615 8.80371 2.04688C8.47493 1.87435 8.10547 1.78809 7.69531 1.78809C7.24609 1.78809 6.84733 1.88086 6.49902 2.06641C6.15072 2.2487 5.87728 2.5026 5.67871 2.82812C5.48014 3.15039 5.37923 3.51986 5.37598 3.93652L5.38574 3.94141L6.22559 3.94629L6.23047 3.93652C6.23047 3.65983 6.28906 3.41895 6.40625 3.21387C6.52344 3.00553 6.68783 2.8444 6.89941 2.73047C7.111 2.61328 7.35677 2.55469 7.63672 2.55469C7.91341 2.55469 8.15104 2.61165 8.34961 2.72559C8.54818 2.83952 8.70117 2.99414 8.80859 3.18945C8.91602 3.38477 8.96973 3.60612 8.96973 3.85352V3.86328C8.96973 4.06836 8.93555 4.25716 8.86719 4.42969C8.79883 4.60221 8.68001 4.7959 8.51074 5.01074C8.34147 5.22233 8.1071 5.49089 7.80762 5.81641L5.4248 8.39453V9ZM14.3848 9H16.8018C17.5016 9 18.099 8.86165 18.5938 8.58496C19.0885 8.30501 19.4678 7.90299 19.7314 7.37891C19.9951 6.85156 20.127 6.21842 20.127 5.47949V5.46973C20.127 4.73079 19.9951 4.09928 19.7314 3.5752C19.4678 3.05111 19.0869 2.65072 18.5889 2.37402C18.0941 2.09408 17.4984 1.9541 16.8018 1.9541H14.3848V9ZM15.2637 8.20898V2.74512H16.7432C17.264 2.74512 17.71 2.85417 18.0811 3.07227C18.4521 3.28711 18.7354 3.59961 18.9307 4.00977C19.1292 4.41667 19.2285 4.90658 19.2285 5.47949V5.48926C19.2285 6.05892 19.1309 6.5472 18.9355 6.9541C18.7402 7.361 18.457 7.67188 18.0859 7.88672C17.7148 8.10156 17.2673 8.20898 16.7432 8.20898H15.2637ZM21.6504 9H26.0156V8.20898H22.5293V5.78711H25.835V5.00586H22.5293V2.74512H26.0156V1.9541H21.6504V9ZM30.4199 9H31.2891V3.53613H31.7383L31.1523 3.22852L35.1904 9H36.0449V1.9541H35.1758V7.4375H34.7266L35.3125 7.74512L31.2744 1.9541H30.4199V9ZM40.8008 9.16602C41.4714 9.16602 42.0475 9.01465 42.5293 8.71191C43.0143 8.40918 43.3854 7.98275 43.6426 7.43262C43.903 6.87923 44.0332 6.22819 44.0332 5.47949V5.46973C44.0332 4.71777 43.903 4.06673 43.6426 3.5166C43.3822 2.96322 43.0094 2.53678 42.5244 2.2373C42.0426 1.93783 41.4681 1.78809 40.8008 1.78809C40.1367 1.78809 39.5622 1.93783 39.0771 2.2373C38.5954 2.53678 38.2227 2.96159 37.959 3.51172C37.6986 4.06185 37.5684 4.71452 37.5684 5.46973V5.47949C37.5684 6.22819 37.6969 6.87923 37.9541 7.43262C38.2145 7.986 38.5856 8.41406 39.0674 8.7168C39.5492 9.01628 40.127 9.16602 40.8008 9.16602ZM40.8008 8.35547C40.3125 8.35547 39.8942 8.23665 39.5459 7.99902C39.1976 7.76139 38.9307 7.42773 38.7451 6.99805C38.5596 6.5651 38.4668 6.05892 38.4668 5.47949V5.46973C38.4668 4.88379 38.5612 4.37598 38.75 3.94629C38.9421 3.5166 39.2122 3.18457 39.5605 2.9502C39.9089 2.71582 40.3223 2.59863 40.8008 2.59863C41.2826 2.59863 41.6976 2.71582 42.0459 2.9502C42.3942 3.18457 42.6628 3.5166 42.8516 3.94629C43.0404 4.37598 43.1348 4.88379 43.1348 5.46973V5.47949C43.1348 6.05892 43.0404 6.5651 42.8516 6.99805C42.6628 7.42773 42.3942 7.76139 42.0459 7.99902C41.6976 8.23665 41.2826 8.35547 40.8008 8.35547ZM47.3486 9H48.2178L50.8154 1.9541H49.8926L47.8223 7.8623H47.7441L45.6738 1.9541H44.751L47.3486 9ZM52.0508 9H56.416V8.20898H52.9297V5.78711H56.2354V5.00586H52.9297V2.74512H56.416V1.9541H52.0508V9ZM58.0078 9H58.8281V3.61914H59.2578L58.2764 2.14941L61.1084 9H61.8506L64.6875 2.14941L63.7012 3.61914H64.1309V9H64.9512V1.9541H63.9307L61.5186 7.83301H61.4404L59.0283 1.9541H58.0078V9ZM67.1875 9H69.4971C69.9984 9 70.4264 8.92188 70.7812 8.76562C71.1361 8.60612 71.4079 8.37988 71.5967 8.08691C71.7887 7.79069 71.8848 7.4375 71.8848 7.02734V7.01758C71.8848 6.70833 71.8197 6.43327 71.6895 6.19238C71.5625 5.94824 71.3818 5.74967 71.1475 5.59668C70.9131 5.44368 70.6348 5.34766 70.3125 5.30859V5.23047C70.5404 5.18815 70.7454 5.09375 70.9277 4.94727C71.11 4.80078 71.2549 4.62012 71.3623 4.40527C71.473 4.19043 71.5283 3.96094 71.5283 3.7168V3.70703C71.5283 3.34896 71.4437 3.03971 71.2744 2.7793C71.1084 2.51562 70.8691 2.31217 70.5566 2.16895C70.2474 2.02572 69.8763 1.9541 69.4434 1.9541H67.1875V2.73047H69.2578C69.694 2.73047 70.0326 2.82975 70.2734 3.02832C70.5176 3.22363 70.6396 3.50033 70.6396 3.8584V3.86816C70.6396 4.23926 70.5046 4.51921 70.2344 4.70801C69.9674 4.89681 69.5671 4.99121 69.0332 4.99121H67.1875V5.74805H69.2822C69.6566 5.74805 69.9691 5.79362 70.2197 5.88477C70.4736 5.97591 70.6641 6.11263 70.791 6.29492C70.918 6.47721 70.9814 6.70345 70.9814 6.97363V6.9834C70.9814 7.38704 70.8447 7.69466 70.5713 7.90625C70.2979 8.11784 69.8958 8.22363 69.3652 8.22363H67.1875V9ZM66.748 9H67.627V1.9541H66.748V9ZM73.3203 9H74.1992V6.21191H75.8838C75.8903 6.21191 75.8984 6.21191 75.9082 6.21191C75.918 6.21191 75.9261 6.21191 75.9326 6.21191L77.4414 9H78.4717L76.8408 6.0752C77.2835 5.93522 77.6302 5.6862 77.8809 5.32812C78.1315 4.97005 78.2568 4.54688 78.2568 4.05859V4.04883C78.2568 3.62565 78.1641 3.25781 77.9785 2.94531C77.793 2.63281 77.5309 2.3903 77.1924 2.21777C76.8571 2.04199 76.4632 1.9541 76.0107 1.9541H73.3203V9ZM74.1992 5.43066V2.73535H75.8936C76.3493 2.73535 76.7057 2.85417 76.9629 3.0918C77.2201 3.32943 77.3486 3.6582 77.3486 4.07812V4.08789C77.3486 4.51758 77.2249 4.84961 76.9775 5.08398C76.7334 5.3151 76.3851 5.43066 75.9326 5.43066H74.1992ZM82.8125 9.16602C83.4831 9.16602 84.0592 9.01465 84.541 8.71191C85.026 8.40918 85.3971 7.98275 85.6543 7.43262C85.9147 6.87923 86.0449 6.22819 86.0449 5.47949V5.46973C86.0449 4.71777 85.9147 4.06673 85.6543 3.5166C85.3939 2.96322 85.0212 2.53678 84.5361 2.2373C84.0544 1.93783 83.4798 1.78809 82.8125 1.78809C82.1484 1.78809 81.5739 1.93783 81.0889 2.2373C80.6071 2.53678 80.2344 2.96159 79.9707 3.51172C79.7103 4.06185 79.5801 4.71452 79.5801 5.46973V5.47949C79.5801 6.22819 79.7087 6.87923 79.9658 7.43262C80.2262 7.986 80.5973 8.41406 81.0791 8.7168C81.5609 9.01628 82.1387 9.16602 82.8125 9.16602ZM82.8125 8.35547C82.3242 8.35547 81.9059 8.23665 81.5576 7.99902C81.2093 7.76139 80.9424 7.42773 80.7568 6.99805C80.5713 6.5651 80.4785 6.05892 80.4785 5.47949V5.46973C80.4785 4.88379 80.5729 4.37598 80.7617 3.94629C80.9538 3.5166 81.224 3.18457 81.5723 2.9502C81.9206 2.71582 82.334 2.59863 82.8125 2.59863C83.2943 2.59863 83.7093 2.71582 84.0576 2.9502C84.4059 3.18457 84.6745 3.5166 84.8633 3.94629C85.0521 4.37598 85.1465 4.88379 85.1465 5.46973V5.47949C85.1465 6.05892 85.0521 6.5651 84.8633 6.99805C84.6745 7.42773 84.4059 7.76139 84.0576 7.99902C83.7093 8.23665 83.2943 8.35547 82.8125 8.35547Z" fill="black"/>
<path d="M286.51 8H287.389V0.954102H286.515L284.64 2.30176V3.22949L286.432 1.93066H286.51V8ZM289.718 8H290.641L293.775 1.76953V0.954102H289.112V1.74023H292.882V1.80859L289.718 8ZM295.719 6.99902C295.895 6.99902 296.044 6.93717 296.168 6.81348C296.292 6.68652 296.354 6.53678 296.354 6.36426C296.354 6.18848 296.292 6.03874 296.168 5.91504C296.044 5.79134 295.895 5.72949 295.719 5.72949C295.546 5.72949 295.396 5.79134 295.27 5.91504C295.146 6.03874 295.084 6.18848 295.084 6.36426C295.084 6.53678 295.146 6.68652 295.27 6.81348C295.396 6.93717 295.546 6.99902 295.719 6.99902ZM295.719 3.21973C295.895 3.21973 296.044 3.15788 296.168 3.03418C296.292 2.90723 296.354 2.75749 296.354 2.58496C296.354 2.40918 296.292 2.25944 296.168 2.13574C296.044 2.01204 295.895 1.9502 295.719 1.9502C295.546 1.9502 295.396 2.01204 295.27 2.13574C295.146 2.25944 295.084 2.40918 295.084 2.58496C295.084 2.75749 295.146 2.90723 295.27 3.03418C295.396 3.15788 295.546 3.21973 295.719 3.21973ZM300.348 8.16602C300.868 8.16602 301.314 8.01628 301.686 7.7168C302.057 7.41732 302.341 6.99251 302.54 6.44238C302.742 5.889 302.843 5.2347 302.843 4.47949V4.46973C302.843 3.71452 302.742 3.06185 302.54 2.51172C302.341 1.96159 302.057 1.53678 301.686 1.2373C301.314 0.937826 300.868 0.788086 300.348 0.788086C299.827 0.788086 299.381 0.937826 299.01 1.2373C298.642 1.53678 298.359 1.96159 298.16 2.51172C297.962 3.06185 297.862 3.71452 297.862 4.46973V4.47949C297.862 5.2347 297.962 5.889 298.16 6.44238C298.359 6.99251 298.642 7.41732 299.01 7.7168C299.381 8.01628 299.827 8.16602 300.348 8.16602ZM300.348 7.39941C300.012 7.39941 299.724 7.2806 299.483 7.04297C299.246 6.80534 299.063 6.46842 298.937 6.03223C298.81 5.59603 298.746 5.07845 298.746 4.47949V4.46973C298.746 3.87077 298.81 3.35482 298.937 2.92188C299.063 2.48568 299.246 2.15039 299.483 1.91602C299.724 1.67839 300.012 1.55957 300.348 1.55957C300.686 1.55957 300.974 1.67839 301.212 1.91602C301.453 2.15039 301.637 2.48568 301.764 2.92188C301.894 3.35482 301.959 3.87077 301.959 4.46973V4.47949C301.959 5.07845 301.894 5.59603 301.764 6.03223C301.637 6.46842 301.453 6.80534 301.212 7.04297C300.974 7.2806 300.686 7.39941 300.348 7.39941ZM306.646 8.16602C307.167 8.16602 307.613 8.01628 307.984 7.7168C308.355 7.41732 308.64 6.99251 308.839 6.44238C309.041 5.889 309.142 5.2347 309.142 4.47949V4.46973C309.142 3.71452 309.041 3.06185 308.839 2.51172C308.64 1.96159 308.355 1.53678 307.984 1.2373C307.613 0.937826 307.167 0.788086 306.646 0.788086C306.126 0.788086 305.68 0.937826 305.309 1.2373C304.941 1.53678 304.658 1.96159 304.459 2.51172C304.26 3.06185 304.161 3.71452 304.161 4.46973V4.47949C304.161 5.2347 304.26 5.889 304.459 6.44238C304.658 6.99251 304.941 7.41732 305.309 7.7168C305.68 8.01628 306.126 8.16602 306.646 8.16602ZM306.646 7.39941C306.311 7.39941 306.023 7.2806 305.782 7.04297C305.545 6.80534 305.362 6.46842 305.235 6.03223C305.108 5.59603 305.045 5.07845 305.045 4.47949V4.46973C305.045 3.87077 305.108 3.35482 305.235 2.92188C305.362 2.48568 305.545 2.15039 305.782 1.91602C306.023 1.67839 306.311 1.55957 306.646 1.55957C306.985 1.55957 307.273 1.67839 307.511 1.91602C307.752 2.15039 307.936 2.48568 308.062 2.92188C308.193 3.35482 308.258 3.87077 308.258 4.46973V4.47949C308.258 5.07845 308.193 5.59603 308.062 6.03223C307.936 6.46842 307.752 6.80534 307.511 7.04297C307.273 7.2806 306.985 7.39941 306.646 7.39941ZM313.951 8H316.261C316.762 8 317.19 7.92188 317.545 7.76562C317.9 7.60612 318.172 7.37988 318.36 7.08691C318.552 6.79069 318.648 6.4375 318.648 6.02734V6.01758C318.648 5.70833 318.583 5.43327 318.453 5.19238C318.326 4.94824 318.146 4.74967 317.911 4.59668C317.677 4.44368 317.398 4.34766 317.076 4.30859V4.23047C317.304 4.18815 317.509 4.09375 317.691 3.94727C317.874 3.80078 318.019 3.62012 318.126 3.40527C318.237 3.19043 318.292 2.96094 318.292 2.7168V2.70703C318.292 2.34896 318.207 2.03971 318.038 1.7793C317.872 1.51562 317.633 1.31217 317.32 1.16895C317.011 1.02572 316.64 0.954102 316.207 0.954102H313.951V1.73047H316.021C316.458 1.73047 316.796 1.82975 317.037 2.02832C317.281 2.22363 317.403 2.50033 317.403 2.8584V2.86816C317.403 3.23926 317.268 3.51921 316.998 3.70801C316.731 3.89681 316.331 3.99121 315.797 3.99121H313.951V4.74805H316.046C316.42 4.74805 316.733 4.79362 316.983 4.88477C317.237 4.97591 317.428 5.11263 317.555 5.29492C317.682 5.47721 317.745 5.70345 317.745 5.97363V5.9834C317.745 6.38704 317.608 6.69466 317.335 6.90625C317.062 7.11784 316.66 7.22363 316.129 7.22363H313.951V8ZM313.512 8H314.391V0.954102H313.512V8ZM320.084 8H320.963V5.21191H322.647C322.654 5.21191 322.662 5.21191 322.672 5.21191C322.682 5.21191 322.69 5.21191 322.696 5.21191L324.205 8H325.235L323.604 5.0752C324.047 4.93522 324.394 4.6862 324.645 4.32812C324.895 3.97005 325.021 3.54688 325.021 3.05859V3.04883C325.021 2.62565 324.928 2.25781 324.742 1.94531C324.557 1.63281 324.295 1.3903 323.956 1.21777C323.621 1.04199 323.227 0.954102 322.774 0.954102H320.084V8ZM320.963 4.43066V1.73535H322.657C323.113 1.73535 323.469 1.85417 323.727 2.0918C323.984 2.32943 324.112 2.6582 324.112 3.07812V3.08789C324.112 3.51758 323.989 3.84961 323.741 4.08398C323.497 4.3151 323.149 4.43066 322.696 4.43066H320.963ZM328.448 8H329.327V1.74512H331.598V0.954102H326.178V1.74512H328.448V8Z" fill="black"/>
<path d="M138.287 68.2747H143.224L136.282 57.1668C140.524 56.2411 142.839 53.2713 142.839 49.1058C142.839 44.0533 139.444 40.7749 133.273 40.7749H120.507V68.3132H124.75V57.4753H131.615L138.287 68.2747ZM124.75 53.8884V44.3232H132.772C136.513 44.3232 138.519 46.0589 138.519 49.1058C138.519 52.1528 136.513 53.8884 132.772 53.8884H124.75ZM167.164 48.3344C165.815 43.1662 162.266 40.1578 156.211 40.1578C150.503 40.1578 146.144 43.2047 146.144 47.9487C146.144 53.0399 149.808 54.4669 153.395 55.354L158.409 56.5882C161.341 57.2825 163.5 58.0153 163.5 60.9465C163.5 63.7621 160.916 65.4977 157.214 65.4977C153.395 65.4977 150.001 63.9935 149.423 59.4038L145.219 59.828C146.183 65.7291 150.425 68.8918 157.136 68.8918C162.999 68.8918 167.82 66.1919 167.82 60.8308C167.82 54.814 163.809 53.6955 159.605 52.6542L154.861 51.5742C152.392 50.9957 150.464 50.1858 150.464 47.833C150.464 45.3646 152.662 43.5519 156.172 43.5519C159.643 43.5519 162.189 45.2489 162.922 48.6816L167.164 48.3344ZM193.905 40.7363H189.315L181.215 63.4535H181.061L172.962 40.7363H168.333L178.824 68.2747H183.452L193.905 40.7363ZM197.043 40.7363V68.2747H201.286V57.8224H209C215.132 57.8224 218.488 54.4669 218.488 49.2987C218.488 44.1304 215.132 40.7363 209 40.7363H197.043ZM201.286 54.2741V44.3232H208.383C212.124 44.3232 214.168 46.136 214.168 49.2987C214.168 52.4613 212.124 54.2741 208.383 54.2741H201.286Z" fill="black"/>
<path d="M93.758 104H98.1554V103.237H94.7279L94.935 103.379V102.988L94.7232 103.379L96.4793 101.566C96.8905 101.142 97.2091 100.786 97.4351 100.497C97.6611 100.205 97.818 99.94 97.9059 99.7015C97.9969 99.4629 98.0424 99.215 98.0424 98.9576V98.9482C98.0424 98.5809 97.9498 98.2545 97.7646 97.9689C97.5826 97.6832 97.3331 97.4588 97.016 97.2956C96.699 97.1293 96.3428 97.0461 95.9473 97.0461C95.5141 97.0461 95.1296 97.1355 94.7938 97.3144C94.458 97.4902 94.1943 97.735 94.0028 98.0489C93.8114 98.3596 93.7141 98.7159 93.7109 99.1177L93.7203 99.1224L94.5301 99.1271L94.5349 99.1177C94.5349 98.8509 94.5914 98.6186 94.7043 98.4209C94.8173 98.22 94.9759 98.0646 95.1799 97.9547C95.3839 97.8418 95.6209 97.7853 95.8908 97.7853C96.1576 97.7853 96.3867 97.8402 96.5782 97.95C96.7697 98.0599 96.9172 98.209 97.0208 98.3973C97.1243 98.5856 97.1761 98.7991 97.1761 99.0376V99.047C97.1761 99.2448 97.1432 99.4268 97.0773 99.5932C97.0113 99.7595 96.8968 99.9463 96.7336 100.153C96.5703 100.357 96.3444 100.616 96.0556 100.93L93.758 103.416V104ZM102.539 104.16C103.185 104.16 103.741 104.014 104.205 103.722C104.673 103.43 105.031 103.019 105.279 102.489C105.53 101.955 105.655 101.327 105.655 100.605V100.596C105.655 99.871 105.53 99.2432 105.279 98.7128C105.028 98.1792 104.668 97.768 104.201 97.4792C103.736 97.1905 103.182 97.0461 102.539 97.0461C101.898 97.0461 101.344 97.1905 100.877 97.4792C100.412 97.768 100.053 98.1776 99.7986 98.708C99.5475 99.2385 99.4219 99.8678 99.4219 100.596V100.605C99.4219 101.327 99.5459 101.955 99.7938 102.489C100.045 103.022 100.403 103.435 100.867 103.727C101.332 104.016 101.889 104.16 102.539 104.16ZM102.539 103.379C102.068 103.379 101.665 103.264 101.329 103.035C100.993 102.806 100.735 102.484 100.557 102.07C100.378 101.652 100.288 101.164 100.288 100.605V100.596C100.288 100.031 100.379 99.5414 100.561 99.1271C100.746 98.7128 101.007 98.3926 101.343 98.1666C101.679 97.9406 102.077 97.8276 102.539 97.8276C103.003 97.8276 103.403 97.9406 103.739 98.1666C104.075 98.3926 104.334 98.7128 104.516 99.1271C104.698 99.5414 104.789 100.031 104.789 100.596V100.605C104.789 101.164 104.698 101.652 104.516 102.07C104.334 102.484 104.075 102.806 103.739 103.035C103.403 103.264 103.003 103.379 102.539 103.379ZM104.384 104.767H105.335L103.363 102.056H102.412L104.384 104.767ZM108.72 104.089C109.094 104.089 109.406 104.016 109.657 103.868C109.912 103.721 110.102 103.512 110.227 103.242H110.302V104H111.122V98.9246H110.302V101.928C110.302 102.223 110.251 102.479 110.147 102.696C110.043 102.909 109.89 103.074 109.686 103.19C109.482 103.306 109.231 103.364 108.932 103.364C108.527 103.364 108.236 103.253 108.057 103.03C107.881 102.807 107.793 102.468 107.793 102.013V98.9246H106.974V102.211C106.974 102.61 107.038 102.95 107.167 103.233C107.299 103.512 107.495 103.725 107.755 103.873C108.016 104.017 108.338 104.089 108.72 104.089ZM114.045 104.089C114.275 104.089 114.485 104.058 114.676 103.995C114.868 103.929 115.039 103.834 115.189 103.708C115.343 103.583 115.474 103.43 115.58 103.251H115.656V104H116.475V100.525C116.475 100.174 116.399 99.8725 116.249 99.6214C116.101 99.3672 115.883 99.1726 115.594 99.0376C115.309 98.9027 114.959 98.8352 114.544 98.8352C114.183 98.8352 113.862 98.8917 113.579 99.0047C113.297 99.1145 113.066 99.2699 112.887 99.4708C112.711 99.6685 112.602 99.9008 112.558 100.168L112.553 100.196H113.372L113.377 100.182C113.443 99.984 113.573 99.8317 113.768 99.725C113.962 99.6152 114.212 99.5602 114.516 99.5602C114.896 99.5602 115.18 99.6434 115.368 99.8098C115.56 99.973 115.656 100.212 115.656 100.525V102.107C115.656 102.349 115.593 102.566 115.467 102.757C115.345 102.949 115.175 103.101 114.959 103.214C114.742 103.324 114.494 103.379 114.215 103.379C113.92 103.379 113.675 103.308 113.48 103.167C113.286 103.022 113.189 102.821 113.189 102.564V102.555C113.189 102.303 113.276 102.109 113.452 101.971C113.631 101.833 113.914 101.753 114.3 101.731L116.065 101.618V100.963L114.201 101.076C113.611 101.111 113.154 101.257 112.831 101.514C112.511 101.768 112.35 102.121 112.35 102.573V102.583C112.35 102.89 112.424 103.157 112.572 103.383C112.722 103.609 112.925 103.783 113.179 103.906C113.436 104.028 113.725 104.089 114.045 104.089ZM119.846 104.089C120.201 104.089 120.514 104.011 120.787 103.854C121.061 103.694 121.274 103.473 121.428 103.19H121.503V104H122.322V96.9095H121.503V99.725H121.428C121.29 99.4551 121.078 99.2401 120.792 99.08C120.51 98.9168 120.194 98.8352 119.846 98.8352C119.416 98.8352 119.041 98.9435 118.721 99.16C118.404 99.3766 118.157 99.6811 117.981 100.073C117.806 100.466 117.718 100.927 117.718 101.458V101.467C117.718 101.994 117.806 102.456 117.981 102.851C118.157 103.244 118.405 103.548 118.725 103.765C119.045 103.981 119.419 104.089 119.846 104.089ZM120.034 103.364C119.727 103.364 119.461 103.289 119.238 103.138C119.019 102.985 118.849 102.766 118.73 102.484C118.614 102.198 118.556 101.859 118.556 101.467V101.458C118.556 101.062 118.614 100.723 118.73 100.441C118.849 100.158 119.019 99.9416 119.238 99.7909C119.461 99.6371 119.727 99.5602 120.034 99.5602C120.342 99.5602 120.607 99.6371 120.83 99.7909C121.053 99.9447 121.224 100.163 121.343 100.445C121.462 100.728 121.522 101.065 121.522 101.458V101.467C121.522 101.856 121.462 102.194 121.343 102.479C121.224 102.762 121.053 102.98 120.83 103.134C120.607 103.288 120.342 103.364 120.034 103.364ZM123.895 104H124.714V100.855C124.714 100.607 124.771 100.39 124.884 100.205C125 100.02 125.158 99.8757 125.359 99.7721C125.56 99.6685 125.791 99.6167 126.051 99.6167C126.142 99.6167 126.227 99.6214 126.305 99.6308C126.387 99.6371 126.47 99.6481 126.555 99.6638V98.8681C126.514 98.8618 126.454 98.8556 126.376 98.8493C126.301 98.8399 126.224 98.8352 126.145 98.8352C125.803 98.8352 125.516 98.9089 125.284 99.0565C125.051 99.204 124.887 99.4111 124.789 99.6779H124.714V98.9246H123.895V104ZM128.961 104.089C129.19 104.089 129.4 104.058 129.592 103.995C129.783 103.929 129.954 103.834 130.105 103.708C130.259 103.583 130.389 103.43 130.496 103.251H130.571V104H131.39V100.525C131.39 100.174 131.315 99.8725 131.164 99.6214C131.017 99.3672 130.799 99.1726 130.51 99.0376C130.224 98.9027 129.874 98.8352 129.46 98.8352C129.099 98.8352 128.777 98.8917 128.495 99.0047C128.212 99.1145 127.981 99.2699 127.803 99.4708C127.627 99.6685 127.517 99.9008 127.473 100.168L127.468 100.196H128.288L128.292 100.182C128.358 99.984 128.488 99.8317 128.683 99.725C128.878 99.6152 129.127 99.5602 129.432 99.5602C129.811 99.5602 130.095 99.6434 130.284 99.8098C130.475 99.973 130.571 100.212 130.571 100.525V102.107C130.571 102.349 130.508 102.566 130.383 102.757C130.26 102.949 130.091 103.101 129.874 103.214C129.658 103.324 129.41 103.379 129.13 103.379C128.835 103.379 128.59 103.308 128.396 103.167C128.201 103.022 128.104 102.821 128.104 102.564V102.555C128.104 102.303 128.192 102.109 128.368 101.971C128.546 101.833 128.829 101.753 129.215 101.731L130.981 101.618V100.963L129.116 101.076C128.526 101.111 128.069 101.257 127.746 101.514C127.426 101.768 127.266 102.121 127.266 102.573V102.583C127.266 102.89 127.34 103.157 127.487 103.383C127.638 103.609 127.84 103.783 128.094 103.906C128.352 104.028 128.641 104.089 128.961 104.089ZM132.887 104H133.707V100.996C133.707 100.698 133.76 100.442 133.867 100.229C133.977 100.015 134.13 99.8506 134.328 99.7344C134.526 99.6183 134.76 99.5602 135.03 99.5602C135.434 99.5602 135.733 99.6716 135.924 99.8945C136.119 100.114 136.216 100.453 136.216 100.911V104H137.035V100.714C137.035 100.111 136.881 99.6481 136.574 99.3248C136.269 98.9984 135.832 98.8352 135.26 98.8352C134.887 98.8352 134.579 98.9105 134.337 99.0612C134.096 99.2087 133.911 99.4174 133.782 99.6873H133.707V98.9246H132.887V104ZM140.609 105.789C141.07 105.789 141.47 105.712 141.809 105.558C142.148 105.408 142.409 105.193 142.591 104.913C142.776 104.634 142.869 104.306 142.869 103.929V98.9246H142.049V99.7627H141.993C141.889 99.5712 141.759 99.4064 141.602 99.2683C141.448 99.1302 141.271 99.0235 141.07 98.9482C140.869 98.8728 140.65 98.8352 140.411 98.8352C139.968 98.8352 139.587 98.9419 139.267 99.1553C138.947 99.3656 138.699 99.656 138.523 100.026C138.35 100.394 138.264 100.814 138.264 101.288V101.298C138.264 101.771 138.35 102.192 138.523 102.559C138.696 102.927 138.94 103.215 139.257 103.426C139.578 103.633 139.956 103.736 140.392 103.736C140.624 103.736 140.841 103.703 141.042 103.637C141.243 103.568 141.423 103.468 141.583 103.336C141.743 103.204 141.877 103.046 141.984 102.861H142.059V103.887C142.059 104.261 141.93 104.549 141.673 104.753C141.419 104.96 141.064 105.064 140.609 105.064C140.245 105.064 139.953 105.001 139.733 104.876C139.513 104.753 139.381 104.596 139.338 104.405L139.333 104.4H138.485L138.476 104.405C138.52 104.681 138.631 104.923 138.81 105.13C138.992 105.34 139.236 105.502 139.54 105.615C139.844 105.731 140.201 105.789 140.609 105.789ZM140.571 103.011C140.257 103.011 139.99 102.939 139.771 102.795C139.554 102.647 139.388 102.445 139.272 102.187C139.159 101.93 139.102 101.633 139.102 101.298V101.288C139.102 100.952 139.159 100.654 139.272 100.394C139.388 100.133 139.554 99.929 139.771 99.7815C139.99 99.634 140.257 99.5602 140.571 99.5602C140.885 99.5602 141.153 99.634 141.376 99.7815C141.602 99.929 141.775 100.133 141.894 100.394C142.016 100.654 142.078 100.952 142.078 101.288V101.298C142.078 101.633 142.016 101.93 141.894 102.187C141.775 102.445 141.602 102.647 141.376 102.795C141.153 102.939 140.885 103.011 140.571 103.011ZM146.094 104.089C146.467 104.089 146.78 104.016 147.031 103.868C147.285 103.721 147.475 103.512 147.6 103.242H147.676V104H148.495V98.9246H147.676V101.928C147.676 102.223 147.624 102.479 147.52 102.696C147.417 102.909 147.263 103.074 147.059 103.19C146.855 103.306 146.604 103.364 146.306 103.364C145.901 103.364 145.609 103.253 145.43 103.03C145.254 102.807 145.166 102.468 145.166 102.013V98.9246H144.347V102.211C144.347 102.61 144.411 102.95 144.54 103.233C144.672 103.512 144.868 103.725 145.129 103.873C145.389 104.017 145.711 104.089 146.094 104.089ZM150.072 104H150.891V96.9095H150.072V104ZM153.857 104.089C154.087 104.089 154.297 104.058 154.488 103.995C154.68 103.929 154.851 103.834 155.002 103.708C155.155 103.583 155.286 103.43 155.392 103.251H155.468V104H156.287V100.525C156.287 100.174 156.212 99.8725 156.061 99.6214C155.913 99.3672 155.695 99.1726 155.406 99.0376C155.121 98.9027 154.771 98.8352 154.357 98.8352C153.996 98.8352 153.674 98.8917 153.391 99.0047C153.109 99.1145 152.878 99.2699 152.699 99.4708C152.523 99.6685 152.414 99.9008 152.37 100.168L152.365 100.196H153.184L153.189 100.182C153.255 99.984 153.385 99.8317 153.58 99.725C153.774 99.6152 154.024 99.5602 154.328 99.5602C154.708 99.5602 154.992 99.6434 155.18 99.8098C155.372 99.973 155.468 100.212 155.468 100.525V102.107C155.468 102.349 155.405 102.566 155.279 102.757C155.157 102.949 154.987 103.101 154.771 103.214C154.554 103.324 154.306 103.379 154.027 103.379C153.732 103.379 153.487 103.308 153.292 103.167C153.098 103.022 153.001 102.821 153.001 102.564V102.555C153.001 102.303 153.088 102.109 153.264 101.971C153.443 101.833 153.726 101.753 154.112 101.731L155.877 101.618V100.963L154.013 101.076C153.423 101.111 152.966 101.257 152.643 101.514C152.323 101.768 152.163 102.121 152.163 102.573V102.583C152.163 102.89 152.236 103.157 152.384 103.383C152.534 103.609 152.737 103.783 152.991 103.906C153.249 104.028 153.537 104.089 153.857 104.089ZM157.784 104H158.603V100.855C158.603 100.607 158.66 100.39 158.773 100.205C158.889 100.02 159.047 99.8757 159.248 99.7721C159.449 99.6685 159.68 99.6167 159.94 99.6167C160.031 99.6167 160.116 99.6214 160.195 99.6308C160.276 99.6371 160.359 99.6481 160.444 99.6638V98.8681C160.403 98.8618 160.344 98.8556 160.265 98.8493C160.19 98.8399 160.113 98.8352 160.035 98.8352C159.692 98.8352 159.405 98.9089 159.173 99.0565C158.941 99.204 158.776 99.4111 158.679 99.6779H158.603V98.9246H157.784V104ZM167.007 104.16C167.491 104.16 167.924 104.075 168.307 103.906C168.693 103.736 169.011 103.499 169.262 103.195C169.514 102.887 169.677 102.526 169.752 102.112V102.103H168.895L168.886 102.112C168.817 102.373 168.694 102.599 168.519 102.79C168.343 102.978 168.126 103.124 167.869 103.228C167.611 103.328 167.324 103.379 167.007 103.379C166.571 103.379 166.193 103.266 165.873 103.04C165.556 102.814 165.311 102.493 165.138 102.079C164.966 101.665 164.879 101.175 164.879 100.61V100.601C164.879 100.033 164.966 99.5414 165.138 99.1271C165.311 98.7128 165.556 98.3926 165.873 98.1666C166.193 97.9406 166.569 97.8276 167.003 97.8276C167.316 97.8276 167.601 97.8857 167.855 98.0018C168.112 98.118 168.33 98.2827 168.509 98.4962C168.688 98.7065 168.815 98.9576 168.891 99.2495L168.895 99.2589H169.747L169.752 99.2495C169.686 98.8163 169.526 98.435 169.272 98.1054C169.018 97.7727 168.694 97.5137 168.302 97.3286C167.913 97.1402 167.48 97.0461 167.003 97.0461C166.387 97.0461 165.855 97.1905 165.407 97.4792C164.961 97.768 164.616 98.1776 164.371 98.708C164.129 99.2385 164.008 99.8694 164.008 100.601V100.61C164.008 101.338 164.129 101.968 164.371 102.498C164.616 103.029 164.962 103.438 165.411 103.727C165.86 104.016 166.392 104.16 167.007 104.16ZM171.117 104H171.937V100.996C171.937 100.698 171.99 100.442 172.097 100.229C172.207 100.015 172.36 99.8506 172.558 99.7344C172.756 99.6183 172.99 99.5602 173.26 99.5602C173.665 99.5602 173.963 99.6716 174.154 99.8945C174.349 100.114 174.446 100.453 174.446 100.911V104H175.265V100.714C175.265 100.312 175.196 99.9714 175.058 99.6921C174.92 99.4127 174.719 99.2008 174.456 99.0565C174.192 98.9089 173.87 98.8352 173.49 98.8352C173.117 98.8352 172.809 98.9105 172.568 99.0612C172.326 99.2087 172.141 99.4174 172.012 99.6873H171.937V96.9095H171.117V104ZM178.448 104.089C178.822 104.089 179.134 104.016 179.385 103.868C179.639 103.721 179.829 103.512 179.955 103.242H180.03V104H180.849V98.9246H180.03V101.928C180.03 102.223 179.978 102.479 179.875 102.696C179.771 102.909 179.617 103.074 179.413 103.19C179.209 103.306 178.958 103.364 178.66 103.364C178.255 103.364 177.963 103.253 177.784 103.03C177.608 102.807 177.521 102.468 177.521 102.013V98.9246H176.701V102.211C176.701 102.61 176.766 102.95 176.894 103.233C177.026 103.512 177.222 103.725 177.483 103.873C177.743 104.017 178.065 104.089 178.448 104.089ZM182.379 104H183.199V100.855C183.199 100.607 183.255 100.39 183.368 100.205C183.484 100.02 183.643 99.8757 183.844 99.7721C184.044 99.6685 184.275 99.6167 184.536 99.6167C184.627 99.6167 184.711 99.6214 184.79 99.6308C184.872 99.6371 184.955 99.6481 185.039 99.6638V98.8681C184.999 98.8618 184.939 98.8556 184.861 98.8493C184.785 98.8399 184.708 98.8352 184.63 98.8352C184.288 98.8352 184.001 98.9089 183.768 99.0565C183.536 99.204 183.371 99.4111 183.274 99.6779H183.199V98.9246H182.379V104ZM187.987 104.089C188.395 104.089 188.743 104.022 189.032 103.887C189.321 103.752 189.553 103.567 189.729 103.331C189.905 103.093 190.027 102.821 190.096 102.517L190.105 102.465L189.296 102.47L189.286 102.498C189.192 102.781 189.037 102.996 188.82 103.143C188.604 103.291 188.324 103.364 187.982 103.364C187.681 103.364 187.419 103.286 187.196 103.129C186.973 102.972 186.8 102.751 186.678 102.465C186.555 102.176 186.494 101.837 186.494 101.448V101.439C186.494 101.056 186.554 100.725 186.673 100.445C186.796 100.163 186.968 99.9447 187.191 99.7909C187.414 99.6371 187.678 99.5602 187.982 99.5602C188.346 99.5602 188.64 99.6481 188.862 99.8239C189.085 99.9996 189.228 100.213 189.291 100.464L189.296 100.478H190.11L190.105 100.45C190.055 100.149 189.941 99.8772 189.762 99.6356C189.583 99.3907 189.344 99.1961 189.046 99.0517C188.748 98.9074 188.393 98.8352 187.982 98.8352C187.508 98.8352 187.097 98.9435 186.749 99.16C186.4 99.3735 186.13 99.6748 185.939 100.064C185.75 100.453 185.656 100.911 185.656 101.439V101.448C185.656 101.985 185.752 102.451 185.943 102.847C186.135 103.242 186.405 103.548 186.753 103.765C187.102 103.981 187.513 104.089 187.987 104.089ZM191.353 104H192.172V100.996C192.172 100.698 192.226 100.442 192.332 100.229C192.442 100.015 192.596 99.8506 192.794 99.7344C192.992 99.6183 193.225 99.5602 193.495 99.5602C193.9 99.5602 194.198 99.6716 194.39 99.8945C194.584 100.114 194.682 100.453 194.682 100.911V104H195.501V100.714C195.501 100.312 195.432 99.9714 195.294 99.6921C195.156 99.4127 194.955 99.2008 194.691 99.0565C194.428 98.9089 194.106 98.8352 193.726 98.8352C193.352 98.8352 193.045 98.9105 192.803 99.0612C192.562 99.2087 192.376 99.4174 192.248 99.6873H192.172V96.9095H191.353V104ZM199.625 101.646H202.789V100.883H199.625V101.646ZM207.059 104H207.85V98.8116H208.265L207.318 97.3945L210.049 104H210.765L213.5 97.3945L212.549 98.8116H212.963V104H213.754V97.2062H212.77L210.445 102.875H210.369L208.043 97.2062H207.059V104ZM215.402 104H216.221V98.9246H215.402V104ZM215.817 97.9453C215.974 97.9453 216.107 97.8904 216.217 97.7805C216.327 97.6675 216.382 97.5342 216.382 97.3804C216.382 97.2234 216.327 97.09 216.217 96.9802C216.107 96.8703 215.974 96.8154 215.817 96.8154C215.663 96.8154 215.529 96.8703 215.416 96.9802C215.307 97.09 215.252 97.2234 215.252 97.3804C215.252 97.5342 215.307 97.6675 215.416 97.7805C215.529 97.8904 215.663 97.9453 215.817 97.9453ZM217.766 104H218.585V100.855C218.585 100.607 218.641 100.39 218.754 100.205C218.871 100.02 219.029 99.8757 219.23 99.7721C219.431 99.6685 219.662 99.6167 219.922 99.6167C220.013 99.6167 220.098 99.6214 220.176 99.6308C220.258 99.6371 220.341 99.6481 220.426 99.6638V98.8681C220.385 98.8618 220.325 98.8556 220.247 98.8493C220.172 98.8399 220.095 98.8352 220.016 98.8352C219.674 98.8352 219.387 98.9089 219.155 99.0565C218.922 99.204 218.758 99.4111 218.66 99.6779H218.585V98.9246H217.766V104ZM222.832 104.089C223.061 104.089 223.271 104.058 223.463 103.995C223.654 103.929 223.825 103.834 223.976 103.708C224.13 103.583 224.26 103.43 224.367 103.251H224.442V104H225.261V100.525C225.261 100.174 225.186 99.8725 225.035 99.6214C224.888 99.3672 224.669 99.1726 224.381 99.0376C224.095 98.9027 223.745 98.8352 223.331 98.8352C222.97 98.8352 222.648 98.8917 222.366 99.0047C222.083 99.1145 221.852 99.2699 221.674 99.4708C221.498 99.6685 221.388 99.9008 221.344 100.168L221.339 100.196H222.158L222.163 100.182C222.229 99.984 222.359 99.8317 222.554 99.725C222.749 99.6152 222.998 99.5602 223.303 99.5602C223.682 99.5602 223.966 99.6434 224.155 99.8098C224.346 99.973 224.442 100.212 224.442 100.525V102.107C224.442 102.349 224.379 102.566 224.254 102.757C224.131 102.949 223.962 103.101 223.745 103.214C223.529 103.324 223.281 103.379 223.001 103.379C222.706 103.379 222.461 103.308 222.267 103.167C222.072 103.022 221.975 102.821 221.975 102.564V102.555C221.975 102.303 222.063 102.109 222.238 101.971C222.417 101.833 222.7 101.753 223.086 101.731L224.852 101.618V100.963L222.987 101.076C222.397 101.111 221.94 101.257 221.617 101.514C221.297 101.768 221.137 102.121 221.137 102.573V102.583C221.137 102.89 221.211 103.157 221.358 103.383C221.509 103.609 221.711 103.783 221.965 103.906C222.223 104.028 222.512 104.089 222.832 104.089ZM228.5 104.089C228.886 104.089 229.232 104.025 229.536 103.896C229.844 103.768 230.087 103.589 230.266 103.36C230.445 103.127 230.534 102.861 230.534 102.559V102.55C230.534 102.186 230.417 101.895 230.181 101.679C229.949 101.462 229.594 101.296 229.117 101.18L228.336 100.991C228.037 100.919 227.821 100.827 227.686 100.714C227.551 100.601 227.483 100.458 227.483 100.285V100.276C227.483 100.125 227.529 99.9934 227.62 99.8804C227.711 99.7674 227.835 99.6795 227.992 99.6167C228.149 99.5508 228.328 99.5178 228.529 99.5178C228.836 99.5178 229.086 99.5806 229.277 99.7062C229.469 99.8317 229.591 99.9949 229.644 100.196H230.449C230.412 99.9196 230.308 99.6795 230.139 99.4755C229.972 99.2715 229.751 99.1145 229.475 99.0047C229.202 98.8917 228.888 98.8352 228.533 98.8352C228.175 98.8352 227.854 98.8995 227.568 99.0282C227.282 99.1569 227.056 99.3327 226.89 99.5555C226.727 99.7784 226.645 100.031 226.645 100.314V100.318C226.645 100.682 226.757 100.974 226.98 101.194C227.202 101.411 227.551 101.575 228.025 101.688L228.811 101.877C229.125 101.952 229.351 102.051 229.489 102.173C229.627 102.293 229.696 102.438 229.696 102.611V102.621C229.696 102.774 229.646 102.911 229.546 103.03C229.445 103.146 229.307 103.239 229.131 103.308C228.959 103.374 228.758 103.407 228.529 103.407C228.205 103.407 227.943 103.342 227.742 103.214C227.541 103.085 227.406 102.916 227.337 102.705H226.499C226.531 102.985 226.633 103.228 226.805 103.435C226.981 103.642 227.213 103.804 227.502 103.92C227.791 104.033 228.124 104.089 228.5 104.089ZM233.453 104.089C233.839 104.089 234.185 104.025 234.489 103.896C234.797 103.768 235.04 103.589 235.219 103.36C235.398 103.127 235.487 102.861 235.487 102.559V102.55C235.487 102.186 235.37 101.895 235.134 101.679C234.902 101.462 234.547 101.296 234.07 101.18L233.289 100.991C232.99 100.919 232.774 100.827 232.639 100.714C232.504 100.601 232.436 100.458 232.436 100.285V100.276C232.436 100.125 232.482 99.9934 232.573 99.8804C232.664 99.7674 232.788 99.6795 232.945 99.6167C233.102 99.5508 233.281 99.5178 233.482 99.5178C233.789 99.5178 234.039 99.5806 234.23 99.7062C234.422 99.8317 234.544 99.9949 234.597 100.196H235.402C235.365 99.9196 235.261 99.6795 235.092 99.4755C234.925 99.2715 234.704 99.1145 234.428 99.0047C234.155 98.8917 233.841 98.8352 233.486 98.8352C233.128 98.8352 232.807 98.8995 232.521 99.0282C232.235 99.1569 232.009 99.3327 231.843 99.5555C231.68 99.7784 231.598 100.031 231.598 100.314V100.318C231.598 100.682 231.71 100.974 231.933 101.194C232.155 101.411 232.504 101.575 232.978 101.688L233.764 101.877C234.078 101.952 234.304 102.051 234.442 102.173C234.58 102.293 234.649 102.438 234.649 102.611V102.621C234.649 102.774 234.599 102.911 234.499 103.03C234.398 103.146 234.26 103.239 234.084 103.308C233.912 103.374 233.711 103.407 233.482 103.407C233.158 103.407 232.896 103.342 232.695 103.214C232.494 103.085 232.359 102.916 232.29 102.705H231.452C231.484 102.985 231.586 103.228 231.758 103.435C231.934 103.642 232.166 103.804 232.455 103.92C232.744 104.033 233.077 104.089 233.453 104.089ZM238.844 104.089C239.327 104.089 239.743 103.984 240.092 103.774C240.44 103.561 240.709 103.258 240.897 102.865C241.088 102.473 241.184 102.007 241.184 101.467V101.458C241.184 100.915 241.088 100.447 240.897 100.055C240.709 99.6622 240.44 99.3609 240.092 99.1506C239.743 98.9403 239.327 98.8352 238.844 98.8352C238.364 98.8352 237.948 98.9403 237.596 99.1506C237.248 99.3609 236.978 99.6622 236.787 100.055C236.598 100.447 236.504 100.915 236.504 101.458V101.467C236.504 102.007 236.598 102.473 236.787 102.865C236.978 103.258 237.248 103.561 237.596 103.774C237.948 103.984 238.364 104.089 238.844 104.089ZM238.844 103.364C238.524 103.364 238.252 103.289 238.03 103.138C237.807 102.988 237.636 102.771 237.516 102.489C237.4 102.206 237.342 101.866 237.342 101.467V101.458C237.342 101.056 237.4 100.714 237.516 100.431C237.636 100.149 237.807 99.9337 238.03 99.7862C238.252 99.6356 238.524 99.5602 238.844 99.5602C239.164 99.5602 239.436 99.6356 239.659 99.7862C239.881 99.9337 240.051 100.149 240.167 100.431C240.286 100.714 240.346 101.056 240.346 101.458V101.467C240.346 101.866 240.286 102.206 240.167 102.489C240.051 102.771 239.881 102.988 239.659 103.138C239.436 103.289 239.164 103.364 238.844 103.364ZM242.502 104H243.322V96.9095H242.502V104Z" fill="#3E3E3E"/>
</svg>
