<svg width="284" height="20" viewBox="0 0 284 20" fill="none" xmlns="http://www.w3.org/2000/svg">
<path d="M6.65039 19.332C7.82227 19.332 8.83138 19.1497 9.67773 18.7852C10.5306 18.4141 11.1849 17.89 11.6406 17.2129C12.0964 16.5358 12.3242 15.735 12.3242 14.8105V14.8008C12.3242 13.7005 11.9824 12.8346 11.2988 12.2031C10.6217 11.5651 9.53776 11.0964 8.04688 10.7969L6.5625 10.4941C5.73568 10.3249 5.13672 10.097 4.76562 9.81055C4.39453 9.52409 4.20898 9.15625 4.20898 8.70703V8.69727C4.20898 8.3457 4.3099 8.04297 4.51172 7.78906C4.71354 7.52865 4.99349 7.32682 5.35156 7.18359C5.71615 7.04036 6.14258 6.96875 6.63086 6.96875C7.12565 6.96875 7.55859 7.04362 7.92969 7.19336C8.30729 7.33659 8.61003 7.53516 8.83789 7.78906C9.06576 8.04297 9.20573 8.34245 9.25781 8.6875L9.27734 8.80469H12.0508L12.041 8.67773C11.9824 7.87695 11.7318 7.17057 11.2891 6.55859C10.8529 5.9401 10.2409 5.45508 9.45312 5.10352C8.66536 4.75195 7.72461 4.57617 6.63086 4.57617C5.58919 4.57617 4.66471 4.75521 3.85742 5.11328C3.05013 5.47135 2.41536 5.97591 1.95312 6.62695C1.4974 7.27799 1.26628 8.03646 1.25977 8.90234V8.91211C1.25977 9.97982 1.59505 10.8555 2.26562 11.5391C2.94271 12.2161 4.00391 12.7012 5.44922 12.9941L6.94336 13.2969C7.81576 13.4792 8.4375 13.7103 8.80859 13.9902C9.1862 14.2637 9.375 14.6315 9.375 15.0938V15.1035C9.375 15.4616 9.26432 15.7806 9.04297 16.0605C8.82161 16.334 8.51237 16.5488 8.11523 16.7051C7.7181 16.8613 7.2526 16.9395 6.71875 16.9395C6.17839 16.9395 5.69661 16.8646 5.27344 16.7148C4.85026 16.5651 4.51172 16.3568 4.25781 16.0898C4.00391 15.8229 3.85417 15.5137 3.80859 15.1621L3.79883 15.0645H0.966797L0.976562 15.2207C1.03516 16.0605 1.29883 16.7897 1.76758 17.4082C2.24284 18.0202 2.89388 18.4954 3.7207 18.834C4.54753 19.166 5.52409 19.332 6.65039 19.332ZM13.8184 19H16.9238L20.3809 7.70117H21.25V4.9082H18.7207L13.8184 19ZM16.4453 15.582H24.4238L23.7012 13.375H17.168L16.4453 15.582ZM23.9941 19H27.0898L22.1875 4.9082H20.5273V7.70117L23.9941 19ZM21.2695 3.56055L23.5645 0.289062H20.9473L19.3164 3.56055H21.2695ZM30.752 19H35.5859C36.5885 19 37.4512 18.8372 38.1738 18.5117C38.903 18.1797 39.4661 17.7142 39.8633 17.1152C40.2604 16.5163 40.459 15.8066 40.459 14.9863V14.9668C40.459 14.3613 40.319 13.8145 40.0391 13.3262C39.7591 12.8314 39.3717 12.4342 38.877 12.1348C38.3887 11.8288 37.8288 11.653 37.1973 11.6074V11.4609C37.6855 11.3828 38.125 11.2005 38.5156 10.9141C38.9062 10.6276 39.2155 10.2695 39.4434 9.83984C39.6712 9.41016 39.7852 8.94466 39.7852 8.44336V8.42383C39.7852 7.70117 39.6094 7.07617 39.2578 6.54883C38.9128 6.02148 38.4147 5.61784 37.7637 5.33789C37.1191 5.05143 36.3411 4.9082 35.4297 4.9082H30.752V7.0957H34.6777C35.3743 7.0957 35.9147 7.25521 36.2988 7.57422C36.6895 7.89323 36.8848 8.33919 36.8848 8.91211V8.93164C36.8848 9.51758 36.6732 9.97331 36.25 10.2988C35.8268 10.6178 35.2116 10.7773 34.4043 10.7773H30.752V12.7305H34.7461C35.332 12.7305 35.8236 12.8086 36.2207 12.9648C36.6243 13.1146 36.9271 13.3392 37.1289 13.6387C37.3372 13.9382 37.4414 14.306 37.4414 14.7422V14.7617C37.4414 15.4258 37.2168 15.9336 36.7676 16.2852C36.3249 16.6302 35.6771 16.8027 34.8242 16.8027H30.752V19ZM29.2773 19H32.2266V4.9082H29.2773V19Z" fill="white"/>
<path d="M61.7852 19H64.7344V4.9082H61.7949L58.1523 7.4375V10.084L61.6387 7.67188H61.7852V19ZM68.4258 19H78.6016V16.6367H71.4824L72.3516 17.252V15.7969L71.4824 17.252L75.0371 13.9414C75.8835 13.1602 76.5508 12.4798 77.0391 11.9004C77.5339 11.3145 77.8822 10.7708 78.084 10.2695C78.2923 9.76172 78.3965 9.23763 78.3965 8.69727V8.66797C78.3965 7.86068 78.1849 7.15104 77.7617 6.53906C77.3451 5.92057 76.7656 5.4388 76.0234 5.09375C75.2812 4.7487 74.4219 4.57617 73.4453 4.57617C72.4297 4.57617 71.5312 4.76823 70.75 5.15234C69.9688 5.53646 69.3568 6.07031 68.9141 6.75391C68.4779 7.4375 68.2565 8.22852 68.25 9.12695L68.2598 9.17578H70.9844L70.9941 9.11719C70.9941 8.67448 71.0918 8.28711 71.2871 7.95508C71.4889 7.61654 71.7656 7.35286 72.1172 7.16406C72.4753 6.96875 72.8854 6.87109 73.3477 6.87109C73.7904 6.87109 74.1712 6.95898 74.4902 7.13477C74.8158 7.30404 75.0664 7.54167 75.2422 7.84766C75.418 8.14714 75.5059 8.49544 75.5059 8.89258V8.92188C75.5059 9.25391 75.4375 9.57292 75.3008 9.87891C75.1641 10.1849 74.9199 10.5397 74.5684 10.9434C74.2168 11.347 73.7155 11.8613 73.0645 12.4863L68.4258 17.0078V19ZM86.2383 19H91.7461C93.1523 19 94.3503 18.7233 95.3398 18.1699C96.3294 17.61 97.0814 16.7995 97.5957 15.7383C98.1165 14.6771 98.377 13.3913 98.377 11.8809V11.8613C98.377 10.3835 98.1165 9.12695 97.5957 8.0918C97.0749 7.05664 96.3197 6.26888 95.3301 5.72852C94.3405 5.18164 93.1458 4.9082 91.7461 4.9082H86.2383V19ZM89.1875 16.5684V7.33984H91.3066C92.1595 7.33984 92.8887 7.51888 93.4941 7.87695C94.1061 8.22852 94.5716 8.74609 94.8906 9.42969C95.2096 10.1068 95.3691 10.9303 95.3691 11.9004V11.9199C95.3691 12.9225 95.2129 13.7721 94.9004 14.4688C94.5879 15.1589 94.1289 15.6829 93.5234 16.041C92.918 16.3926 92.179 16.5684 91.3066 16.5684H89.1875ZM100.965 19H110.301V16.5684H103.914V13.0137H109.939V10.7383H103.914V7.33984H110.301V4.9082H100.965V19ZM118.055 19H120.906V9.9375H122.322L120.154 8.69727L127.527 19H129.998V4.9082H127.146V13.9316H125.73L127.898 15.1621L120.545 4.9082H118.055V19ZM139.373 19.332C140.766 19.332 141.971 19.0326 142.986 18.4336C144.002 17.8346 144.783 16.985 145.33 15.8848C145.883 14.778 146.16 13.4694 146.16 11.959V11.9395C146.16 10.429 145.883 9.1237 145.33 8.02344C144.777 6.91667 143.992 6.06706 142.977 5.47461C141.961 4.87565 140.76 4.57617 139.373 4.57617C137.993 4.57617 136.795 4.87565 135.779 5.47461C134.764 6.06706 133.976 6.91341 133.416 8.01367C132.863 9.11393 132.586 10.4225 132.586 11.9395V11.959C132.586 13.4694 132.859 14.778 133.406 15.8848C133.96 16.985 134.744 17.8346 135.76 18.4336C136.775 19.0326 137.98 19.332 139.373 19.332ZM139.373 16.832C138.605 16.832 137.938 16.6335 137.371 16.2363C136.805 15.8327 136.365 15.2663 136.053 14.5371C135.747 13.8079 135.594 12.9486 135.594 11.959V11.9395C135.594 10.9434 135.75 10.084 136.062 9.36133C136.375 8.63216 136.814 8.06901 137.381 7.67188C137.947 7.27474 138.611 7.07617 139.373 7.07617C140.141 7.07617 140.809 7.27474 141.375 7.67188C141.941 8.06901 142.378 8.63216 142.684 9.36133C142.996 10.0905 143.152 10.9499 143.152 11.9395V11.959C143.152 12.9421 142.996 13.8014 142.684 14.5371C142.378 15.2663 141.941 15.8327 141.375 16.2363C140.809 16.6335 140.141 16.832 139.373 16.832ZM152.01 19H155.633L160.33 4.9082H157.029L153.895 15.7871H153.748L150.604 4.9082H147.303L152.01 19ZM162.508 19H171.844V16.5684H165.457V13.0137H171.482V10.7383H165.457V7.33984H171.844V4.9082H162.508V19ZM174.715 19H177.342V9.42969H178.768L175.936 5.29883L181.17 19H183.016L188.25 5.29883L185.408 9.42969H186.844V19H189.471V4.9082H186.082L182.166 15.1816H182.02L178.094 4.9082H174.715V19ZM194.119 19H198.953C199.956 19 200.818 18.8372 201.541 18.5117C202.27 18.1797 202.833 17.7142 203.23 17.1152C203.628 16.5163 203.826 15.8066 203.826 14.9863V14.9668C203.826 14.3613 203.686 13.8145 203.406 13.3262C203.126 12.8314 202.739 12.4342 202.244 12.1348C201.756 11.8288 201.196 11.653 200.564 11.6074V11.4609C201.053 11.3828 201.492 11.2005 201.883 10.9141C202.273 10.6276 202.583 10.2695 202.811 9.83984C203.038 9.41016 203.152 8.94466 203.152 8.44336V8.42383C203.152 7.70117 202.977 7.07617 202.625 6.54883C202.28 6.02148 201.782 5.61784 201.131 5.33789C200.486 5.05143 199.708 4.9082 198.797 4.9082H194.119V7.0957H198.045C198.742 7.0957 199.282 7.25521 199.666 7.57422C200.057 7.89323 200.252 8.33919 200.252 8.91211V8.93164C200.252 9.51758 200.04 9.97331 199.617 10.2988C199.194 10.6178 198.579 10.7773 197.771 10.7773H194.119V12.7305H198.113C198.699 12.7305 199.191 12.8086 199.588 12.9648C199.992 13.1146 200.294 13.3392 200.496 13.6387C200.704 13.9382 200.809 14.306 200.809 14.7422V14.7617C200.809 15.4258 200.584 15.9336 200.135 16.2852C199.692 16.6302 199.044 16.8027 198.191 16.8027H194.119V19ZM192.645 19H195.594V4.9082H192.645V19ZM206.258 19H209.207V13.8633H211.463C211.489 13.8633 211.515 13.8633 211.541 13.8633C211.567 13.8633 211.59 13.8633 211.609 13.8633L214.227 19H217.576L214.607 13.4141C215.408 13.1016 216.033 12.5872 216.482 11.8711C216.932 11.1484 217.156 10.3314 217.156 9.41992V9.40039C217.156 8.4694 216.958 7.66862 216.561 6.99805C216.163 6.32747 215.587 5.81315 214.832 5.45508C214.083 5.09049 213.175 4.9082 212.107 4.9082H206.258V19ZM209.207 11.6953V7.21289H211.756C212.492 7.21289 213.071 7.41471 213.494 7.81836C213.924 8.22201 214.139 8.76237 214.139 9.43945V9.45898C214.139 10.1556 213.93 10.7025 213.514 11.0996C213.104 11.4967 212.531 11.6953 211.795 11.6953H209.207ZM226.092 19.332C227.485 19.332 228.689 19.0326 229.705 18.4336C230.721 17.8346 231.502 16.985 232.049 15.8848C232.602 14.778 232.879 13.4694 232.879 11.959V11.9395C232.879 10.429 232.602 9.1237 232.049 8.02344C231.495 6.91667 230.711 6.06706 229.695 5.47461C228.68 4.87565 227.479 4.57617 226.092 4.57617C224.712 4.57617 223.514 4.87565 222.498 5.47461C221.482 6.06706 220.695 6.91341 220.135 8.01367C219.581 9.11393 219.305 10.4225 219.305 11.9395V11.959C219.305 13.4694 219.578 14.778 220.125 15.8848C220.678 16.985 221.463 17.8346 222.479 18.4336C223.494 19.0326 224.699 19.332 226.092 19.332ZM226.092 16.832C225.324 16.832 224.656 16.6335 224.09 16.2363C223.523 15.8327 223.084 15.2663 222.771 14.5371C222.465 13.8079 222.312 12.9486 222.312 11.959V11.9395C222.312 10.9434 222.469 10.084 222.781 9.36133C223.094 8.63216 223.533 8.06901 224.1 7.67188C224.666 7.27474 225.33 7.07617 226.092 7.07617C226.86 7.07617 227.527 7.27474 228.094 7.67188C228.66 8.06901 229.096 8.63216 229.402 9.36133C229.715 10.0905 229.871 10.9499 229.871 11.9395V11.959C229.871 12.9421 229.715 13.8014 229.402 14.5371C229.096 15.2663 228.66 15.8327 228.094 16.2363C227.527 16.6335 226.86 16.832 226.092 16.832Z" fill="white"/>
<path d="M252.785 19H255.734V4.9082H252.795L249.152 7.4375V10.084L252.639 7.67188H252.785V19ZM260.07 19H263.156L269.045 7.28125V4.9082H258.967V7.25195H266.096V7.38867L260.07 19ZM271.613 19H274.562V13.0625H280.91V19H283.859V4.9082H280.91V10.6309H274.562V4.9082H271.613V19Z" fill="white"/>
<circle cx="51" cy="12" r="2" fill="white"/>
<circle cx="239" cy="14" r="2" fill="white"/>
</svg>
