<svg width="875" height="184" viewBox="0 0 875 184" fill="none" xmlns="http://www.w3.org/2000/svg">
<path d="M18.75 59.75C22.5208 59.75 25.7708 59.0521 28.5 57.6562C31.2292 56.2604 33.3229 54.3229 34.7812 51.8438C36.2604 49.3438 37 46.4479 37 43.1562V13.9062H29.9688V42.5938C29.9688 45.8438 29 48.4792 27.0625 50.5C25.125 52.5208 22.3542 53.5312 18.75 53.5312C15.1667 53.5312 12.3854 52.5208 10.4062 50.5C8.44792 48.4792 7.46875 45.8438 7.46875 42.5938V13.9062H0.46875V43.1562C0.46875 46.4479 1.20833 49.3438 2.6875 51.8438C4.16667 54.3438 6.27083 56.2917 9 57.6875C11.7292 59.0625 14.9792 59.75 18.75 59.75ZM45.2812 59H51.6875V25.75H54.9062L47.5938 15.1562L65.4688 59H70.6562L88.5625 15.1562L81.25 25.75H84.4688V59H90.875V13.9062H82.75L68.1562 49.875H67.9688L53.375 13.9062H45.2812V59ZM95.875 59H103.25L116 21.375H117.969V13.9062H112.281L95.875 59ZM103.844 46.8125H128.281L126.25 41.1875H105.875L103.844 46.8125ZM128.875 59H136.25L119.875 13.9062H116.156V21.375L128.875 59ZM173.438 59.75C176.771 59.75 179.771 59.125 182.438 57.875C185.104 56.625 187.292 54.875 189 52.625C190.729 50.3542 191.823 47.7188 192.281 44.7188L192.344 44.4062H185.375L185.281 44.7188C184.74 46.6146 183.917 48.2188 182.812 49.5312C181.708 50.8438 180.365 51.8438 178.781 52.5312C177.219 53.1979 175.438 53.5312 173.438 53.5312C170.667 53.5312 168.25 52.8333 166.188 51.4375C164.125 50.0417 162.531 48.0625 161.406 45.5C160.281 42.9167 159.719 39.8958 159.719 36.4375V36.4062C159.719 32.9271 160.281 29.9167 161.406 27.375C162.531 24.8333 164.115 22.8646 166.156 21.4688C168.219 20.0729 170.646 19.375 173.438 19.375C175.479 19.375 177.281 19.7188 178.844 20.4062C180.427 21.0729 181.75 22.0417 182.812 23.3125C183.896 24.5833 184.677 26.1042 185.156 27.875L185.344 28.5H192.312L192.281 28.1875C191.823 25.2083 190.729 22.5938 189 20.3438C187.271 18.0938 185.073 16.3333 182.406 15.0625C179.74 13.7917 176.75 13.1562 173.438 13.1562C169.167 13.1562 165.469 14.1042 162.344 16C159.219 17.875 156.802 20.5521 155.094 24.0312C153.385 27.5104 152.531 31.6354 152.531 36.4062V36.4375C152.531 41.2083 153.385 45.3438 155.094 48.8438C156.802 52.3229 159.219 55.0104 162.344 56.9062C165.49 58.8021 169.188 59.75 173.438 59.75ZM218.25 59.75C222.583 59.75 226.323 58.8021 229.469 56.9062C232.635 55.0104 235.073 52.3229 236.781 48.8438C238.49 45.3646 239.344 41.2396 239.344 36.4688V36.4062C239.344 31.6354 238.49 27.5208 236.781 24.0625C235.073 20.5833 232.635 17.8958 229.469 16C226.302 14.1042 222.562 13.1562 218.25 13.1562C213.917 13.1562 210.167 14.1042 207 16C203.833 17.875 201.385 20.5521 199.656 24.0312C197.948 27.5104 197.094 31.6354 197.094 36.4062V36.4688C197.094 41.2396 197.948 45.375 199.656 48.875C201.365 52.3542 203.802 55.0417 206.969 56.9375C210.135 58.8125 213.896 59.75 218.25 59.75ZM218.25 53.5312C215.375 53.5312 212.896 52.8438 210.812 51.4688C208.729 50.0729 207.115 48.0938 205.969 45.5312C204.823 42.9688 204.25 39.9479 204.25 36.4688V36.4062C204.25 32.9062 204.823 29.8854 205.969 27.3438C207.115 24.7812 208.729 22.8125 210.812 21.4375C212.917 20.0625 215.396 19.375 218.25 19.375C221.083 19.375 223.542 20.0729 225.625 21.4688C227.729 22.8438 229.344 24.8125 230.469 27.375C231.615 29.9167 232.188 32.9271 232.188 36.4062V36.4688C232.188 39.9271 231.625 42.9375 230.5 45.5C229.375 48.0625 227.771 50.0417 225.688 51.4375C223.604 52.8333 221.125 53.5312 218.25 53.5312ZM246.031 59H253V25.625H256.031L248.625 19.0938L276.375 59H282.844V13.9062H275.875V47.1875H272.844L280.25 53.75L252.5 13.9062H246.031V59ZM291.156 59H298.156V40.125H317.531V34.2188H298.156V19.9688H319.312V13.9062H291.156V59ZM325.406 59H354.031V52.9375H332.406V38.9688H352.875V33.0938H332.406V19.9688H354.031V13.9062H325.406V59ZM361.281 59H368.281V41.7188H377.5C377.583 41.7188 377.646 41.7188 377.688 41.7188C377.75 41.7188 377.823 41.7188 377.906 41.7188L387.094 59H395.188L385.094 40.625C387.802 39.7083 389.927 38.1042 391.469 35.8125C393.031 33.5208 393.812 30.8438 393.812 27.7812V27.7188C393.812 24.8854 393.198 22.4375 391.969 20.375C390.76 18.3125 389.031 16.7188 386.781 15.5938C384.531 14.4688 381.875 13.9062 378.812 13.9062H361.281V59ZM368.281 35.9375V19.7812H377.906C380.594 19.7812 382.708 20.5 384.25 21.9375C385.812 23.3542 386.594 25.3021 386.594 27.7812V27.8438C386.594 30.4271 385.854 32.4271 384.375 33.8438C382.896 35.2396 380.812 35.9375 378.125 35.9375H368.281ZM400.594 59H429.219V52.9375H407.594V38.9688H428.062V33.0938H407.594V19.9688H429.219V13.9062H400.594V59ZM405.125 10.25H410.438L415.344 3.28125H414.406L419.375 10.25H424.688L417.781 0.75H412L405.125 10.25ZM436.469 59H443.438V25.625H446.469L439.062 19.0938L466.812 59H473.281V13.9062H466.312V47.1875H463.281L470.688 53.75L442.938 13.9062H436.469V59ZM500.875 59.75C504.208 59.75 507.208 59.125 509.875 57.875C512.542 56.625 514.729 54.875 516.438 52.625C518.167 50.3542 519.26 47.7188 519.719 44.7188L519.781 44.4062H512.812L512.719 44.7188C512.177 46.6146 511.354 48.2188 510.25 49.5312C509.146 50.8438 507.802 51.8438 506.219 52.5312C504.656 53.1979 502.875 53.5312 500.875 53.5312C498.104 53.5312 495.688 52.8333 493.625 51.4375C491.562 50.0417 489.969 48.0625 488.844 45.5C487.719 42.9167 487.156 39.8958 487.156 36.4375V36.4062C487.156 32.9271 487.719 29.9167 488.844 27.375C489.969 24.8333 491.552 22.8646 493.594 21.4688C495.656 20.0729 498.083 19.375 500.875 19.375C502.917 19.375 504.719 19.7188 506.281 20.4062C507.865 21.0729 509.188 22.0417 510.25 23.3125C511.333 24.5833 512.115 26.1042 512.594 27.875L512.781 28.5H519.75L519.719 28.1875C519.26 25.2083 518.167 22.5938 516.438 20.3438C514.708 18.0938 512.51 16.3333 509.844 15.0625C507.177 13.7917 504.188 13.1562 500.875 13.1562C496.604 13.1562 492.906 14.1042 489.781 16C486.656 17.875 484.24 20.5521 482.531 24.0312C480.823 27.5104 479.969 31.6354 479.969 36.4062V36.4375C479.969 41.2083 480.823 45.3438 482.531 48.8438C484.24 52.3229 486.656 55.0104 489.781 56.9062C492.927 58.8021 496.625 59.75 500.875 59.75ZM526.156 59H533.156V13.9062H526.156V59ZM538.125 59H545.5L558.25 21.375H560.219V13.9062H554.531L538.125 59ZM546.094 46.8125H570.531L568.5 41.1875H548.125L546.094 46.8125ZM571.125 59H578.5L562.125 13.9062H558.406V21.375L571.125 59ZM596.406 59H625.031V52.9375H603.406V38.9688H623.875V33.0938H603.406V19.9688H625.031V13.9062H596.406V59ZM647.656 59.75C651.219 59.75 654.281 59.2083 656.844 58.125C659.427 57.0208 661.406 55.4688 662.781 53.4688C664.177 51.4479 664.875 49.0625 664.875 46.3125V46.2812C664.875 42.8021 663.812 40.0625 661.688 38.0625C659.583 36.0417 656.198 34.5417 651.531 33.5625L646.625 32.5C643.812 31.8958 641.74 31.0625 640.406 30C639.073 28.9375 638.406 27.5625 638.406 25.875V25.8438C638.406 24.5104 638.781 23.3542 639.531 22.375C640.281 21.3958 641.344 20.6354 642.719 20.0938C644.094 19.5312 645.708 19.25 647.562 19.25C649.354 19.25 650.927 19.5208 652.281 20.0625C653.635 20.5833 654.729 21.3438 655.562 22.3438C656.417 23.3438 656.938 24.5521 657.125 25.9688L657.188 26.375H664.031L664 25.875C663.833 23.3333 663.052 21.1146 661.656 19.2188C660.26 17.3021 658.365 15.8125 655.969 14.75C653.573 13.6875 650.812 13.1562 647.688 13.1562C644.5 13.1562 641.677 13.7083 639.219 14.8125C636.76 15.8958 634.833 17.4167 633.438 19.375C632.042 21.3125 631.333 23.5625 631.312 26.125V26.1562C631.312 29.4896 632.396 32.1979 634.562 34.2812C636.729 36.3438 640.021 37.8438 644.438 38.7812L649.344 39.8125C652.344 40.4583 654.49 41.3229 655.781 42.4062C657.094 43.4688 657.75 44.9062 657.75 46.7188V46.75C657.75 48.1458 657.344 49.3646 656.531 50.4062C655.74 51.4479 654.615 52.25 653.156 52.8125C651.698 53.375 649.958 53.6562 647.938 53.6562C645.938 53.6562 644.167 53.3854 642.625 52.8438C641.083 52.3021 639.833 51.5312 638.875 50.5312C637.938 49.5104 637.365 48.3125 637.156 46.9375L637.094 46.5312H630.25L630.281 47C630.469 49.6458 631.302 51.9271 632.781 53.8438C634.26 55.7396 636.26 57.1979 638.781 58.2188C641.323 59.2396 644.281 59.75 647.656 59.75ZM674.656 43.5938H687.969C690.927 43.5938 693.521 42.9792 695.75 41.75C698 40.5 699.76 38.7604 701.031 36.5312C702.302 34.2812 702.938 31.6875 702.938 28.75V28.6875C702.938 25.75 702.302 23.1771 701.031 20.9688C699.76 18.7396 698 17.0104 695.75 15.7812C693.521 14.5312 690.927 13.9062 687.969 13.9062H674.656V19.8125H686.219C689.24 19.8125 691.583 20.5938 693.25 22.1562C694.938 23.7188 695.781 25.9167 695.781 28.75V28.8125C695.781 31.6042 694.938 33.7917 693.25 35.375C691.583 36.9375 689.24 37.7188 686.219 37.7188H674.656V43.5938ZM671.156 59H678.156V13.9062H671.156V59ZM709.094 59H737.719V52.9375H716.094V38.9688H736.562V33.0938H716.094V19.9688H737.719V13.9062H709.094V59ZM764.25 59.75C767.583 59.75 770.583 59.125 773.25 57.875C775.917 56.625 778.104 54.875 779.812 52.625C781.542 50.3542 782.635 47.7188 783.094 44.7188L783.156 44.4062H776.188L776.094 44.7188C775.552 46.6146 774.729 48.2188 773.625 49.5312C772.521 50.8438 771.177 51.8438 769.594 52.5312C768.031 53.1979 766.25 53.5312 764.25 53.5312C761.479 53.5312 759.062 52.8333 757 51.4375C754.938 50.0417 753.344 48.0625 752.219 45.5C751.094 42.9167 750.531 39.8958 750.531 36.4375V36.4062C750.531 32.9271 751.094 29.9167 752.219 27.375C753.344 24.8333 754.927 22.8646 756.969 21.4688C759.031 20.0729 761.458 19.375 764.25 19.375C766.292 19.375 768.094 19.7188 769.656 20.4062C771.24 21.0729 772.562 22.0417 773.625 23.3125C774.708 24.5833 775.49 26.1042 775.969 27.875L776.156 28.5H783.125L783.094 28.1875C782.635 25.2083 781.542 22.5938 779.812 20.3438C778.083 18.0938 775.885 16.3333 773.219 15.0625C770.552 13.7917 767.562 13.1562 764.25 13.1562C759.979 13.1562 756.281 14.1042 753.156 16C750.031 17.875 747.615 20.5521 745.906 24.0312C744.198 27.5104 743.344 31.6354 743.344 36.4062V36.4375C743.344 41.2083 744.198 45.3438 745.906 48.8438C747.615 52.3229 750.031 55.0104 753.156 56.9062C756.302 58.8021 760 59.75 764.25 59.75ZM789.531 59H796.531V13.9062H789.531V59ZM801.5 59H808.875L821.625 21.375H823.594V13.9062H817.906L801.5 59ZM809.469 46.8125H833.906L831.875 41.1875H811.5L809.469 46.8125ZM834.5 59H841.875L825.5 13.9062H821.781V21.375L834.5 59ZM846.844 59H874.875V52.9375H853.844V13.9062H846.844V59Z" fill="black"/>
<path d="M312.969 183.266C313.901 183.266 314.701 183.091 315.367 182.742C316.034 182.393 316.544 181.909 316.898 181.289C317.258 180.664 317.438 179.943 317.438 179.125V171.727H316.031V179.031C316.031 179.896 315.766 180.602 315.234 181.148C314.703 181.695 313.948 181.969 312.969 181.969C311.995 181.969 311.237 181.695 310.695 181.148C310.159 180.602 309.891 179.896 309.891 179.031V171.727H308.484V179.125C308.484 179.943 308.664 180.664 309.023 181.289C309.383 181.909 309.896 182.393 310.562 182.742C311.234 183.091 312.036 183.266 312.969 183.266ZM320.297 183H321.609V174.391H322.297L320.727 172.039L325.258 183H326.445L330.984 172.039L329.406 174.391H330.094V183H331.406V171.727H329.773L325.914 181.133H325.789L321.93 171.727H320.297V183ZM343.32 183.266C344.122 183.266 344.841 183.125 345.477 182.844C346.117 182.562 346.646 182.169 347.062 181.664C347.479 181.154 347.75 180.555 347.875 179.867V179.852H346.453L346.438 179.867C346.323 180.299 346.12 180.674 345.828 180.992C345.536 181.305 345.177 181.547 344.75 181.719C344.323 181.885 343.846 181.969 343.32 181.969C342.596 181.969 341.969 181.781 341.438 181.406C340.911 181.031 340.505 180.5 340.219 179.812C339.932 179.125 339.789 178.312 339.789 177.375V177.359C339.789 176.417 339.932 175.602 340.219 174.914C340.505 174.227 340.911 173.695 341.438 173.32C341.969 172.945 342.594 172.758 343.312 172.758C343.833 172.758 344.305 172.854 344.727 173.047C345.154 173.24 345.516 173.513 345.812 173.867C346.109 174.216 346.32 174.633 346.445 175.117L346.453 175.133H347.867L347.875 175.117C347.766 174.398 347.5 173.766 347.078 173.219C346.656 172.667 346.12 172.237 345.469 171.93C344.823 171.617 344.104 171.461 343.312 171.461C342.292 171.461 341.409 171.701 340.664 172.18C339.924 172.659 339.352 173.339 338.945 174.219C338.544 175.099 338.344 176.146 338.344 177.359V177.375C338.344 178.583 338.544 179.628 338.945 180.508C339.352 181.388 339.927 182.068 340.672 182.547C341.417 183.026 342.299 183.266 343.32 183.266ZM354.969 183.266C356.042 183.266 356.964 183.023 357.734 182.539C358.51 182.055 359.104 181.372 359.516 180.492C359.932 179.607 360.141 178.565 360.141 177.367V177.352C360.141 176.148 359.932 175.107 359.516 174.227C359.099 173.341 358.503 172.659 357.727 172.18C356.956 171.701 356.036 171.461 354.969 171.461C353.906 171.461 352.987 171.701 352.211 172.18C351.44 172.659 350.844 173.339 350.422 174.219C350.005 175.099 349.797 176.143 349.797 177.352V177.367C349.797 178.565 350.003 179.607 350.414 180.492C350.831 181.378 351.424 182.062 352.195 182.547C352.966 183.026 353.891 183.266 354.969 183.266ZM354.969 181.969C354.188 181.969 353.518 181.779 352.961 181.398C352.404 181.018 351.977 180.484 351.68 179.797C351.383 179.104 351.234 178.294 351.234 177.367V177.352C351.234 176.414 351.385 175.602 351.688 174.914C351.995 174.227 352.427 173.695 352.984 173.32C353.542 172.945 354.203 172.758 354.969 172.758C355.74 172.758 356.404 172.945 356.961 173.32C357.518 173.695 357.948 174.227 358.25 174.914C358.552 175.602 358.703 176.414 358.703 177.352V177.367C358.703 178.294 358.552 179.104 358.25 179.797C357.948 180.484 357.518 181.018 356.961 181.398C356.404 181.779 355.74 181.969 354.969 181.969ZM362.578 183H363.969V174.258H364.688L363.75 173.766L370.211 183H371.578V171.727H370.188V180.5H369.469L370.406 180.992L363.945 171.727H362.578V183ZM377.711 183H379.102L383.258 171.727H381.781L378.469 181.18H378.344L375.031 171.727H373.555L377.711 183ZM385.234 183H386.641V171.727H385.234V183ZM392.445 183H393.852V172.992H397.484V171.727H388.812V172.992H392.445V183ZM399.656 183H406.641V181.734H401.062V177.859H406.352V176.609H401.062V172.992H406.641V171.727H399.656V183ZM413.688 183H417.555C418.674 183 419.63 182.779 420.422 182.336C421.214 181.888 421.82 181.245 422.242 180.406C422.664 179.562 422.875 178.549 422.875 177.367V177.352C422.875 176.169 422.664 175.159 422.242 174.32C421.82 173.482 421.211 172.841 420.414 172.398C419.622 171.951 418.669 171.727 417.555 171.727H413.688V183ZM415.094 181.734V172.992H417.461C418.294 172.992 419.008 173.167 419.602 173.516C420.195 173.859 420.648 174.359 420.961 175.016C421.279 175.667 421.438 176.451 421.438 177.367V177.383C421.438 178.294 421.281 179.076 420.969 179.727C420.656 180.378 420.203 180.875 419.609 181.219C419.016 181.562 418.299 181.734 417.461 181.734H415.094ZM423.867 183H425.344L428.656 173.547H429.102V171.727H428.023L423.867 183ZM425.75 179.773H431.719L431.281 178.578H426.188L425.75 179.773ZM432.094 183H433.57L429.414 171.727H428.781V173.547L432.094 183ZM440.75 178.977H444.297C445.005 178.977 445.63 178.823 446.172 178.516C446.714 178.208 447.138 177.781 447.445 177.234C447.758 176.688 447.914 176.057 447.914 175.344V175.328C447.914 174.615 447.758 173.987 447.445 173.445C447.138 172.904 446.714 172.482 446.172 172.18C445.63 171.878 445.005 171.727 444.297 171.727H440.75V172.977H443.938C444.745 172.977 445.37 173.185 445.812 173.602C446.255 174.018 446.477 174.599 446.477 175.344V175.359C446.477 176.099 446.255 176.68 445.812 177.102C445.37 177.518 444.745 177.727 443.938 177.727H440.75V178.977ZM440.047 183H441.453V171.727H440.047V183ZM448.617 183H450.094L453.406 173.547H453.852V171.727H452.773L448.617 183ZM450.5 179.773H456.469L456.031 178.578H450.938L450.5 179.773ZM456.844 183H458.32L454.164 171.727H453.531V173.547L456.844 183ZM463.992 183.266C464.831 183.266 465.562 183.128 466.188 182.852C466.812 182.57 467.297 182.174 467.641 181.664C467.984 181.154 468.156 180.547 468.156 179.844V179.836C468.156 179.023 467.904 178.37 467.398 177.875C466.893 177.38 466.052 177.003 464.875 176.742L463.625 176.461C462.859 176.294 462.31 176.057 461.977 175.75C461.643 175.443 461.477 175.065 461.477 174.617V174.609C461.477 174.214 461.586 173.88 461.805 173.609C462.029 173.333 462.328 173.122 462.703 172.977C463.078 172.831 463.5 172.758 463.969 172.758C464.458 172.753 464.885 172.826 465.25 172.977C465.615 173.128 465.906 173.333 466.125 173.594C466.344 173.849 466.479 174.143 466.531 174.477L466.547 174.578H467.953L467.945 174.469C467.909 173.906 467.719 173.398 467.375 172.945C467.036 172.492 466.578 172.133 466 171.867C465.422 171.596 464.758 171.461 464.008 171.461C463.232 171.461 462.544 171.596 461.945 171.867C461.352 172.138 460.885 172.513 460.547 172.992C460.214 173.471 460.044 174.023 460.039 174.648V174.656C460.039 175.474 460.294 176.146 460.805 176.672C461.32 177.193 462.143 177.578 463.273 177.828L464.523 178.102C465.299 178.273 465.859 178.521 466.203 178.844C466.547 179.161 466.719 179.555 466.719 180.023V180.031C466.719 180.411 466.604 180.747 466.375 181.039C466.146 181.331 465.831 181.56 465.43 181.727C465.034 181.888 464.581 181.969 464.07 181.969C463.529 181.969 463.044 181.893 462.617 181.742C462.195 181.591 461.857 181.38 461.602 181.109C461.352 180.833 461.208 180.508 461.172 180.133L461.164 180.047H459.758L459.766 180.133C459.823 180.742 460.029 181.284 460.383 181.758C460.742 182.227 461.227 182.596 461.836 182.867C462.451 183.133 463.169 183.266 463.992 183.266ZM473.43 183H474.836V172.992H478.469V171.727H469.797V172.992H473.43V183ZM484.906 183.266C485.979 183.266 486.901 183.023 487.672 182.539C488.448 182.055 489.042 181.372 489.453 180.492C489.87 179.607 490.078 178.565 490.078 177.367V177.352C490.078 176.148 489.87 175.107 489.453 174.227C489.036 173.341 488.44 172.659 487.664 172.18C486.893 171.701 485.974 171.461 484.906 171.461C483.844 171.461 482.924 171.701 482.148 172.18C481.378 172.659 480.781 173.339 480.359 174.219C479.943 175.099 479.734 176.143 479.734 177.352V177.367C479.734 178.565 479.94 179.607 480.352 180.492C480.768 181.378 481.362 182.062 482.133 182.547C482.904 183.026 483.828 183.266 484.906 183.266ZM484.906 181.969C484.125 181.969 483.456 181.779 482.898 181.398C482.341 181.018 481.914 180.484 481.617 179.797C481.32 179.104 481.172 178.294 481.172 177.367V177.352C481.172 176.414 481.323 175.602 481.625 174.914C481.932 174.227 482.365 173.695 482.922 173.32C483.479 172.945 484.141 172.758 484.906 172.758C485.677 172.758 486.341 172.945 486.898 173.32C487.456 173.695 487.885 174.227 488.188 174.914C488.49 175.602 488.641 176.414 488.641 177.352V177.367C488.641 178.294 488.49 179.104 488.188 179.797C487.885 180.484 487.456 181.018 486.898 181.398C486.341 181.779 485.677 181.969 484.906 181.969ZM492.516 183H493.922V178.539H496.617C496.628 178.539 496.641 178.539 496.656 178.539C496.672 178.539 496.685 178.539 496.695 178.539L499.109 183H500.758L498.148 178.32C498.857 178.096 499.411 177.698 499.812 177.125C500.214 176.552 500.414 175.875 500.414 175.094V175.078C500.414 174.401 500.266 173.812 499.969 173.312C499.672 172.812 499.253 172.424 498.711 172.148C498.174 171.867 497.544 171.727 496.82 171.727H492.516V183ZM493.922 177.289V172.977H496.633C497.362 172.977 497.932 173.167 498.344 173.547C498.755 173.927 498.961 174.453 498.961 175.125V175.141C498.961 175.828 498.763 176.359 498.367 176.734C497.977 177.104 497.419 177.289 496.695 177.289H493.922ZM502.07 183H503.547L506.859 173.547H507.305V171.727H506.227L502.07 183ZM503.953 179.773H509.922L509.484 178.578H504.391L503.953 179.773ZM510.297 183H511.773L507.617 171.727H506.984V173.547L510.297 183ZM518.25 183H525.234V181.734H519.656V177.859H524.945V176.609H519.656V172.992H525.234V171.727H518.25V183ZM527.781 183H534.625V181.734H529.188V171.727H527.781V183ZM536.875 183H543.719V181.734H538.281V171.727H536.875V183ZM545.969 183H552.953V181.734H547.375V177.859H552.664V176.609H547.375V172.992H552.953V171.727H545.969V183ZM555.5 183H556.891V174.258H557.609L556.672 173.766L563.133 183H564.5V171.727H563.109V180.5H562.391L563.328 180.992L556.867 171.727H555.5V183Z" fill="black"/>
<path d="M225.456 125.664C221.472 119.088 219.552 114.24 219.552 105.072C219.552 95.856 221.472 91.056 225.456 84.48C225.6 84.24 225.168 83.904 224.88 84.24C220.224 89.376 217.104 96.768 217.104 105.072C217.104 113.328 220.224 120.816 224.88 125.904C225.216 126.24 225.6 125.904 225.456 125.664ZM257.332 94.224C257.332 88.8 253.732 85.536 248.068 85.536C246.196 85.536 243.364 85.92 242.452 85.92C240.436 85.92 237.22 85.776 237.22 85.776C236.836 85.728 236.836 86.352 237.22 86.4L240.868 86.832V112.752L237.268 113.184C236.836 113.232 236.836 114 237.268 114C237.268 114 240.436 113.808 242.452 113.808C244.42 113.808 247.492 114 247.492 114C247.972 114 247.972 113.232 247.492 113.184L243.94 112.752V86.88C244.852 86.688 245.62 86.688 246.388 86.688C251.236 86.688 254.164 89.088 254.164 93.936C254.164 99.744 250.468 101.76 246.052 101.76C245.572 101.76 245.572 102.48 246.052 102.528C246.052 102.528 247.012 102.624 247.732 102.624C253.108 102.624 257.332 99.12 257.332 94.224ZM276.327 100.224H268.167L272.007 89.616L276.327 100.224ZM284.583 112.8L273.687 86.016C273.351 85.152 273.015 85.152 272.631 86.064L261.447 112.8L258.615 113.184C258.135 113.232 258.135 114 258.615 114C258.615 114 260.871 113.808 262.887 113.808C264.807 113.808 267.159 114 267.159 114C267.639 114 267.639 113.232 267.159 113.184L263.751 112.8L267.687 101.52H276.807L281.367 112.8L277.719 113.184C277.239 113.232 277.239 114 277.719 114C277.719 114 280.839 113.808 282.855 113.808C284.823 113.808 287.655 114 287.655 114C288.135 114 288.135 113.232 287.655 113.184L284.583 112.8ZM304.13 92.304C304.13 96.432 301.49 98.832 296.018 98.832V86.976C296.642 86.688 297.65 86.64 298.562 86.64C301.922 86.64 304.13 88.464 304.13 92.304ZM296.018 112.752V99.888C298.178 99.888 299.282 100.416 301.106 103.392L304.37 108.72C306.818 112.704 308.546 114.144 311.234 114.144C313.01 114.144 313.49 113.04 312.578 112.656C310.562 111.84 309.89 111.264 307.586 107.76L302.93 100.704C302.258 99.696 302.498 100.032 301.826 99.168C304.802 97.92 307.25 96 307.25 92.304C307.25 87.984 304.418 85.536 298.994 85.536C297.266 85.536 295.442 85.872 294.53 85.872C292.514 85.872 289.298 85.776 289.298 85.776C288.914 85.728 288.914 86.352 289.298 86.4L292.946 86.832V112.752L289.346 113.184C288.914 113.232 288.914 114 289.346 114C289.346 114 292.514 113.808 294.53 113.808C296.498 113.808 299.57 114 299.57 114C300.05 114 300.05 113.232 299.57 113.184L296.018 112.752ZM330.515 100.224H322.355L326.195 89.616L330.515 100.224ZM338.771 112.8L327.875 86.016C327.539 85.152 327.203 85.152 326.819 86.064L315.635 112.8L312.803 113.184C312.322 113.232 312.322 114 312.803 114C312.803 114 315.059 113.808 317.075 113.808C318.995 113.808 321.347 114 321.347 114C321.827 114 321.827 113.232 321.347 113.184L317.939 112.8L321.875 101.52H330.995L335.555 112.8L331.907 113.184C331.427 113.232 331.427 114 331.907 114C331.907 114 335.027 113.808 337.043 113.808C339.01 113.808 341.843 114 341.843 114C342.323 114 342.323 113.232 341.843 113.184L338.771 112.8ZM367.119 112.32L378.111 86.88L381.615 86.448C382.047 86.4 382.047 85.776 381.615 85.776C381.615 85.776 378.831 85.92 376.863 85.92C374.895 85.92 372.543 85.776 372.543 85.776C372.063 85.776 372.063 86.4 372.543 86.448L376.095 86.88C376.095 86.88 372.159 97.44 369.375 104.16C368.511 106.224 367.119 109.344 367.119 109.344L358.383 86.832L361.935 86.4C362.271 86.352 362.271 85.728 361.935 85.776C361.935 85.776 358.767 85.92 356.799 85.92C354.783 85.92 351.615 85.776 351.615 85.776C351.183 85.776 351.183 86.352 351.615 86.4L355.167 86.832L365.007 112.224C365.487 113.424 365.679 114.24 366.111 114.24C366.495 114.24 366.591 113.568 367.119 112.32ZM410.837 99.888C410.837 91.632 404.213 85.536 396.821 85.536C389.525 85.536 382.901 91.632 382.901 99.888C382.901 108.144 389.525 114.24 396.821 114.24C404.213 114.24 410.837 108.144 410.837 99.888ZM407.429 99.888C407.429 108.624 402.005 113.232 396.821 113.232C391.685 113.232 386.261 108.624 386.261 99.888C386.261 91.104 391.685 86.544 396.821 86.544C402.005 86.544 407.429 91.104 407.429 99.888ZM436.516 111.888L437.044 107.088C437.092 106.8 436.42 106.608 436.276 107.088L435.46 110.016C433.78 111.456 430.468 113.232 426.868 113.232C421.732 113.232 416.308 108.624 416.308 99.888C416.308 91.104 421.732 86.544 426.868 86.544C430.468 86.544 433.972 88.32 435.652 89.76L436.516 92.64C436.516 93.168 437.332 92.928 437.284 92.64L436.324 87.984C433.828 86.688 430.996 85.536 426.868 85.536C419.572 85.536 412.948 91.632 412.948 99.888C412.948 108.144 419.572 114.24 426.868 114.24C430.996 114.24 434.02 113.136 436.516 111.888ZM457.63 85.776C457.63 85.776 446.686 85.92 444.718 85.92C442.702 85.92 439.486 85.776 439.486 85.776C439.102 85.728 439.102 86.352 439.486 86.4L443.134 86.832V112.752L439.534 113.184C439.102 113.232 439.102 114 439.534 114C439.534 114 442.702 113.808 444.718 113.808C446.686 113.808 448.654 114 448.654 114C451.054 114.096 458.158 114.24 458.158 114.24L459.934 108.96C460.078 108.576 459.55 108.576 459.454 108.768L457.582 112.368C457.582 112.368 453.934 112.656 450.814 112.704L446.206 112.8V99.84L448.414 99.888C451.342 99.936 455.662 100.224 455.662 100.224L456.19 103.104C456.286 103.536 456.67 103.536 456.67 103.104C456.67 103.104 456.526 100.848 456.526 99.456C456.526 98.16 456.67 95.76 456.67 95.76C456.67 95.328 456.286 95.328 456.19 95.76L455.662 98.64C455.662 98.64 451.39 98.928 448.414 98.976L446.206 99.024V86.688H447.55C450.718 86.688 453.982 86.928 453.982 86.928C455.422 86.976 457.246 87.312 457.246 87.312L458.59 90.432C458.734 90.672 459.166 90.576 459.07 90.384L457.63 85.776ZM453.742 83.808L450.382 79.248H448.558L445.294 83.808H446.35L449.518 80.976L452.638 83.808H453.742ZM465.53 113.664C465.53 111.888 464.378 110.976 463.514 110.976C462.842 110.976 462.026 111.552 462.026 112.512C462.026 113.376 462.794 113.952 463.466 114.24C463.706 114.24 463.898 114.528 463.898 115.248C463.898 116.64 462.314 117.648 461.594 118.032C461.258 118.224 461.498 118.752 461.978 118.608C463.898 117.984 465.53 116.112 465.53 113.664ZM482.26 86.832L480.964 112.752L477.268 113.184C476.836 113.232 476.836 114 477.268 114C477.268 114 480.052 113.808 482.02 113.808C483.988 113.808 486.292 114 486.292 114C486.772 114 486.772 113.232 486.292 113.184L482.884 112.752V90.24L494.596 113.808L505.54 90.288V112.752L501.988 113.184C501.508 113.232 501.508 114 501.988 114C501.988 114 505.156 113.808 507.172 113.808C509.092 113.808 512.164 114 512.164 114C512.644 114 512.644 113.232 512.164 113.184L508.612 112.752V86.832L512.26 86.4C512.596 86.352 512.596 85.728 512.26 85.776C512.26 85.776 510.676 85.824 509.62 85.824C508.516 85.824 506.692 85.776 506.692 85.776L495.556 108.576L484.228 85.776C484.228 85.776 482.356 85.824 481.252 85.824C480.052 85.824 478.564 85.776 478.564 85.776C478.228 85.728 478.228 86.352 478.564 86.4L482.26 86.832ZM539.532 104.736L539.916 86.88L543.612 86.448C544.092 86.4 544.092 85.776 543.612 85.776C543.612 85.776 540.876 85.92 538.908 85.92C536.94 85.92 534.588 85.776 534.588 85.776C534.156 85.776 534.108 86.4 534.588 86.448L538.092 86.88L538.236 104.256C538.284 110.688 535.308 112.704 530.172 112.704C524.364 112.704 521.628 110.544 521.628 105.744V86.832L525.276 86.4C525.612 86.352 525.612 85.728 525.276 85.776C525.276 85.776 522.108 85.92 520.14 85.92C518.124 85.92 514.908 85.776 514.908 85.776C514.524 85.728 514.524 86.352 514.908 86.4L518.556 86.832V105.552C518.556 110.592 521.388 114.24 529.788 114.24C535.98 114.24 539.388 111.504 539.532 104.736ZM553.128 112.752V86.832L556.776 86.4C557.112 86.352 557.112 85.728 556.776 85.776C556.776 85.776 553.608 85.92 551.64 85.92C549.624 85.92 546.408 85.776 546.408 85.776C546.024 85.728 546.024 86.352 546.408 86.4L550.056 86.832V112.752L546.456 113.184C546.024 113.232 546.024 114 546.456 114C546.456 114 549.624 113.808 551.64 113.808C553.608 113.808 555.576 114 555.576 114C557.976 114.096 565.08 114.24 565.08 114.24L567.96 109.008C568.152 108.672 567.624 108.24 567.288 108.72L564.504 112.32C564.504 112.32 560.856 112.608 557.736 112.656L553.128 112.752ZM574.69 100.08H591.73V112.752L588.178 113.184C587.698 113.232 587.698 114 588.178 114C588.178 114 591.346 113.808 593.362 113.808C595.282 113.808 598.402 114 598.402 114C598.834 114 598.834 113.232 598.402 113.184L594.85 112.752V86.832L598.45 86.4C598.834 86.352 598.834 85.728 598.45 85.776C598.45 85.776 595.282 85.92 593.362 85.92C591.346 85.92 588.13 85.776 588.13 85.776C587.746 85.728 587.746 86.352 588.13 86.4L591.73 86.832V98.832H574.69V86.832L578.338 86.4C578.674 86.352 578.674 85.728 578.338 85.776C578.338 85.776 575.17 85.92 573.202 85.92C571.186 85.92 567.97 85.776 567.97 85.776C567.586 85.728 567.586 86.352 567.97 86.4L571.618 86.832V112.752L568.018 113.184C567.586 113.232 567.586 114 568.018 114C568.018 114 571.186 113.808 573.202 113.808C575.17 113.808 578.242 114 578.242 114C578.722 114 578.722 113.232 578.242 113.184L574.69 112.752V100.08ZM619.349 85.776C619.349 85.776 608.405 85.92 606.437 85.92C604.421 85.92 601.205 85.776 601.205 85.776C600.821 85.728 600.821 86.352 601.205 86.4L604.853 86.832V112.752L601.253 113.184C600.821 113.232 600.821 114 601.253 114C601.253 114 604.421 113.808 606.437 113.808C608.405 113.808 610.373 114 610.373 114C612.773 114.096 619.877 114.24 619.877 114.24L621.653 108.96C621.797 108.576 621.269 108.576 621.173 108.768L619.301 112.368C619.301 112.368 615.653 112.656 612.533 112.704L607.925 112.8V99.84L610.133 99.888C613.061 99.936 617.381 100.224 617.381 100.224L617.909 103.104C618.005 103.536 618.389 103.536 618.389 103.104C618.389 103.104 618.245 100.848 618.245 99.456C618.245 98.16 618.389 95.76 618.389 95.76C618.389 95.328 618.005 95.328 617.909 95.76L617.381 98.64C617.381 98.64 613.109 98.928 610.133 98.976L607.925 99.024V86.688H609.269C612.437 86.688 615.701 86.928 615.701 86.928C617.141 86.976 618.965 87.312 618.965 87.312L620.309 90.432C620.453 90.672 620.885 90.576 620.789 90.384L619.349 85.776ZM638.865 92.304C638.865 96.432 636.225 98.832 630.753 98.832V86.976C631.377 86.688 632.385 86.64 633.297 86.64C636.657 86.64 638.865 88.464 638.865 92.304ZM630.753 112.752V99.888C632.913 99.888 634.017 100.416 635.841 103.392L639.105 108.72C641.553 112.704 643.281 114.144 645.969 114.144C647.745 114.144 648.225 113.04 647.313 112.656C645.297 111.84 644.625 111.264 642.321 107.76L637.665 100.704C636.993 99.696 637.233 100.032 636.561 99.168C639.537 97.92 641.985 96 641.985 92.304C641.985 87.984 639.153 85.536 633.729 85.536C632.001 85.536 630.177 85.872 629.265 85.872C627.249 85.872 624.033 85.776 624.033 85.776C623.649 85.728 623.649 86.352 624.033 86.4L627.681 86.832V112.752L624.081 113.184C623.649 113.232 623.649 114 624.081 114C624.081 114 627.249 113.808 629.265 113.808C631.233 113.808 634.305 114 634.305 114C634.785 114 634.785 113.232 634.305 113.184L630.753 112.752ZM648.401 84.48C652.337 91.104 654.305 95.856 654.305 105.072C654.305 114.24 652.337 119.04 648.401 125.664C648.257 125.904 648.689 126.288 649.025 125.904C653.681 120.864 656.801 113.328 656.801 105.072C656.801 96.768 653.681 89.328 649.025 84.24C648.689 83.856 648.257 84.24 648.401 84.48Z" fill="black"/>
</svg>
