<svg width="193" height="25" viewBox="0 0 193 25" fill="none" xmlns="http://www.w3.org/2000/svg">
<rect x="0.602642" y="1.45372" width="191.038" height="22.9435" stroke="black" stroke-width="1.20528"/>
<path d="M35.1229 9.2343V18H34.0615V9.2343H35.1229ZM38.1244 14.0452V18H37.1143V11.4257H38.0901V12.453H38.1757C38.3298 12.1191 38.5638 11.8509 38.8777 11.6483C39.1916 11.4428 39.5967 11.3401 40.0932 11.3401C40.5384 11.3401 40.9279 11.4314 41.2617 11.614C41.5956 11.7938 41.8552 12.0677 42.0407 12.4358C42.2262 12.8011 42.3189 13.2633 42.3189 13.8226V18H41.3088V13.8911C41.3088 13.3746 41.1747 12.9723 40.9065 12.6841C40.6382 12.393 40.2702 12.2475 39.8022 12.2475C39.4798 12.2475 39.1916 12.3174 38.9376 12.4572C38.6865 12.5971 38.4882 12.8011 38.3427 13.0693C38.1971 13.3375 38.1244 13.6628 38.1244 14.0452ZM48.8215 12.8981L47.9141 13.1549C47.857 13.0037 47.7729 12.8567 47.6616 12.714C47.5532 12.5685 47.4048 12.4487 47.2164 12.3545C47.0281 12.2603 46.787 12.2133 46.4931 12.2133C46.0908 12.2133 45.7555 12.306 45.4873 12.4915C45.2219 12.6741 45.0892 12.9066 45.0892 13.1891C45.0892 13.4402 45.1805 13.6385 45.3632 13.7841C45.5458 13.9296 45.8311 14.0509 46.2192 14.1479L47.195 14.3876C47.7829 14.5302 48.2209 14.7485 48.509 15.0424C48.7972 15.3335 48.9413 15.7087 48.9413 16.1681C48.9413 16.5448 48.8329 16.8815 48.6161 17.1782C48.402 17.475 48.1024 17.709 47.7172 17.8802C47.332 18.0514 46.884 18.137 46.3733 18.137C45.7027 18.137 45.1477 17.9914 44.7083 17.7004C44.2689 17.4093 43.9907 16.9842 43.8737 16.4249L44.8324 16.1852C44.9237 16.539 45.0964 16.8044 45.3503 16.9813C45.6071 17.1582 45.9424 17.2467 46.3561 17.2467C46.827 17.2467 47.2008 17.1468 47.4775 16.9471C47.7572 16.7445 47.897 16.502 47.897 16.2195C47.897 15.9912 47.8171 15.8 47.6573 15.6459C47.4975 15.489 47.2521 15.372 46.9211 15.295L45.8254 15.0382C45.2233 14.8955 44.7811 14.6743 44.4986 14.3747C44.2189 14.0723 44.0791 13.6942 44.0791 13.2405C44.0791 12.8696 44.1833 12.5414 44.3916 12.2561C44.6027 11.9707 44.8895 11.7467 45.2519 11.5841C45.6171 11.4214 46.0309 11.3401 46.4931 11.3401C47.1437 11.3401 47.6544 11.4828 48.0254 11.7681C48.3992 12.0535 48.6646 12.4301 48.8215 12.8981ZM53.1327 18.137C52.5163 18.137 51.9856 17.9914 51.5404 17.7004C51.0953 17.4093 50.7529 17.0084 50.5132 16.4977C50.2735 15.9869 50.1537 15.4034 50.1537 14.7471C50.1537 14.0794 50.2764 13.4902 50.5218 12.9794C50.77 12.4658 51.1153 12.0649 51.5576 11.7767C52.0027 11.4856 52.522 11.3401 53.1155 11.3401C53.5778 11.3401 53.9944 11.4257 54.3653 11.5969C54.7363 11.7681 55.0402 12.0078 55.277 12.316C55.5138 12.6242 55.6608 12.9837 55.7179 13.3946H54.7077C54.6307 13.095 54.4595 12.8296 54.1941 12.5985C53.9316 12.3645 53.5778 12.2475 53.1327 12.2475C52.7389 12.2475 52.3936 12.3502 52.0969 12.5557C51.803 12.7583 51.5733 13.045 51.4078 13.416C51.2451 13.7841 51.1638 14.2164 51.1638 14.7129C51.1638 15.2208 51.2437 15.663 51.4035 16.0397C51.5661 16.4164 51.7944 16.7088 52.0883 16.9171C52.3851 17.1254 52.7332 17.2296 53.1327 17.2296C53.3952 17.2296 53.6334 17.1839 53.8474 17.0926C54.0614 17.0013 54.2426 16.87 54.391 16.6988C54.5394 16.5276 54.645 16.3222 54.7077 16.0825H55.7179C55.6608 16.4706 55.5195 16.8201 55.2941 17.1311C55.0716 17.4393 54.7762 17.6847 54.4081 17.8673C54.0429 18.0471 53.6177 18.137 53.1327 18.137ZM57.1945 18V11.4257H58.1704V12.4187H58.2389C58.3587 12.0934 58.5756 11.8295 58.8894 11.6269C59.2033 11.4243 59.5571 11.323 59.9509 11.323C60.0251 11.323 60.1178 11.3244 60.2291 11.3273C60.3404 11.3301 60.4246 11.3344 60.4816 11.3401V12.3674C60.4474 12.3588 60.3689 12.3459 60.2462 12.3288C60.1264 12.3089 59.9994 12.2989 59.8653 12.2989C59.5457 12.2989 59.2604 12.3659 59.0093 12.5C58.761 12.6313 58.5641 12.8139 58.4186 13.0479C58.2759 13.279 58.2046 13.543 58.2046 13.8397V18H57.1945ZM61.679 18V11.4257H62.6891V18H61.679ZM62.1926 10.33C61.9957 10.33 61.826 10.263 61.6833 10.1288C61.5435 9.99473 61.4736 9.83351 61.4736 9.64519C61.4736 9.45686 61.5435 9.29564 61.6833 9.16153C61.826 9.02742 61.9957 8.96037 62.1926 8.96037C62.3895 8.96037 62.5579 9.02742 62.6977 9.16153C62.8403 9.29564 62.9117 9.45686 62.9117 9.64519C62.9117 9.83351 62.8403 9.99473 62.6977 10.1288C62.5579 10.263 62.3895 10.33 62.1926 10.33ZM67.21 18.137C66.5937 18.137 66.0629 17.9914 65.6178 17.7004C65.1727 17.4093 64.8302 17.0084 64.5906 16.4977C64.3509 15.9869 64.231 15.4034 64.231 14.7471C64.231 14.0794 64.3537 13.4902 64.5991 12.9794C64.8474 12.4658 65.1926 12.0649 65.6349 11.7767C66.08 11.4856 66.5994 11.3401 67.1929 11.3401C67.6551 11.3401 68.0717 11.4257 68.4427 11.5969C68.8136 11.7681 69.1175 12.0078 69.3543 12.316C69.5912 12.6242 69.7381 12.9837 69.7952 13.3946H68.7851C68.708 13.095 68.5368 12.8296 68.2715 12.5985C68.009 12.3645 67.6551 12.2475 67.21 12.2475C66.8162 12.2475 66.471 12.3502 66.1742 12.5557C65.8803 12.7583 65.6506 13.045 65.4851 13.416C65.3225 13.7841 65.2411 14.2164 65.2411 14.7129C65.2411 15.2208 65.321 15.663 65.4808 16.0397C65.6435 16.4164 65.8717 16.7088 66.1656 16.9171C66.4624 17.1254 66.8105 17.2296 67.21 17.2296C67.4725 17.2296 67.7108 17.1839 67.9248 17.0926C68.1388 17.0013 68.32 16.87 68.4684 16.6988C68.6167 16.5276 68.7223 16.3222 68.7851 16.0825H69.7952C69.7381 16.4706 69.5969 16.8201 69.3715 17.1311C69.1489 17.4393 68.8536 17.6847 68.4855 17.8673C68.1202 18.0471 67.6951 18.137 67.21 18.137ZM66.7306 17.9658H67.5695L67.501 18.3082C67.7236 18.3424 67.9276 18.4351 68.1131 18.5864C68.2986 18.7405 68.3913 18.9844 68.3913 19.3183C68.3913 19.6864 68.2387 19.986 67.9333 20.2171C67.6309 20.4511 67.1843 20.5681 66.5937 20.5681L66.5594 19.9004C66.8248 19.9004 67.0445 19.8576 67.2186 19.772C67.3955 19.6892 67.4839 19.5494 67.4839 19.3525C67.4839 19.1556 67.4112 19.0215 67.2656 18.9502C67.1201 18.8789 66.8847 18.8303 66.5594 18.8047L66.7306 17.9658ZM73.2065 18.1541C72.7899 18.1541 72.4118 18.0756 72.0722 17.9187C71.7327 17.7589 71.463 17.5292 71.2633 17.2296C71.0635 16.9271 70.9637 16.5619 70.9637 16.1339C70.9637 15.7572 71.0379 15.4519 71.1862 15.2179C71.3346 14.9811 71.5329 14.7956 71.7812 14.6615C72.0294 14.5274 72.3034 14.4275 72.603 14.3619C72.9054 14.2934 73.2093 14.2392 73.5146 14.1992C73.9141 14.1479 74.238 14.1094 74.4862 14.0837C74.7373 14.0551 74.9199 14.0081 75.0341 13.9424C75.1511 13.8768 75.2096 13.7627 75.2096 13.6V13.5658C75.2096 13.1435 75.094 12.8153 74.8629 12.5814C74.6346 12.3474 74.2879 12.2304 73.8228 12.2304C73.3406 12.2304 72.9625 12.336 72.6886 12.5471C72.4146 12.7583 72.222 12.9837 72.1107 13.2234L71.152 12.881C71.3232 12.4815 71.5515 12.1705 71.8368 11.9479C72.125 11.7225 72.4389 11.5655 72.7784 11.4771C73.1209 11.3858 73.4576 11.3401 73.7886 11.3401C73.9997 11.3401 74.2423 11.3658 74.5162 11.4172C74.793 11.4657 75.0598 11.567 75.3166 11.7211C75.5762 11.8751 75.7917 12.1077 75.9629 12.4187C76.1341 12.7297 76.2197 13.1463 76.2197 13.6685V18H75.2096V17.1097H75.1582C75.0897 17.2524 74.9756 17.4051 74.8158 17.5677C74.656 17.7304 74.4434 17.8687 74.1781 17.9829C73.9127 18.097 73.5888 18.1541 73.2065 18.1541ZM73.3605 17.2467C73.76 17.2467 74.0967 17.1682 74.3707 17.0113C74.6474 16.8544 74.8557 16.6518 74.9956 16.4035C75.1382 16.1553 75.2096 15.8942 75.2096 15.6202V14.6957C75.1668 14.7471 75.0726 14.7942 74.9271 14.837C74.7844 14.8769 74.6189 14.9126 74.4306 14.944C74.2451 14.9725 74.0639 14.9982 73.887 15.021C73.7129 15.041 73.5717 15.0581 73.4633 15.0724C73.2008 15.1066 72.9554 15.1623 72.7271 15.2393C72.5017 15.3135 72.319 15.4262 72.1792 15.5774C72.0423 15.7258 71.9738 15.9284 71.9738 16.1852C71.9738 16.5362 72.1036 16.8016 72.3633 16.9813C72.6258 17.1582 72.9582 17.2467 73.3605 17.2467ZM72.5388 10.6382L71.7512 10.6039C71.7512 10.1674 71.8753 9.81069 72.1236 9.5339C72.3747 9.25427 72.6843 9.11445 73.0524 9.11445C73.215 9.11445 73.3591 9.14299 73.4847 9.20005C73.6102 9.25427 73.7301 9.31704 73.8442 9.38838C73.9583 9.45972 74.0753 9.52392 74.1952 9.58099C74.3179 9.6352 74.4563 9.66231 74.6103 9.66231C74.773 9.66231 74.91 9.59953 75.0212 9.47398C75.1354 9.34558 75.1924 9.19149 75.1924 9.01173L75.9629 9.08021C75.9629 9.52534 75.8373 9.87917 75.5862 10.1417C75.338 10.4042 75.0298 10.5355 74.6617 10.5355C74.4648 10.5355 74.3022 10.5083 74.1738 10.4541C74.0454 10.3971 73.9312 10.3329 73.8314 10.2615C73.7315 10.1902 73.6259 10.1274 73.5146 10.0732C73.4033 10.0161 73.2664 9.9876 73.1037 9.9876C72.9411 9.9876 72.8056 10.0518 72.6971 10.1802C72.5916 10.3058 72.5388 10.4584 72.5388 10.6382ZM80.7341 18.137C80.1406 18.137 79.6199 17.9957 79.1719 17.7132C78.7268 17.4307 78.3786 17.0355 78.1275 16.5276C77.8793 16.0197 77.7552 15.4262 77.7552 14.7471C77.7552 14.0623 77.8793 13.4645 78.1275 12.9537C78.3786 12.443 78.7268 12.0463 79.1719 11.7639C79.6199 11.4814 80.1406 11.3401 80.7341 11.3401C81.3276 11.3401 81.847 11.4814 82.2921 11.7639C82.7401 12.0463 83.0882 12.443 83.3365 12.9537C83.5876 13.4645 83.7131 14.0623 83.7131 14.7471C83.7131 15.4262 83.5876 16.0197 83.3365 16.5276C83.0882 17.0355 82.7401 17.4307 82.2921 17.7132C81.847 17.9957 81.3276 18.137 80.7341 18.137ZM80.7341 17.2296C81.185 17.2296 81.5559 17.114 81.847 16.8829C82.138 16.6518 82.3535 16.3479 82.4933 15.9712C82.6331 15.5946 82.703 15.1865 82.703 14.7471C82.703 14.3077 82.6331 13.8982 82.4933 13.5187C82.3535 13.1392 82.138 12.8325 81.847 12.5985C81.5559 12.3645 81.185 12.2475 80.7341 12.2475C80.2833 12.2475 79.9124 12.3645 79.6213 12.5985C79.3303 12.8325 79.1148 13.1392 78.975 13.5187C78.8352 13.8982 78.7653 14.3077 78.7653 14.7471C78.7653 15.1865 78.8352 15.5946 78.975 15.9712C79.1148 16.3479 79.3303 16.6518 79.6213 16.8829C79.9124 17.114 80.2833 17.2296 80.7341 17.2296ZM92.4114 13.1463V14.088H88.5764V13.1463H92.4114ZM97.7155 18V9.2343H100.677C101.362 9.2343 101.924 9.35129 102.364 9.58527C102.803 9.81639 103.128 10.1345 103.34 10.5397C103.551 10.9449 103.656 11.4057 103.656 11.9222C103.656 12.4387 103.551 12.8967 103.34 13.2961C103.128 13.6956 102.805 14.0095 102.368 14.2378C101.931 14.4632 101.374 14.5759 100.695 14.5759H98.2976V13.6171H100.66C101.128 13.6171 101.505 13.5487 101.79 13.4117C102.078 13.2747 102.287 13.0807 102.415 12.8296C102.546 12.5756 102.612 12.2732 102.612 11.9222C102.612 11.5712 102.546 11.2645 102.415 11.002C102.284 10.7395 102.074 10.5369 101.786 10.3942C101.498 10.2487 101.117 10.1759 100.643 10.1759H98.777V18H97.7155ZM101.842 14.0623L103.999 18H102.766L100.643 14.0623H101.842ZM107.974 18.137C107.34 18.137 106.794 17.9971 106.335 17.7175C105.878 17.435 105.526 17.0413 105.277 16.5362C105.032 16.0283 104.909 15.4376 104.909 14.7642C104.909 14.0908 105.032 13.4973 105.277 12.9837C105.526 12.4672 105.871 12.0649 106.313 11.7767C106.758 11.4856 107.278 11.3401 107.871 11.3401C108.214 11.3401 108.552 11.3972 108.886 11.5113C109.219 11.6255 109.523 11.8109 109.797 12.0677C110.071 12.3217 110.289 12.6584 110.452 13.0779C110.615 13.4973 110.696 14.0138 110.696 14.6273V15.0553H105.628V14.1821H109.669C109.669 13.8112 109.595 13.4802 109.446 13.1891C109.301 12.8981 109.092 12.6684 108.821 12.5C108.553 12.3317 108.236 12.2475 107.871 12.2475C107.469 12.2475 107.121 12.3474 106.827 12.5471C106.536 12.744 106.312 13.0008 106.155 13.3175C105.998 13.6343 105.919 13.9738 105.919 14.3362V14.9183C105.919 15.4148 106.005 15.8357 106.176 16.1809C106.35 16.5234 106.591 16.7844 106.9 16.9642C107.208 17.1411 107.566 17.2296 107.974 17.2296C108.239 17.2296 108.479 17.1925 108.693 17.1183C108.91 17.0413 109.097 16.9271 109.254 16.7759C109.411 16.6218 109.532 16.4306 109.618 16.2023L110.593 16.4763C110.491 16.8073 110.318 17.0983 110.075 17.3494C109.833 17.5977 109.533 17.7917 109.177 17.9315C108.82 18.0685 108.419 18.137 107.974 18.137ZM115.16 11.4257V12.2817H111.616V11.4257H115.16ZM112.678 18V10.5183C112.678 10.1417 112.766 9.82781 112.943 9.57671C113.12 9.3256 113.35 9.13728 113.632 9.01173C113.915 8.88618 114.213 8.8234 114.527 8.8234C114.775 8.8234 114.978 8.84338 115.135 8.88333C115.292 8.92327 115.409 8.96037 115.486 8.99461L115.195 9.86775C115.143 9.85063 115.072 9.82923 114.981 9.80355C114.892 9.77787 114.775 9.76503 114.63 9.76503C114.296 9.76503 114.055 9.84921 113.906 10.0176C113.761 10.1859 113.688 10.4327 113.688 10.758V18H112.678ZM117.586 9.2343V18H116.576V9.2343H117.586ZM122.193 18.137C121.559 18.137 121.013 17.9971 120.553 17.7175C120.097 17.435 119.744 17.0413 119.496 16.5362C119.251 16.0283 119.128 15.4376 119.128 14.7642C119.128 14.0908 119.251 13.4973 119.496 12.9837C119.744 12.4672 120.09 12.0649 120.532 11.7767C120.977 11.4856 121.496 11.3401 122.09 11.3401C122.432 11.3401 122.77 11.3972 123.104 11.5113C123.438 11.6255 123.742 11.8109 124.016 12.0677C124.29 12.3217 124.508 12.6584 124.671 13.0779C124.833 13.4973 124.915 14.0138 124.915 14.6273V15.0553H119.847V14.1821H123.887C123.887 13.8112 123.813 13.4802 123.665 13.1891C123.519 12.8981 123.311 12.6684 123.04 12.5C122.772 12.3317 122.455 12.2475 122.09 12.2475C121.687 12.2475 121.339 12.3474 121.045 12.5471C120.754 12.744 120.53 13.0008 120.373 13.3175C120.217 13.6343 120.138 13.9738 120.138 14.3362V14.9183C120.138 15.4148 120.224 15.8357 120.395 16.1809C120.569 16.5234 120.81 16.7844 121.118 16.9642C121.426 17.1411 121.784 17.2296 122.193 17.2296C122.458 17.2296 122.698 17.1925 122.912 17.1183C123.128 17.0413 123.315 16.9271 123.472 16.7759C123.629 16.6218 123.751 16.4306 123.836 16.2023L124.812 16.4763C124.709 16.8073 124.537 17.0983 124.294 17.3494C124.052 17.5977 123.752 17.7917 123.395 17.9315C123.039 18.0685 122.638 18.137 122.193 18.137ZM127.028 11.4257L128.603 14.1136L130.178 11.4257H131.342L129.219 14.7129L131.342 18H130.178L128.603 15.449L127.028 18H125.864L127.953 14.7129L125.864 11.4257H127.028ZM135.184 18.137C134.59 18.137 134.07 17.9957 133.622 17.7132C133.176 17.4307 132.828 17.0355 132.577 16.5276C132.329 16.0197 132.205 15.4262 132.205 14.7471C132.205 14.0623 132.329 13.4645 132.577 12.9537C132.828 12.443 133.176 12.0463 133.622 11.7639C134.07 11.4814 134.59 11.3401 135.184 11.3401C135.777 11.3401 136.297 11.4814 136.742 11.7639C137.19 12.0463 137.538 12.443 137.786 12.9537C138.037 13.4645 138.163 14.0623 138.163 14.7471C138.163 15.4262 138.037 16.0197 137.786 16.5276C137.538 17.0355 137.19 17.4307 136.742 17.7132C136.297 17.9957 135.777 18.137 135.184 18.137ZM135.184 17.2296C135.635 17.2296 136.006 17.114 136.297 16.8829C136.588 16.6518 136.803 16.3479 136.943 15.9712C137.083 15.5946 137.153 15.1865 137.153 14.7471C137.153 14.3077 137.083 13.8982 136.943 13.5187C136.803 13.1392 136.588 12.8325 136.297 12.5985C136.006 12.3645 135.635 12.2475 135.184 12.2475C134.733 12.2475 134.362 12.3645 134.071 12.5985C133.78 12.8325 133.564 13.1392 133.425 13.5187C133.285 13.8982 133.215 14.3077 133.215 14.7471C133.215 15.1865 133.285 15.5946 133.425 15.9712C133.564 16.3479 133.78 16.6518 134.071 16.8829C134.362 17.114 134.733 17.2296 135.184 17.2296ZM143.077 18V17.2296L145.971 14.0623C146.31 13.6913 146.59 13.3689 146.81 13.095C147.029 12.8182 147.192 12.5585 147.298 12.316C147.406 12.0706 147.46 11.8138 147.46 11.5456C147.46 11.2374 147.386 10.9706 147.238 10.7452C147.092 10.5198 146.892 10.3457 146.638 10.223C146.385 10.1003 146.099 10.039 145.782 10.039C145.446 10.039 145.152 10.1089 144.901 10.2487C144.653 10.3857 144.46 10.5783 144.323 10.8265C144.189 11.0748 144.122 11.3658 144.122 11.6996H143.112C143.112 11.186 143.23 10.7352 143.467 10.3471C143.704 9.95906 144.026 9.6566 144.434 9.43974C144.845 9.22288 145.306 9.11445 145.817 9.11445C146.33 9.11445 146.785 9.22288 147.182 9.43974C147.579 9.6566 147.89 9.94908 148.115 10.3172C148.341 10.6853 148.453 11.0947 148.453 11.5456C148.453 11.868 148.395 12.1833 148.278 12.4915C148.164 12.7968 147.964 13.1378 147.679 13.5144C147.396 13.8882 147.004 14.3448 146.502 14.8841L144.533 16.9899V17.0584H148.607V18H143.077ZM153.337 18.1198C152.772 18.1198 152.268 18.0228 151.826 17.8288C151.387 17.6348 151.037 17.3651 150.777 17.0199C150.521 16.6717 150.381 16.268 150.358 15.8086H151.437C151.459 16.0911 151.556 16.335 151.728 16.5405C151.899 16.7431 152.123 16.9 152.4 17.0113C152.676 17.1226 152.983 17.1782 153.32 17.1782C153.696 17.1782 154.03 17.1126 154.321 16.9813C154.612 16.8501 154.841 16.6675 155.006 16.4335C155.172 16.1995 155.254 15.9284 155.254 15.6202C155.254 15.2978 155.174 15.0139 155.015 14.7685C154.855 14.5203 154.621 14.3262 154.313 14.1864C154.005 14.0466 153.628 13.9767 153.183 13.9767H152.481V13.0351H153.183C153.531 13.0351 153.836 12.9723 154.099 12.8467C154.364 12.7212 154.571 12.5443 154.719 12.316C154.871 12.0877 154.946 11.8195 154.946 11.5113C154.946 11.2146 154.881 10.9563 154.749 10.7366C154.618 10.5169 154.433 10.3457 154.193 10.223C153.956 10.1003 153.676 10.039 153.354 10.039C153.052 10.039 152.766 10.0946 152.498 10.2059C152.233 10.3143 152.016 10.4727 151.847 10.681C151.679 10.8864 151.588 11.1347 151.573 11.4257H150.546C150.563 10.9663 150.702 10.564 150.961 10.2187C151.221 9.87061 151.561 9.59953 151.98 9.4055C152.402 9.21147 152.866 9.11445 153.371 9.11445C153.913 9.11445 154.378 9.22431 154.766 9.44402C155.155 9.66088 155.453 9.94765 155.661 10.3043C155.869 10.661 155.973 11.0462 155.973 11.46C155.973 11.9536 155.844 12.3745 155.584 12.7226C155.327 13.0707 154.978 13.3118 154.535 13.4459V13.5144C155.089 13.6057 155.521 13.8411 155.832 14.2206C156.143 14.5973 156.299 15.0638 156.299 15.6202C156.299 16.0968 156.169 16.5248 155.909 16.9043C155.652 17.2809 155.301 17.5777 154.856 17.7946C154.411 18.0114 153.905 18.1198 153.337 18.1198Z" fill="black"/>
</svg>
